<svg xmlns="http://www.w3.org/2000/svg" width="100%" viewBox="0 0 541 462" height="150" xmlns:v="https://vecta.io/nano"><style><![CDATA[.B{fill:#252b29}.C{fill:#808c94}.D{fill:#1d272b}.E{fill:#262c2d}.F{fill:#2e261c}.G{fill:#212c2e}.H{fill:#5b7984}.I{fill:#1b2426}.J{fill:#33271b}.K{fill:#211c16}.L{fill:#cc9344}.M{fill:#27211a}.N{fill:#26201a}.O{fill:#25231e}.P{fill:#a9b7b2}.Q{fill:#273033}.R{fill:#ad6c38}.S{fill:#e3c076}]]></style><path fill="#85a6b2" d="M404.923 153.11l1.06 2.01 20.905 34.048c.748 2.523 1.825 4.852 2.775 7.233 7.236 18.138 14.516 36.159 15.694 56.117.944 15.99 4.224 31.743.897 47.956-3.705 18.059-8.697 35.381-20.275 50.112-2.206 2.807-5.073 5.094-7.749 7.146.564-6.669.256-13.192 2.187-18.967 2.086-6.241 4.586-11.992 2.737-18.731-.506-1.844-.353-4.043.086-5.944 2.746-11.898-4.337-20.469-9.822-29.587-.086-.143-.619-.018-2.374-.018l1.181 10.765c.376 4.571 3.701 9.184-.401 13.513-1.274-2.663-1.78-5.475-3.318-7.505-6.384-8.427-12.552-17.116-19.782-24.783-11.629-12.334-27.435-13.919-43.098-13.609-10.009.198-19.931 3.347-29.966 3.95-18.917 1.136-36.282 6.976-53.264 14.888-10.257 4.779-21.173 8.985-32.644 7.015-8.504-1.46-14.917.572-21.005 6.092-3.153-3.784-2.467-6.389.571-10.05 3.574-4.307 6.244-9.706 7.99-15.061 1.066-3.269 1.351-8.082-4.227-9.806-1.195-.71-2.124-1.233-3.052-1.756-.376.956-.753 1.913-1.416 3.023-8.642 11.855-20.977 12.015-33.287 10.785-7.173-.717-14.166-3.233-21.517-5.146-2.651-3.769-4.478-7.909-7.506-10.784-8.323-7.902-15.108-16.697-19.079-27.541-1.698-4.637-4.676-9.183-4.936-13.888-.492-8.902.414-17.898 1.019-26.837.412-6.089.68-12.3 2.138-18.177 1.622-6.537 3.873-13.099 7.014-19.034 4.749-8.974 8.835-18.542 18.366-24.177 6.824-4.035 13.247-8.817 19.495-13.717 2.084-1.635 3.068-4.671 4.648-7.304.283-.523.472-.808.907-1.063.585-.012.875-.156 1.441-.419 1.011-.518 1.696-1.018 2.721-1.515 1.542-.608 2.745-1.22 4.294-1.836l26.962-10.723c.812-.219 1.255-.424 2.076-.541l47.374-4.743c7.741-.64 15.573-.192 23.567-.146.204.09.65.114.65.114s.4-.198.661.066c2.655.764 5.048 1.264 7.748 1.939.768.221 1.231.268 1.843.482.717.185 1.286.203 2.058.33.203.11.663.162.663.162s.427-.179.677.101c4.637 1.417 9.025 2.554 13.719 3.881 1.24.384 2.174.577 3.357 1.04l23.631 9.207c2.219.995 4.154 1.772 6.299 2.815 1.61.87 3.01 1.474 4.635 2.246.588.254.951.339 1.536.695l11.48 5.7 11.611 8.26c.795.719 1.463 1.157 2.291 1.864l4.641 4.177c2.185 1.97 4.223 3.641 6.345 5.49.361.467.638.755.967 1.375l11.511 13.618c1.483 1.941 2.885 3.566 4.287 5.191m-231.152-15.649c-6.811 2.954-13.595 5.946-18.447 12.931-1.191 3.326-2.382 6.652-4.088 10.425-.135 1.057-.269 2.113-.763 4.027.617 9.057 1.233 18.114 1.206 27.572-.132.951-.458 1.92-.368 2.85 1.591 16.455 14.343 23.482 27.064 28.144 14.766 5.411 30.573 6.671 46.415 1.699 11.607-3.643 21.209-8.935 26.909-20.281 5.087-10.124 6.563-20.396 5.495-31.74-1.678-17.829-10.395-30.385-25.583-38.861-2.062-1.15-5.039-.66-8.23-1.106-.422-.127-.844-.255-1.429-1.101-3.718-2.69-7.646-3.646-12.878-1.582-10.85-1.012-21.387-.218-31.728 5.478-.945.48-1.89.959-3.575 1.543m96.594.809c-.293.592-.587 1.185-1.437 2.058-3.307 3.76-1.181 6.691 2.017 8.462 4.413 2.444 7.719 5.567 9.456 10.279 3.605 9.78 7.942 19.472 3.757 30.236a156.61 156.61 0 0 0-4.054 11.74c-.422 1.378-1.142 2.749-1.177 4.138-.032 1.242.69 2.504 1.498 4.25 2.783-.838 5.647-2.564 8.332-2.322 4.945.447 9.776 2.089 14.672 3.158 2.434.532 4.533 3.959 7.568 1.616 2.655 1.703 5.218 4.674 7.981 4.874 8.863.639 17.806.038 26.706.314 11.665.361 20.542-7.607 24.382-17.803 7.204-19.132 3.788-37.247-5.43-54.604-3.478-6.549-8.666-11.785-17.446-12.827-6.003-3.591-12.586-3.925-19.262-3.151-3.553.412-7.078 2.137-10.552 1.967-10.879-.53-19.084 3.943-26.348 12.256-5.058-2.139-10.047-4.476-15.223-6.277-1.307-.455-3.211.809-5.438 1.636z"/><path fill="#cf9444" d="M331.077 348.717l1.921.482c8.039 1.327 15.403 2.99 22.844 3.485 16.22 1.08 32.444 1.414 45.813-10.414.156-.138.614.067 1.365.174-.362 3.741-.949 7.497-1.036 11.265-.118 5.041 1.364 9.496 6.001 12.708 3.092 1.943 6.177 3.498 9.709 5.279.018-.199.068.467-.113 1.062-3.89 12.748-9.167 24.56-18.135 34.903-10.22 11.786-21.927 17.488-37.554 14.575-7.614-1.419-15.339-2.244-22.981-3.762-.977-5.673-1.985-10.923-2.638-16.257 2.336.766 4.505 1.334 6.265 2.512 9.399 6.287 19.094 7.248 29.319 2.475 1.059 5.059 2.395 5.621 6.9 3.284 9.657-5.009 14.601-18.028 10.624-28.401-.454-1.185-1.78-2.427-2.961-2.783-.616-.185-1.922 1.407-2.682 2.379-.594.76-.828 1.802-1.46 2.447-2.259-4.547-4.279-8.824-6.286-13.491-.224-3.249-1.864-3.99-4.692-3.38-.58-.203-.898-.359-1.298-.826-1.726-.674-3.37-1.038-5.337-1.418-.734-.146-1.144-.276-1.626-.664-.733-.268-1.395-.278-2.381-.298-.74-.123-1.156-.234-1.68-.684-1.068-.943-1.968-1.936-2.998-2.097-17.972-2.802-35.91-6.623-54.091-2.871.437-2.358.76-4.36 1.378-6.612 2.04-.763 3.762-1.598 5.536-1.732 7.416-.562 14.848-.913 22.274-1.342z"/><path d="M371.802 406.803c-10.171 5.174-19.866 4.213-29.265-2.074-1.761-1.178-3.929-1.747-6.669-2.673-3.117-.146-7.472-1.692-6.218 2.494 1.602 5.35 5.3 10.073 8.077 15.402 6.315 7.702 14.772 10.517 24.056 11.153 5.743.394 11.529.165 17.295.215l1.282 2.593c-15.527 2.911-30.421 2.037-42.953-8.257-6.394-5.252-11.291-12.34-11.557-21.484-.141-4.833 3.57-6.44 6.62-5.98 5.433.82 10.954 2.561 15.862 5.051 11.97 6.073 21.836 2.491 28.358-5.856 3.832-4.904 2.59-15.209-3.538-22.93-4.667-5.879-11.439-5.534-17.467-7.172-4.382-1.191-9.169-.888-14.271-1.666-1.238-.715-1.978-1.271-2.722-1.277-9.263-.065-18.527-.113-27.788.017-1.27.018-2.525 1.02-3.788 1.567-6.85 1.112-13.136 3.243-17.556 9.83-.782.99-1.149 1.642-1.516 2.293 0 0-.041-.048-.377-.19-1.414 3.07-2.845 6.212-3.497 9.509-1.353 6.849-2.048 7.723-8.709 8.376-7.485-1.315-12.162-8.277-9.726-15.234 4.687-13.389 14.211-22.546 26.828-28.401 5.464-2.536 11.319-4.709 17.222-5.684 6.184-1.022 12.639-.48 18.973-.421.761.007 1.51 1.273 2.293 2.334-7.398.808-14.83 1.159-22.246 1.721-1.774.134-3.496.969-5.916 1.726-15.097 4.661-25.483 14.028-32.74 26.947-2.705 4.816-1.212 9.948 3.112 12.707 2.34 1.493 4.918 2.502 6.581-1.603.535-1.821.831-3.329 1.389-5.097 2.698-11.497 9.396-18.897 20.557-21.633 5.262-1.29 10.826-2.176 16.208-1.985 13.711.485 27.396 1.678 41.092 2.588a16.31 16.31 0 0 1 1.767.574c1.099.269 1.678.299 2.257.328.41.13.821.26 1.784.658 2.098.671 3.644 1.073 5.19 1.476.318.156.636.312 1.368.8l4.526 3.486 6.298 13.534c1.487 7.774 1.245 14.356-5.585 18.841-1.658 1.089-3.26 2.262-4.888 3.396z" class="M"/><path fill="#acbfb8" d="M174.877 105.579c-1.487 2.395-2.472 5.431-4.555 7.066-6.247 4.901-12.671 9.682-19.495 13.717-9.531 5.636-13.617 15.204-18.366 24.177-3.141 5.935-5.392 12.498-7.014 19.034-1.458 5.877-1.726 12.088-2.138 18.177-.605 8.938-1.511 17.935-1.019 26.837.26 4.705 3.238 9.251 4.936 13.888 3.971 10.843 10.756 19.638 19.079 27.541 3.028 2.875 4.854 7.015 7.464 11.122-.144 1.085-.522 1.626-1.203 2.008-7.941-7.507-15.913-14.547-23.09-22.322-4.067-4.406-7.493-9.712-9.991-15.17-2.366-5.17-3.145-11.067-4.592-17.074l-.962-27.602c.054-.437.109-.874.398-1.82.605-3.007.612-5.628 1.409-7.982 2.92-8.624 5.611-17.38 9.315-25.672 4.392-9.832 10.075-18.866 17.822-26.723 7.543-7.65 16.592-12.592 26.147-17.513 1.542-.559 2.751-1.114 4.276-1.644.736.001 1.158-.023 1.579-.047z"/><path fill="#080808" d="M92.963 152.994c-.484-.258-.967-.515-1.678-1.231.874-.899 1.994-1.763 3.072-1.712 8.48.401 15.109-2.633 19.872-9.82 3.608-5.444 4.327-12.756.736-18.256 0 2.503.063 4.076-.01 5.644-.672 14.361-15.653 24.555-28.006 19.071-.244-.351-.488-.703-.772-1.733l.837-19.005s.005.066.273.002c.432-.436.596-.807.76-1.178 1.243-5.732 4.355-8.737 10.862-9.773 1.552-.341 2.368-.685 3.185-1.03l.888.029c1.692-.653 2.839-1.327 3.986-2 0 0 .014-.021.299-.068 1.342.683 2.399 1.415 3.802 2.222 6.974 3.533 10.643 8.926 10.661 16.468.028 12.243-8.449 22.112-20.857 24.141-.734.064-1.344.349-2.203.934-.423 1.306-.597 2.311-1.053 3.38-1.068-1.324-1.854-2.712-2.641-4.1 0 0 .033.016-.002-.294-.693-.77-1.352-1.23-2.01-1.691m18.002-25.028l-1.678-3.691-1.622.295v9.422l2.076.324c.438-1.852.875-3.704 1.224-6.349z"/><path fill="#b66a36" d="M379.388 431.212c-6.076.057-11.861.286-17.604-.108-9.284-.637-17.741-3.451-23.789-11.359.484-.644.684-.746.883-.848 7.674 1.094 15.399 1.919 23.013 3.338 15.627 2.913 27.335-2.789 37.554-14.575 8.968-10.342 14.245-22.155 18.135-34.903.182-.595.132-1.26.113-1.062-3.532-1.781-6.616-3.336-9.269-5.341 6.363-1.71 12.294-2.97 18.354-4.257-6.194 16.024-6.6 34.766-20.198 48.123-2.446 2.402-4.099 5.723-6.772 7.761-6.054 4.617-12.516 8.699-18.812 12.999-.433.041-.866.082-1.608.231z"/><path d="M381.665 127.138c-1.444-1.203-2.889-2.405-4.496-4.233-.207-1.326-.251-2.026-.142-2.901.154-.174.466-.519.768-.376l11.445 9.135c2.87-3.404 5.42-7.115 8.641-10.103 6.202-5.751 7.989-12.873 7.229-20.822-.477-4.983-1.588-9.906-2.52-15.215-4.815-4.567-9.524-8.775-14.42-13.267-4.02-2.557-7.601-5.565-11.728-6.985-28.879-9.936-57.286-6.472-85.735 3.647l-25.994 10.225c-2.768 1.144-5.178 2.258-7.589 3.373l.282 1.221c3.218 0 6.45-.186 9.652.037 8.021.558 16.03 1.3 23.761 2.287-2.008.582-3.732.846-5.457 1.111l-.4.198s-.446-.024-.934-.443l-31.195-1.372a39.76 39.76 0 0 1-.824-3.912l.008-.777c7.776-3.555 15.34-7.715 23.377-10.523 12.048-4.21 24.427-7.471 37.457-11.213l16.63-2.425 27.417.758c1.35.031 2.711-.396 4.067-.612 4.942 1.598 9.795 3.607 14.846 4.704 9.299 2.019 15.699 8.568 23.111 13.635 4.95 3.384 8.062 7.596 9.026 14.303l-1.955 27.599-13.346 16.595c-.73.264-1.027.249-1.782.209-1.368-.008-2.276-.002-3.449-.182l-5.753-3.674z" class="N"/><path d="M418.345 358.207c2.562-2.527 5.429-4.814 7.635-7.62 11.577-14.732 16.569-32.053 20.275-50.112 3.327-16.213.047-31.966-.897-47.956-1.178-19.958-8.458-37.979-15.694-56.117-.95-2.381-2.027-4.71-2.489-7.066 5.129 7.923 9.702 15.848 14.275 23.774.629 1.514 1.259 3.029 2.04 5.212.548 2.037.944 3.405 1.348 5.176.795 3.452 1.529 6.515 2.379 9.545 6.583 23.461 8.854 47.36 4.648 71.354-2.729 15.572-9.149 30.067-18.64 42.981-.954 1.298-1.588 2.833-2.668 4.403-1.064 1.148-1.831 2.151-2.597 3.154-.31.125-.576.311-1.246.89-3.245 1.889-6.043 3.447-8.786 4.677l.418-2.294z" class="H"/><path d="M417.871 360.83l8.711-4.798c1.123 1.279 1.931 2.68 2.797 4.184l2.256-3.784 1.157.264c-.31 1.545-.483 3.133-.952 4.628l-10.97 34.473c-.714 2.191-1.667 4.407-2.978 6.284-8.399 12.021-17.772 23.085-31.091 30.008-1.827.95-4.023 3.295-5.667-.802 6.159-4.606 12.621-8.689 18.675-13.306 2.673-2.039 4.326-5.359 6.772-7.761 13.599-13.357 14.004-32.099 20.198-48.123l-18.362 3.869c-5.069-2.763-6.551-7.217-6.433-12.258.088-3.767.674-7.523 1.036-11.265-.751-.107-1.209-.312-1.365-.174-13.369 11.828-29.593 11.494-45.813 10.414-7.442-.495-14.806-2.158-22.515-3.517 2.55-.866 5.419-2.066 8.271-2.026 5.17.073 10.329.885 16.201 1.814 4.789.598 8.881 1.033 12.945.852 2.725-.121 5.41-1.114 8.114-1.717 8.697.074 15.103-4.867 22.024-9.797l5.33-.227c.208.066.642.012.524.463-.472 5.061-.968 9.666-1.151 14.284-.386 9.724 3.168 11.997 12.287 8.015z" class="M"/><path d="M114.863 215.011c1.477 5.577 2.255 11.474 4.622 16.644 2.498 5.458 5.924 10.764 9.991 15.17 7.177 7.774 15.149 14.815 23.289 22.581l6.465 4.852c12.193 9.359 33.33 9.375 45.433.021 4.575-3.536 6.205-8.64 4.238-13.271l1.129-2.869c.929.523 1.858 1.046 3.08 2.167 1.116 8.342-1.948 14.171-8.501 18.202-2.398 1.475-4.824 2.979-7.409 4.058-3.881 1.62-4.06 4.296-1.987 7.111 3.412 4.632 6.996 9.334 13.994 9.069.741.346 1.261.526 1.658 1.027-2.043.966-3.963 1.611-5.883 2.256-6.542-2.204-10.653-7.276-13.708-12.922-1.619-2.992-3.163-4.089-6.37-4.205-4.075-.147-8.706 1.77-11.943-2.514-6.11 2.609-10.595-1.707-15.216-4.114-3.8-1.98-6.759-5.563-10.112-8.411-10.738-9.121-21.65-18.087-28.349-30.898-.654-1.251-.855-2.74-1.279-4.851a15.42 15.42 0 0 0-1.065-3.096s.058-.012.03-.294c-.344-.763-.66-1.245-.975-1.726-.671-2.395-1.342-4.791-2.031-7.876-.353-1.161-.688-1.632-1.023-2.104 0 0 .053-.021.051-.4-.019-1.447-.035-2.515.268-3.6l1.602-.007z" class="I"/><path d="M430.854 351.635c.782-1.425 1.416-2.959 2.37-4.258 9.491-12.913 15.911-27.408 18.64-42.981 4.206-23.995 1.935-47.893-4.648-71.354-.85-3.03-1.584-6.093-2.097-9.757.128-2.187-.019-3.758-.166-5.33 2.327-4.054 2.287.313 2.462.893 1.958 6.465 3.904 12.944 5.519 19.501 3.971 16.122 5.449 32.539 5.015 49.106-.4 15.24-3.611 29.862-10.904 43.376-3.427 6.35-7.083 12.586-10.912 18.7-.903 1.442-2.921 2.187-4.815 2.94-.414-.487-.439-.661-.464-.836z" class="D"/><path d="M346.017 297.903c.059 2.834-1.113 3.512-3.716 2.357-4.041-1.793-8.108-3.555-12.258-5.073-10.442-3.82-21.302-5.027-32.368-5.305-3.044-.076-6.05-1.679-9.39-3.038-.693-2.14-3.711-3.336-.921-5.707 2.429-.82 4.526-1.474 6.833-1.901 1.759-.441 3.308-1.109 5.222-1.925 3.105-.86 5.843-1.571 8.741-2.079.735-.149 1.31-.502 2.223-1.007 1.765-.5 3.192-.847 4.773-.996.733-.106 1.313-.411 2.207-.845.761-.178 1.208-.228 1.834-.073.747-.045 1.315-.295 2.248-.628 2.107-.243 3.849-.404 5.813-.336 1.382.079 2.543-.071 4.157-.273 3.152.116 5.852.283 8.685.735 1.714.284 3.296.284 5.256.261 1.121.109 1.862.241 2.7.642 1.05.276 2.004.283 3.346.292 3.116.759 5.843 1.515 8.579 2.664l.02 4.306c-1.547.93-3.002 2.109-4.664 2.734-2.623.987-1.849 2.185-1.527 4.448.539 3.785.071 7.937-.988 11.645-.673 2.356-3.114 2.857-4.466-.711.774-1.687 1.468-2.842 2.363-4.412.275-3.123.347-5.832.624-8.832 1.17-2.637 2.136-4.983 2.997-7.073-22.105-8.407-42.484-.57-63.039 6.379 5.022 3.03 10.452 1.581 16.074 1.948l26.083 5.843c4.344 2.158 8.452 4.058 12.561 5.959zm95.865-84.828c-5.006-7.892-9.579-15.818-14.437-23.91l-21.211-33.899c1.581.35 3.136 1.198 4.798 1.646.511.138 1.316-.819 1.977-1.594-.009-.319-.022-.306-.022-.306.752-.001 1.504-.002 2.655.303.746.805 1.093 1.304 1.439 1.803.406.239.812.478 1.602.902.736.076 1.087-.034 1.438-.143 1.166.835 2.332 1.67 3.842 3.02.924.729 1.504.942 2.085 1.156.137.253.313.473.895 1.046 1.347.862 2.327 1.34 3.307 1.819 7.906 2.097 15.855 3.456 22.628 9.098 9.883 8.233 11.239 18.001 2.682 28.01-1.605 1.878-3.606 3.74-4.345 5.968-1.547 4.661-4.434 6.01-9.335 5.081m-6.342-44.366a3.87 3.87 0 0 0-1.686-.002c-.327.039-.598-.066-1.197-.985l-3.575-.769c-2.729-1.558-5.457-3.116-8.443-5.256-.378-.17-.757-.341-1.706-.699-.994-.646-1.987-1.293-3.096-2.273-.272.047-.545.093-1.448.312-.099.697-.533 1.597-.25 2.061l21.169 34.451c3.056 5.057 5.724 10.348 8.798 15.954 3.646-5.032 7.108-9.296 9.976-13.929 2.337-3.775 4.411-7.923 1.917-13.307l-6.413-7.826c-4.566-2.38-9.133-4.761-14.046-7.734z" class="K"/><path d="M172.983 105.6c-1.209.555-2.419 1.11-4.431 1.594-1.741-.149-2.679-.227-3.521-.647 1.385-.76 2.673-1.177 4.277-1.632.759-.666 1.203-1.295 1.639-2.217-.315-.758-.621-1.224-.928-1.689.136-11.387 8.447-15.806 17.036-19.989 1.365-.665 2.872-1.136 4.074-2.023 8.247-6.082 23.646-6.409 31.838-.495.87.628 1.353 1.793 1.866 3.298.795 4.996-2.681 4.506-5.179 5.201-2.246.625-4.442 1.428-6.66 2.153-.443.205-.886.409-1.964.425-3.017-.445-5.398-.701-7.832-1.252-4.414-9.377-8.018-10.324-13.769-3.901 6.297 6.486 6.297 6.486 10.614 5.983-.552 1.031-1.267 2.177-2.301 2.756-4.535 2.538-9.161 4.912-13.755 7.345-1.203.612-2.405 1.224-4.316 1.766-1.365.486-2.022 1.043-2.679 1.599-.239.246-.529.389-1.46.355-1.243.406-1.896.888-2.549 1.37m9.978-8.381l10.867-4.543-7.176-5.33c-6.906-.542-12.914 6.057-12.269 14.265 2.781-1.557 5.306-2.97 8.578-4.392m25.791-10.296l12.958-3.297c-6.949-6.711-12.439-7.776-19.806-3.779 2.085 2.428 4.074 4.744 6.848 7.076z" class="O"/><path d="M164.934 106.89l3.285.309c-8.752 4.991-17.801 9.933-25.344 17.583-7.747 7.857-13.43 16.891-17.822 26.723-3.704 8.292-6.395 17.047-9.315 25.672-.797 2.354-.804 4.975-1.435 7.652-6.362-4.412-13.719-7.893-16.536-15.621-1.539-4.222-1.889-8.876-2.784-13.782.777.941 1.563 2.329 2.867 3.933 1.898 3.533 3.278 6.849 4.685 10.507 2.905 3.219 5.784 6.097 9.134 9.447l7.666-22.526c1.459-3.338 2.223-6.712 4.022-9.391 6.401-9.532 13.155-18.828 20.116-28.259l20.263-12.414c.663.108.93.137 1.198.166z" class="B"/><path fill="#1e2829" d="M76.955 292.995c-4.428-1.413-8.251-4.013-9.071-8.624-1.02-5.737-1.592-11.73-1.091-17.502.378-4.36 10.703-11.692 15.22-11.757 7.943-.114 15.501 1.104 20.898 8.466 1.643 8.789 2.043 16.682-1.877 24.259-.044.525-.088 1.05-.509 1.966l-4.792 5.3s-.125.026-.621-.212c-6.383-.791-12.27-1.343-18.157-1.895m4.841-1.484c1.03.012 2.06.025 3.925.443 7.859.886 10.369-.283 13.067-7.328 1.39-3.631 2.688-7.733 2.347-11.468-.342-3.742-2.777-7.293-4.735-11.469-1.771-.645-3.543-1.289-6.021-2.381-14.044-3.319-21.531 5.916-20.677 15.503.187 7.556 3.404 13.135 10.508 16.634l.382.283s.428-.207 1.206-.215z"/><path fill="#192227" d="M360.386 280.002c-.389-1.333-.393-2.638-.036-4.357 23.64 5.083 48.909 35.471 45.653 62.357-1.533.106-3.066.212-4.837.11 3.984-6.498.492-12.75-.774-18.776-1.802-8.582-7.118-15.434-13.313-22.323-1.504-1.767-2.823-2.889-4.141-4.01 0 0 .065-.006.09-.299-.347-.431-.719-.569-1.091-.706 0 0 .067-.002.087-.297-.349-.429-.719-.564-1.088-.699 0 0 .065-.004.111-.306-.34-.433-.725-.563-1.111-.693 0 0 .064-.004.134-.329-1.663-1.433-3.397-2.541-5.13-3.649 0 0 .059-.023.024-.385-.532-.458-1.029-.553-1.526-.649 0 0-.016.116-.06-.278-.51-.498-.975-.602-1.441-.706 0 0 .066-.01.033-.295-.639-.419-1.245-.553-1.851-.688l-9.734-3.021z"/><path d="M165.031 106.548c-.364.313-.631.284-1.355-.126-8.826-4.355-17.59-6.374-27.28-5.837-9.227-.131-16.981 2.731-23.32 8.934-1.161 1.136-1.587 3.022-2.353 4.562-1.057-.731-2.115-1.463-3.446-2.153.183-.66.64-1.36 1.598-2.206.711-.271.83-.455.858-.699 1.178-5.313 6.143-6.393 9.92-8.732 1.642-1.017 3.614-1.499 6.236-2.21l22.158-.073 20.564 6.12c.377.467.379.647.381.827-1.289.418-2.577.835-3.962 1.595z" class="E"/><path fill="#2b3538" d="M117.637 298.196c9.14-3.065 13.997-1.548 16.277 4.795 3.33 9.262-1.506 12.625-9.009 13.922-4.38.757-8.83.347-10.82-5.104-1.508-4.13-.278-10.267 3.552-13.613m12.154 6.013c-.891-3.929-3.607-4.873-7.166-4.295-4.319.702-4.739 4.018-5.33 7.937 1.094 4.501 3.685 5.671 9.284 4.405 4.448-1.006 4.844-3.69 3.211-8.047z"/><path d="M287.032 281.302c-2.458 2.205.561 3.401.963 5.406-4.679-1.706-6.931 3.018-10.473 4.237-7.709 2.652-15.176 6.001-22.841 8.795-4.535 1.653-9.259 2.79-14.243 3.818-.042-1.431.261-2.52.862-3.705.714-.128 1.129-.16 1.71.086.743.46 1.32.642 1.898.824l.161-.555c-.576-.214-1.152-.427-1.47-.905 8.402-3.125 16.663-5.699 24.655-8.937 6.428-2.605 12.531-6.013 18.778-9.064z" class="D"/><path d="M213.371 89.244a47.36 47.36 0 0 1 6.281-2.241c2.498-.695 5.973-.205 5.233-4.849 8.11 1.097 15.757.031 23.211-2.748 1.079-.402 2.116-.919 3.547-1.412.375.144.375.316.056.905-1.653 1.337-2.987 2.258-4.32 3.18l.334.892h5.26l30.852.966c-7.507.373-15.338-.076-23.079.564-15.691 1.298-31.333 3.186-47.374 4.743z" class="B"/><path fill="#31322f" d="M86.904 147.097c12.398 5.076 27.379-5.117 28.051-19.479.073-1.567.01-3.141.01-5.644 3.591 5.5 2.872 12.812-.736 18.256-4.763 7.187-11.391 10.221-19.872 9.82-1.077-.051-2.198.814-3.324 1.603-1.408-1.151-2.791-2.65-4.129-4.557z"/><path d="M114.893 214.581c-.457.427-.884.424-1.879.427l-1.063.009c-.345-1.087-.691-2.175-.755-3.854.174-2.086.066-3.581-.041-5.075-.027-3.448-.053-6.895.183-11.002-.059-2.095-.381-3.531-.704-4.967.899-1.005 1.798-2.009 2.997-3.077.63 8.995.96 18.052 1.261 27.539z" class="B"/><path fill="#ddbb76" d="M346.349 297.877c-4.44-1.874-8.548-3.775-12.562-6.271 2.266-.714 4.541-1.299 6.586-.847 3.457.765 6.77 2.188 10.143 3.334-.693 1.155-1.387 2.311-2.298 3.693-.658.173-1.098.119-1.869.091z"/><path d="M391.326 131.008l1.107.061c3.561 4.764 6.906 9.513 9.991 14.66-.796.889-1.332 1.381-1.868 1.873-3.793-4.323-7.586-8.646-11.087-13.296.738-.223 1.184-.121 1.688.069.057.087.403.036.403.036s-.266-.314-.32-.699c-.007-1.158.04-1.932.086-2.705z" class="G"/><path d="M307.573 365.987c.804-.607 2.06-1.609 3.33-1.627l27.788-.017c.744.005 1.485.561 2.274 1.256-10.946.412-21.94.43-33.392.388z" class="C"/><path fill="#57737d" d="M406.36 114.05c.271-8.771.908-17.682 1.591-27.102 3.617 8.833 2.993 17.981-1.591 27.102z"/><path d="M275.78 395.91c6.341-.819 7.036-1.693 8.389-8.542.651-3.297 2.083-6.439 3.525-9.495-.778 4.687-2.062 9.186-3.022 13.754-1.081 5.145-3.997 6.278-8.892 4.282z" class="C"/><path fill="#95a8a9" d="M378.4 348.034c-2.247.66-4.933 1.653-7.657 1.774-4.064.181-8.156-.254-12.607-.635 4.229-.553 8.826-.949 13.43-1.217 2.118-.123 4.251.006 6.834.078z"/><path d="M360.801 53.563c-1.191.602-2.552 1.028-3.902.998l-27.429-1c-.422-.225-.545-.694-.545-.694l24.487-.602c2.405-.023 4.816.59 7.39 1.298z" class="P"/><path d="M101.414 287.897c3.54-7.637 3.14-15.531 1.461-23.988 3.606 5.238 2.914 19.346-1.461 23.988z" class="C"/><path d="M86.643 126.077c.079 5.984-.214 12.092-.556 18.686-4.25-5.916-2.046-12.239.556-18.686z" class="H"/><path d="M147.894 97.633c-6.966.401-14.086.43-21.65.42 6.758-3.525 14.088-3.316 21.65-.42zM77.048 293.365c5.794.182 11.681.734 18.044 1.464-5.947 3.816-11.972 1.706-18.044-1.464zm251.43-240.471c.447-.027.57.443.582.685-5.13 1.019-10.273 1.795-15.86 2.509 4.648-1.098 9.739-2.132 15.278-3.194z" class="C"/><path d="M400.635 147.92c.456-.809.992-1.301 1.89-1.868.988 2.124 5.81 2.912 2.472 6.739-1.477-1.305-2.88-2.93-4.362-4.871z" class="K"/><path d="M205.26 302.147l5.936-2.454c1.469.002 2.485.404 3.158 1.041-.649.985-.954 1.734-1.259 2.483l-7.834-1.071z" class="D"/><path d="M223.974 302.785l.004 1.168.031.978c-1.391.022-2.782.045-4.626-.277-.763-1.461-1.074-2.579-1.003-3.708 2.113.268 3.844.546 5.584 1.078l.01.76z" class="I"/><path d="M224.358 305.141c-.35-.21-.359-.652-.364-.873 2.829-.22 5.663-.22 8.497-.22l-.032 1.862-8.101-.769z" class="D"/><path d="M241.002 299.948l-.947 3.603c-.467.379-.897.423-1.822.267l-2.22-.821c-1.074-.032-2.147-.063-3.61-.385-.381-.459-.373-.628-.007-.841l4.767-.546c.716-.131 1.279-.465 2.159-.935.772-.204 1.227-.273 1.681-.341z" class="I"/><path d="M232.038 301.815l-.036.759c-2.388.283-4.764.314-7.584.279-.444-.236-.444-.405-.113-.977 2.799-.289 5.266-.175 7.734-.061z" class="D"/><path d="M96.103 295.098c1.101-1.632 2.572-3.269 4.39-4.902-1.109 1.635-2.564 3.266-4.39 4.902z" class="C"/><path d="M413.006 154.994l-4.838-2.578.902-1.488 3.896 3.731c.021.353.034.341.04.335z" class="K"/><path d="M375.024 286.354c1.65.778 3.383 1.886 5.042 3.351-1.703-.769-3.331-1.895-5.042-3.351zm7.93 7.008c1.302.763 2.62 1.885 3.996 3.344-1.288-.77-2.634-1.878-3.996-3.344z" class="C"/><path d="M217.998 300.958l.967 3.702c-.773.107-1.582-.136-2.719-.884-.621-1.41-.914-2.314-.834-3.194l2.585.376z" class="D"/><path d="M444.615 218.024c.485 1.503.632 3.074.497 4.857-.678-1.155-1.074-2.523-1.482-4.238.208-.415.428-.483.985-.619z" class="K"/><path d="M215.04 300.557l.92 3.067c-.731.139-1.503-.076-2.571-.348.01-.807.316-1.556 1.049-2.532.428-.227.601-.187.601-.187z" class="I"/><path d="M430.555 351.781c.323.029.349.203.4.636-.757 1.007-1.54 1.756-2.66 2.511.429-.996 1.196-1.998 2.26-3.147z" class="M"/><path d="M106.614 111.957c-.793.718-1.94 1.392-3.461 2.061.786-.705 1.947-1.405 3.461-2.061zm4.491 94.537a18.39 18.39 0 0 1 .107 4.308c-.23-1.147-.194-2.524-.107-4.308zm-.365-15.983c.217 1.044.539 2.48.624 4.165-.331-1.091-.425-2.432-.624-4.165z" class="E"/><path d="M236.018 303.3c.569-.096 1.144.111 1.897.579-.511.082-1.202-.097-1.897-.579z" class="D"/><path d="M169.307 104.916c-.317-.143-.319-.322-.333-.773.11-.544.288-.775.981-1.062.64-.095.819-.092.999-.089-.444.629-.888 1.257-1.647 1.923z" class="B"/><path d="M111.951 215.383c.001-.366.497-.368.744-.358.264 1.078.281 2.146.283 3.616-.352-.696-.689-1.794-1.026-3.258z" class="E"/><path d="M430.159 164.563c-.888-.122-1.868-.601-3.036-1.348.856.152 1.9.572 3.036 1.348z" class="F"/><path d="M101.737 113.982c-.46.335-1.277.68-2.446 1.025.462-.338 1.276-.677 2.446-1.025z" class="E"/><path d="M288.327 378.004c.082-.607.45-1.258 1.193-1.89-.052.628-.48 1.237-1.193 1.89z" class="C"/><path d="M116.942 231.365c.351.44.702 1.227 1.045 2.363-.353-.44-.7-1.227-1.045-2.363z" class="E"/><path d="M93.106 153.254c.516.201 1.174.661 1.867 1.45-.552-.178-1.138-.684-1.867-1.45z" class="B"/><path d="M170.946 102.699c-.172.29-.351.287-.801.269-.244-.448-.217-.88-.159-1.635.339.142.645.607.96 1.366z" class="E"/><path d="M370.18 283.326c.545-.168 1.152-.034 1.793.419-.554.173-1.143.028-1.793-.419z" class="C"/><path d="M112.964 219.324c.314.165.649.636 1.005 1.413-.314-.165-.649-.636-1.005-1.413z" class="E"/><path d="M425.892 161.783c-.423.057-1.003-.157-1.724-.656.428-.062.998.162 1.724.656z" class="F"/><path d="M115.995 229.304c.317.174.633.656.956 1.44-.314-.176-.636-.654-.956-1.44z" class="E"/><path d="M419.989 157.713c-.217.275-.568.384-1.057.306.216-.282.57-.376 1.057-.306zm-2.899-.922c-.354-.171-.701-.67-1.071-1.483.344.176.711.666 1.071 1.483z" class="F"/><path d="M87.815 124.943c.067.204-.097.576-.561 1.017-.09-.237.12-.543.561-1.017z" class="H"/><path d="M372.009 284.333c.394-.223.859-.12 1.311.375-.423.245-.831.099-1.311-.375zm1.664.886c.263-.133.76-.037 1.295.452-.329.188-.695-.017-1.295-.452z" class="C"/><path fill="#080808" d="M109.594 109.098c.11.166-.009.351-.382.513-.065-.153.071-.311.382-.513z"/><path d="M379.988 290.281c.334-.147.72-.017 1.056.448-.368.166-.686-.002-1.056-.448zm1.01.994c.308-.138.677-.004 1.026.459-.335.157-.65-.015-1.026-.459zm.994 1c.316-.14.688-.002 1.035.462-.343.156-.661-.014-1.035-.462z" class="C"/><path fill="#5b7b86" d="M215.413 300.581l-.631-.073c-1.101-.411-2.117-.813-3.462-1.136-.849-.101-1.37-.281-2.115-1.073a18.49 18.49 0 0 1-.178-3.281c5.81-5.727 12.223-7.759 20.727-6.299 11.47 1.97 22.386-2.236 32.644-7.015 16.982-7.912 34.347-13.752 53.264-14.888 10.035-.602 19.957-3.752 29.966-3.95 15.663-.31 31.468 1.275 43.098 13.609 7.229 7.667 13.397 16.356 19.782 24.783 1.538 2.03 2.044 4.842 3.297 7.959.402 3.299.514 5.934.662 8.567.415 7.399-1.006 14.287-5.613 20.295 0 0-.433.054-.642-.012 3.048-26.952-22.222-57.34-45.871-62.814-3.096-.734-5.823-1.49-9.193-2.457a24.29 24.29 0 0 0-3.188-.354 34.43 34.43 0 0 1-2.88-.618c-2.141-.249-3.627-.275-5.113-.3l-8.778-.668c-1.836-.024-2.994.119-4.151.262-1.743.161-3.485.322-5.797.433-1.12.152-1.671.353-2.222.554-.447.05-.894.1-1.929.177-1.087.268-1.586.507-2.086.747l-4.904 1.135c-1.114.35-1.606.606-2.098.863l-8.921 2.224c-2.168.645-3.631 1.201-5.093 1.757l-6.622 2.127c-6.58 3.218-12.683 6.626-19.111 9.23-7.992 3.238-16.253 5.812-24.782 8.933-.384.26-.627.361-.627.361-.415.032-.831.064-1.545.191-.753.165-1.207.233-2.254.379-1.074.315-1.557.553-2.039.79l-4.613.75c-2.825-.07-5.292-.184-8.1-.149-2.071-.129-3.803-.408-5.915-.676-1.119-.106-1.856-.223-2.967-.365z"/><path fill="#5b7b87" d="M224.019 133.3c2.553.269 5.53-.221 7.592.93 15.188 8.476 23.905 21.031 25.583 38.861 1.068 11.344-.408 21.615-5.495 31.74-5.701 11.346-15.302 16.638-26.909 20.281-15.842 4.972-31.649 3.712-46.415-1.699-12.721-4.662-25.473-11.689-27.064-28.144-.09-.929.236-1.899.981-2.805 2.12 1.407 3.627 2.77 5.086 4.142-.048.008.11.045-.276.264-1.954 5.097 1.789 7.23 4.828 9.101 4.653 2.863 9.616 5.322 14.67 7.412 13.329 5.512 27.402 5.217 40.512.934 14.141-4.62 24.032-15.51 28.82-29.743 1.863-5.539 2.127-12.212 1.096-18.009-2.552-14.342-10.385-25.6-23.008-33.262z"/><path fill="#5b7c88" d="M347.793 132.182c8.174.699 13.362 5.935 16.84 12.484 9.218 17.357 12.634 35.472 5.43 54.604-3.839 10.196-12.717 18.164-24.382 17.803-8.9-.276-17.843.325-26.706-.314-2.763-.199-5.326-3.171-7.821-5.384.38-1.013.6-1.515 1.233-2.063l22.018-.265c2.088-.246 3.797-.535 5.797-.802.483-.009.675-.039 1.167-.072 1.03-.301 1.761-.6 2.877-.901 1.017-.384 1.649-.764 2.64-1.057 3.094-1.613 6.439-2.787 8.452-5.113 6.168-7.128 9.289-15.816 9.531-25.134.439-16.866-5.407-31.521-17.078-43.785z"/><path fill="#b1c6bf" d="M406.735 338.53c4.725-6.459 6.146-13.346 5.731-20.745l-.369-8.357c3.829-4.994.504-9.607.128-14.178-.293-3.562-.773-7.11-1.181-10.765 1.755 0 2.288-.125 2.374.018 5.486 9.118 12.569 17.689 9.822 29.587-.439 1.901-.592 4.1-.086 5.944 1.849 6.739-.651 12.49-2.737 18.731-1.93 5.775-1.623 12.299-2.187 18.967-.007 1.13-.128 1.785-.304 2.769-9.174 4.31-12.729 2.038-12.343-7.687.184-4.617.679-9.222 1.151-14.284z"/><path d="M339.912 208.223c-1.709.289-3.418.578-5.518.38-.48-1.371-.568-2.254-.6-3.471l3.271-8.527c.771-6.708 1.946-13.114 1.754-19.479-.366-12.104-1.447-24.298-6.805-35.367-1.795-3.707-5.422-8.138-8.977-8.97-4.346-1.017-9.497 1.402-14.766 2.303-2.637.852-4.806 1.736-7.139 2.848-1.088.865-2.012 1.502-3.305 2.172-.775.572-1.181 1.112-1.572 1.909-.539.883-1.093 1.509-2.035 2.186-1.391.282-2.395.513-3.288.476l.806-1.834c6.552-8.252 14.757-12.724 25.636-12.194 3.474.169 6.999-1.555 10.552-1.967 6.676-.774 13.259-.44 19.565 3.322 11.974 12.435 17.82 27.091 17.381 43.956-.242 9.318-3.364 18.007-9.531 25.134-2.013 2.326-5.358 3.5-8.84 5.114-1.376.296-2.007.678-2.637 1.06-.731.299-1.462.598-2.601.707-.722-.046-1.035.098-1.349.242m-4.193-66.925c5.548 17.631 7.906 35.594 5.332 54.536l-4.212 9.796c9.274-.899 16.626-3.205 20.08-12.851 9.778-18.477 3.088-41.696-8.961-55.669-4.965-5.849-11.659-4.994-19.127-5.336 2.787 3.483 4.917 6.146 6.888 9.524z" class="F"/><path d="M223.7 133.211c12.942 7.751 20.775 19.008 23.327 33.35 1.031 5.796.767 12.47-1.096 18.009-4.787 14.233-14.679 25.124-28.82 29.743-13.11 4.283-27.182 4.578-40.512-.934-5.055-2.09-10.018-4.549-14.67-7.412-3.04-1.87-6.783-4.004-4.547-8.875 1.659 1.304 2.652 2.602 3.738 4.224 4.054 2.731 7.788 5.68 12.016 7.449 17.26 7.222 34.541 8.54 51.115-1.918 10.038-6.334 18.473-14.941 19.66-26.96 2.55-25.808-12.131-47.46-43.48-46.281l-22.436 4.168-.009-1.94c9.7-5.613 20.237-6.407 31.826-5.115 4.593.86 8.448 1.44 12.303 2.021l1.585.47z" class="G"/><path d="M208.615 261.162c2.254 4.477.624 9.581-3.951 13.117-12.103 9.354-33.24 9.338-45.433-.021l-6.163-4.693c.179-.8.558-1.341.979-2.22 7.116 1.369 14.109 3.885 21.282 4.602 12.31 1.231 24.645 1.07 33.287-10.785z" class="H"/><path d="M280.086 200.289l4.071-10.984c4.185-10.764-.152-20.455-3.757-30.236-1.736-4.712-5.043-7.834-9.456-10.279-3.198-1.771-5.324-4.702-1.565-8.277 5.39 4.163 10.328 8.14 15.357 12.443l5.395 16.348c.046.802.143 1.256.175 2.116l.646 9.888c-.125.733-.133 1.162-.343 1.865-.565 1.56-.928 2.848-1.508 4.415-1.501 3.01-2.785 5.742-4.368 8.634-1.748 1.463-3.198 2.766-4.648 4.068zm-71.337 94.521c.262 1.097.247 1.986.236 3.322-6.773.878-10.358-3.824-13.77-8.456-2.073-2.815-1.895-5.491 1.987-7.111 2.585-1.079 5.011-2.583 7.409-4.058 6.553-4.031 9.617-9.86 8.767-18.015 5.284 1.125 4.999 5.938 3.933 9.207-1.746 5.354-4.417 10.753-7.99 15.061-3.038 3.662-3.724 6.267-.571 10.05z" fill="#acbfb8"/><path fill="#57737d" d="M311.976 209.357c-.22.502-.44 1.004-.9 1.667-3.116 3.204-5.215-.223-7.649-.755-4.895-1.07-9.727-2.711-14.672-3.158-2.685-.243-5.549 1.484-8.381 1.787 1.835-3.348 3.718-6.161 5.966-8.954 8.113 4.249 15.868 8.459 25.211 8.663l.425.75z"/><path d="M157.425 196.595l-4.811-4.334c-.907-9.302-1.524-18.358-1.689-28.024.577-1.695.702-2.781.827-3.866 1.191-3.326 2.382-6.652 4.309-10.163 1.356-.092 1.976.001 2.471.428-1.576 4.159-3.525 7.875-4.386 11.829-2.539 11.663-.1 22.97 3.28 34.13z" class="G"/><path d="M291.381 142.88c.124.491-.107 1.013-.668 1.987-.549.974-.769 1.495-1.078 2.157-.09.14-.172.463-.476.623-1.266.815-2.227 1.47-3.422 1.838-3.23-6.434-9.236-8.701-14.776-11.568 1.63-.474 3.534-1.737 4.841-1.282 5.176 1.8 10.165 4.138 15.579 6.246z" class="H"/><path d="M351.568 107.164c-.363-.085-.725-.17-1.423-.74-1.802-1.056-3.269-1.626-4.735-2.195l-6.206-2.844c-2.374-1.529-4.418-2.431-6.304-3.591-2.405-1.48-4.682-3.168-6.677-4.719l35.132 15.979-9.787-1.889zM298.363 87.27l-.427.179s-.46-.052-.79-.395c-.913-.317-1.497-.291-2.08-.266a3.23 3.23 0 0 1-1.716-.615c-.339-1.286-.35-2.098.025-2.924 10.17 2.841 19.954 5.697 29.505 8.841-2.635.23-5.038.17-7.441.111-.934-.194-1.868-.387-3.266-1.044-4.913-1.605-9.361-2.747-13.81-3.888z" class="N"/><path d="M158.656 150.302l-2.329-.321c3.849-6.574 10.633-9.566 18.189-12.137 1.008.658 1.27.933 1.322 1.476l-17.182 10.983z" class="Q"/><path d="M270.663 138.094c5.839 2.69 11.844 4.957 14.991 11.682-.236 1.337-.622 2.096-1.008 2.855l-14.988-12.257c.12-.918.414-1.511 1.005-2.28z" class="G"/><path d="M203.25 88.624l7.41.971c-8.482 3.772-17.231 7.341-26.327 10.912 4.246-2.43 8.873-4.804 13.408-7.342 1.034-.579 1.749-1.725 2.555-2.969.947-.763 1.951-1.168 2.954-1.573z" class="B"/><path d="M374.755 121.113c-3.743-2.582-7.486-5.164-11.498-8.419-.315-1.557-.361-2.44-.018-3.224 5.011 3.405 9.633 6.71 14.254 10.015 0 0-.312.344-.735.613-.949.517-1.476.766-2.003 1.015z" class="N"/><path d="M315.688 92.471l7.459-.358c1.245.127 1.992.521 2.738.914l7.014 4.766 6.02 3.373c-7.583-2.612-15.282-5.519-23.231-8.695z" class="B"/><path fill="#2b3538" d="M285.976 199.924l-5.811 8.727c-.55-.965-1.272-2.227-1.241-3.469.036-1.388.755-2.759 1.169-4.515 1.442-1.68 2.892-2.982 4.65-4.106.616 1.24.924 2.302 1.232 3.364z"/><path fill="#5b7b87" d="M222.033 132.382c-3.773-.221-7.628-.801-11.759-1.589 4.032-2.417 7.959-1.461 11.759 1.589z"/><path d="M362.849 109.37l.152 3.092c-3.654-1.291-7.321-3.023-11.211-5.027 2.889.358 6 .988 9.677 1.669.845.1 1.117.172 1.382.266zm-64.237-21.82c4.199.862 8.647 2.003 13.254 3.418-4.229-.864-8.617-2.001-13.254-3.418zm-5.624-4.286l.057 2.735c-2.372-.2-4.766-.7-7.421-1.464 1.464-.528 3.189-.792 5.521-1.364 1.019-.174 1.431-.04 1.842.094z" class="B"/><path d="M381.813 127.436c1.682.864 3.512 2.026 5.744 3.804.44.913.478 1.21.517 1.508l-6.26-5.312z" class="G"/><path d="M345.619 104.494c1.257.304 2.723.874 4.3 1.761-1.29-.287-2.69-.891-4.3-1.761z" class="B"/><path d="M388.157 132.927l-.338-1.499c.771-.435 1.679-.442 3.047-.434.412.788.365 1.561.286 2.728l-.054.567-1.683-.314c-.62-.294-.897-.582-1.259-1.049z"/><path d="M151.493 160.595c.132.862.007 1.948-.389 3.214-.137-.876-.003-1.933.389-3.214z" class="Q"/><path d="M374.881 121.395c.401-.531.928-.78 1.724-1.123.313.606.358 1.307.405 2.362-.665-.083-1.334-.52-2.129-1.239z" class="G"/><path d="M177.317 103.859c.331-.54.988-1.096 2.013-1.586-.317.568-1.002 1.068-2.013 1.586z" class="B"/><path d="M177.666 135.877c.323.476.326.993.135 2.094-.713.75-1.233.916-1.752 1.082l-1.162-1.261c.57-.914 1.514-1.394 2.78-1.915z" class="Q"/><path d="M173.298 105.626c.338-.507.991-.989 1.989-1.424.155.331-.034.616-.317 1.139-.514.263-.935.287-1.672.286zm121.916-18.67c.435-.193 1.018-.219 1.728-.012-.442.215-1.011.197-1.728.012z" class="B"/><path d="M358.977 363.371l-40.983-2.25c-5.382-.19-10.946.695-16.208 1.985-11.161 2.736-17.859 10.136-20.835 21.346-1.617-4.988-1.118-9.427 2.999-13.087 1.104-.981 1.393-2.879 2.054-4.36-.003-.005.008 0 .325-.035.787-.663 1.257-1.29 1.945-2.186 4.647-2.187 9.074-4.106 13.502-6.025 18.294-4.109 36.232-.288 54.204 2.514 1.03.161 1.929 1.153 2.998 2.097z" class="R"/><path d="M301.889 358.403c-4.541 2.275-8.968 4.194-13.939 6.409a13.25 13.25 0 0 0-1.939 2.193s-.01-.005-.343.044c-2.762 2.526-5.374 4.85-7.583 7.51-4.632 5.575-3.816 12.974 1.516 15.591-1.423 3.791-4.001 2.783-6.342 1.29-4.324-2.758-5.817-7.891-3.112-12.707 7.257-12.92 17.643-22.287 32.445-26.697.057 2.007-.267 4.009-.703 6.367z" class="S"/><path fill="#efc675" d="M371.856 407.204c1.573-1.536 3.176-2.709 4.834-3.797 6.83-4.485 7.072-11.067 5.823-18.57.396-1.351.63-2.393 1.225-3.153.76-.972 2.066-2.564 2.682-2.379 1.181.355 2.506 1.597 2.961 2.783 3.977 10.372-.967 23.392-10.624 28.401-4.505 2.337-5.841 1.774-6.9-3.284z"/><path d="M338.909 418.474c-.232.526-.431.628-.897.936-3.062-4.787-6.76-9.51-8.362-14.86-1.253-4.186 3.101-2.639 5.862-2.409 1.412 5.411 2.421 10.66 3.397 16.334z" class="S"/><path d="M375.991 370.641c-1.385-.66-2.755-1.712-4.278-3.049 2.414-.942 4.054-.2 4.278 3.049zm-5.989-4.206c-1.464-.092-3.01-.494-4.785-1.149 1.415.111 3.059.475 4.785 1.149zm-6.963-2.082c-.508.229-1.088.199-1.862-.059.467-.219 1.129-.209 1.862.059z" class="R"/><path d="M279.84 389.837c-5.571-2.304-6.387-9.702-1.755-15.278 2.209-2.659 4.821-4.984 7.585-7.504-.328 1.433-.617 3.33-1.721 4.311-4.117 3.66-4.616 8.099-3.261 13.347-.018 1.795-.313 3.303-.848 5.124z" class="L"/><path fill="#f5f6f5" d="M111.068 114.155c.42-1.615.847-3.501 2.007-4.637 6.339-6.203 14.093-9.065 23.406-8.624 5.74 5.274 5.661 11.966 6.651 18.29l-19.775 28.213c-1.799 2.679-2.563 6.053-4.376 9.365l-16.472 12.764-4.376-10.23c-.062-1.286.112-2.291.807-3.498l2.054-.813c12.285-2.249 20.762-12.118 20.734-24.361-.017-7.543-3.687-12.935-10.661-16.468z"/><path fill="#b3c4bc" d="M111.009 128.363l-1.268 5.953-2.076-.324v-9.422l1.622-.295 1.722 4.087z"/><path d="M100.872 154.765c-.388.423-.899.627-1.682.732.338-.383.949-.667 1.682-.732z" class="B"/><path fill="#d29644" d="M265.071 76.213c8.418-3.415 16.836-6.83 25.685-9.819 1.752 5.413 5.668 3.769 8.604 3.19 7.294-1.44 14.414-3.847 21.739-5.025 11.577-1.863 23.31-4.165 35.002-1.467 8.041 1.856 15.846 4.754 23.719 7.304 3.019.978 5.96 2.601 8.538-.755 4.709 4.208 9.418 8.416 13.779 12.981-3.984.097-6.066 1.726-6.321 5.41l-.784 13.36c-.313 7.728-6.524 12.185-13.447 9.249-3.612-1.532-6.93-3.777-10.332-5.781-6.674-3.931-12.917-8.976-20.054-11.654-13.453-5.047-27.288-9.227-41.209-12.816-8.096-2.087-16.643-2.677-25.035-3.265-5.232-.366-10.55.66-15.835.764-1.337.026-2.697-1.086-4.046-1.675z"/><path fill="#b66a36" d="M264.713 76.243c1.707.559 3.067 1.671 4.404 1.645 5.285-.104 10.603-1.13 15.835-.764 8.392.588 16.939 1.178 25.035 3.265 13.921 3.589 27.756 7.769 41.209 12.816 7.137 2.678 13.38 7.723 20.054 11.654 3.403 2.004 6.72 4.249 10.332 5.781 6.923 2.936 13.134-1.52 13.447-9.249.18-4.457.475-8.91.784-13.36.256-3.684 2.337-5.312 6.427-5.051 1.281 4.951 2.392 9.874 2.869 14.857.76 7.949-1.027 15.071-7.229 20.822-3.221 2.987-5.771 6.698-8.641 10.103l-11.445-9.135-14.557-10.157a32.09 32.09 0 0 0-1.318-.367l-35.699-16.029c-1.083-.441-1.83-.834-2.843-1.25l-30.004-8.575c-.799-.119-1.21-.253-1.947-.397l-24.369-1.979c-3.203-.223-6.434-.037-9.652-.037l-.282-1.221c2.41-1.114 4.821-2.228 7.589-3.373z"/><path fill="#e8c478" d="M388.17 69.356c-2.391 3.641-5.332 2.018-8.351 1.04-7.873-2.55-15.678-5.449-23.719-7.304-11.692-2.698-23.425-.396-35.002 1.467-7.325 1.178-14.445 3.585-21.739 5.025-2.936.58-6.852 2.223-8.222-3.14 28.018-10.545 56.426-14.009 85.305-4.073 4.127 1.42 7.707 4.428 11.728 6.985z"/><path d="M252.834 82.654c-1.614.316-3.368.316-5.121.316l-.334-.892 4.31-2.921c.542.956.773 2.068 1.144 3.497z" class="O"/><path fill="#b16937" d="M306.993 285.966c-5.242-.233-10.672 1.216-15.694-1.814 20.554-6.949 40.934-14.786 63.039-6.379-.861 2.09-1.827 4.436-3.084 6.657-1.15-.886-1.972-2.256-2.876-2.312-8.062-.501-16.193-1.479-24.193-.872-5.817.441-11.467 3.068-17.192 4.72z"/><path d="M307.374 286.1c5.345-1.786 10.996-4.413 16.812-4.854 8.001-.607 16.131.371 24.193.872.904.056 1.726 1.426 2.672 2.603.014 3.125-.059 5.834-.334 8.957-3.575-.731-6.887-2.154-10.345-2.919-2.045-.453-4.32.133-6.822.589-8.819-1.479-17.309-3.297-26.178-5.248z" class="L"/><path d="M340.099 271.809c1.353-.26 2.839-.234 4.601.037-1.305.247-2.887.247-4.601-.037zm-45.902 7.426c1.252-.783 2.714-1.338 4.516-1.836-1.209.727-2.757 1.394-4.516 1.836zm33.06-7.888c.937-.372 2.094-.514 3.478-.439-.935.368-2.096.518-3.478.439zm20.798 1.365c.752-.222 1.6-.174 2.703.082-.699.201-1.653.194-2.703-.082zm-39.895 2.519c.333-.459.825-.716 1.602-.913-.291.411-.867.764-1.602.913zm6.996-2.003c.347-.438.846-.678 1.619-.817-.306.406-.886.711-1.619.817zm4.041-.918c.372-.406.923-.608 1.679-.677-.364.382-.932.632-1.679.677z" class="D"/><path fill="#b56a38" d="M415.952 159.06l3.447 2.278 1.497.943 8.597 4.951c.411.277.48.689.225.903.925 2.093 2.105 3.971 3.314 6.209 3.525 5.473 6.84 10.729 10.667 15.581.79 1.002 3.862 1.233 5.225.535 2.623-1.342 4.777-3.601 7.126-5.48 2.444 4.674.371 8.822-1.966 12.596-2.868 4.632-6.33 8.896-9.976 13.929-3.075-5.606-5.742-10.897-8.798-15.954L414.139 161.1c-.283-.464.15-1.364.792-2.07.542-.009 1.021.03 1.021.03z"/><path fill="#cf9444" d="M456.025 184.625c-2.324 2.234-4.478 4.493-7.101 5.835-1.364.697-4.435.467-5.225-.535-3.827-4.852-7.142-10.108-10.299-15.58 2.598.896 4.978 1.976 7.089 3.443 3.469 2.411 6.567 2.557 9.473-.781 2.013 2.421 4.026 4.842 6.063 7.618z"/><path d="M449.774 176.725c-2.719 3.619-5.817 3.473-9.286 1.062-2.111-1.467-4.49-2.547-7.117-3.803-1.548-1.879-2.728-3.758-3.272-5.762 1.405-.027 2.173.071 2.942.169.215.249.486.354 1.201.459l1.646.451 13.886 7.423z" class="S"/><path d="M432.849 168.058c-.576.236-1.344.138-2.494-.049-.382-.089-.45-.5-.536-.691.889.008 1.863.206 3.03.74zm2.865.948c-.246.194-.665.092-1.281-.275.238-.183.673-.103 1.281.275zm-14.946-7.017c-.215.09-.558-.112-1.083-.558.197-.074.576.096 1.083.558zm-4.874-3.096c.058.167-.421.128-.648.05.046-.124.318-.171.648-.05z" class="F"/><path fill="#c49155" d="M208.36 86.916c-2.382-2.324-4.371-4.641-6.456-7.069 7.367-3.996 12.857-2.932 19.806 3.779l-13.35 3.289z"/><path fill="#d4d8d8" d="M203.196 88.328c-.95.701-1.954 1.106-3.211 1.723-4.261.862-4.261.862-10.558-5.625 5.75-6.423 9.355-5.475 13.769 3.901z"/><path fill="#ddbb76" d="M182.213 97.228l-7.83 4.383c-.645-8.208 5.363-14.807 12.468-13.652-1.413 3.498-3.025 6.384-4.638 9.269z"/><path d="M182.587 97.224c1.238-2.881 2.85-5.766 4.545-9.014 1.854.932 3.626 2.225 6.696 4.466l-11.241 4.547z" class="R"/><path d="M143.474 119.137c-1.33-6.277-1.252-12.97-6.606-18.122 9.217-.967 17.982 1.052 26.412 5.328-6.448 4.451-12.956 8.599-19.806 12.794zm-40.938 50.728c5.272-4.51 10.572-8.679 16.225-12.822-1.965 6.954-4.284 13.881-7.091 22.269-3.35-3.35-6.229-6.228-9.134-9.447z" fill="#aebdb6"/><path fill="#b2c5be" d="M84.885 291.549l-3.564-.178c-.646-.3-.849-.387-1.082-.401-7.135-3.024-10.353-8.603-10.112-16.568 1.234-.719 2.042-1.028 3.236-1.356 1.881-.82 3.43-1.536 4.856-2.446 1.745-1.113 3.268-3.145 5.098-3.431 3.438-.537 3.966-2.444 4.166-5.248 1.424-.746 2.513-1.455 3.602-2.165 1.771.645 3.543 1.289 5.405 2.537.04 1.568-.06 2.534-.055 3.5.042 8.06 1.492 16.549-7.785 21.329-1.593.821-2.527 2.92-3.765 4.428z"/><path fill="#809ba4" d="M85.303 291.752c.821-1.711 1.755-3.81 3.347-4.631 9.276-4.78 7.827-13.269 7.785-21.329-.005-.965.094-1.931.275-3.229 1.647 3.303 4.082 6.854 4.424 10.596.341 3.735-.956 7.838-2.347 11.468-2.698 7.045-5.208 8.214-13.484 7.125z"/><path fill="#aebdb6" d="M72.977 273.063l-2.767.929c-1.363-8.768 6.124-18.003 20.521-14.461-.736.933-1.825 1.643-3.648 2.32-9.144-2.323-14.382 2.081-14.106 11.212z"/><path fill="#809ba4" d="M80.223 291.207c.249-.223.452-.136.709.168.085.145-.343.352-.343.352s-.382-.283-.366-.52z"/><path fill="#95a8a9" d="M129.88 304.935c1.543 3.631 1.147 6.316-3.301 7.322-5.6 1.266-8.191.096-8.618-4.76 4.417-1.091 8.168-1.826 11.919-2.562z"/><path fill="#e3e8e4" d="M129.835 304.572c-3.706 1.099-7.457 1.834-11.652 2.697-.297-3.336.123-6.651 4.442-7.354 3.559-.579 6.275.365 7.211 4.657z"/><path d="M243.01 299.938c-.165-.278.078-.379.205-.375l1.854.645-.161.555c-.578-.182-1.156-.364-1.898-.824z" class="I"/><path d="M391.207 134.107c.087-.009.352.305.352.305s-.346.052-.403-.036-.036-.26.051-.269z" class="O"/><path d="M237.162 301.224c.328-.441.811-.679 1.567-.858-.288.393-.851.727-1.567.858z" class="D"/><path fill="#f6f7f7" d="M175.838 139.32c.73-.433 1.249-.599 1.963-.961 7.543-1.746 14.891-3.296 22.742-4.459 9.619 5.662 17.585 12.012 23.826 20.817 4.457 6.289 6.53 12.175 4.772 19.844-1.24 5.411-4.732 8.816-7.828 12.911-10.219 13.516-35.89 22.955-53.505 14.668-1.999-.94-4.509-.792-6.782-1.149-.992-1.298-1.985-2.596-3.258-4.119-.281-.225-.439-.262-.391-.27-3.332-11.169-5.771-22.476-3.232-34.139.861-3.954 2.809-7.67 4.386-11.829 5.782-3.906 11.44-7.478 17.307-11.316m-8.588 53.112c.569.219 1.138.438 2.236 1.17 10.007 5.366 30.985-.39 33.885-13.034.603-1.555 1.206-3.109 2.225-5.407l.957-11.662c-.362-.727-.724-1.454-1.097-2.807-.439-.67-.879-1.34-1.456-2.656l-11.797-9.092c-.778-.084-1.555-.168-3.1-.61-1.667.048-3.335.096-5.683-.012-1.469.575-2.939 1.151-5.13 1.789-9.225 3.256-15.973 8.872-18.528 19.568l.503 10.941c.358 1.101.716 2.202.908 3.918a15.44 15.44 0 0 1 1.529 2.627c.501.589 1.001 1.178 1.605 2.364.909.769 1.818 1.538 2.943 2.904z"/><path d="M312.389 209.311c-.507-.121-.601-.287-.405-.814.87-.426 1.45-.492 2.46-.54l7.461-1.229 11.833-1.263.278 3.094c-7.064.531-14.139.619-21.627.752zm31.858-2.04c.245-.379.876-.761 1.894-1.144-.244.38-.876.76-1.894 1.144zm-4.044.974c.023-.166.337-.309.759-.261-.084.222-.276.253-.759.261z" fill="#1e2829"/><path d="M341.347 195.337c2.279-18.446-.079-36.409-5.392-54.752 1.602-.631 3.124-.91 4.305-.399 3.476 1.503 6.104.941 7.974-2.449 11.773 13.345 18.464 36.564 7.98 55.205l-14.868 2.395z" class="L"/><path fill="#f3f3f3" d="M308.737 135.125c4.803-.933 9.953-3.353 14.299-2.336 3.555.832 7.183 5.263 8.977 8.97 5.358 11.069 6.439 23.263 6.805 35.367.193 6.365-.983 12.771-2.198 19.454-3.912.331-7.166.367-10.418-.007.883-5.061 1.762-9.713 2.907-14.582.078-2.882-.11-5.545-.454-8.601-3.097-14.92-5.881-29.529-19.92-38.264z"/><path d="M308.271 135.092c14.505 8.769 17.29 23.377 20.263 38.753l.312 8.364-2.923 14.573-4.442 9.94c-2.202.418-4.405.836-7.042.999-.443-.574-.447-.892-.063-1.301 5.488-.593 5.416-5.355 7.518-8.842.938-3.555 1.653-6.773 2.388-9.986 3.349-14.631-.67-27.856-7.927-40.368-1.186-2.044-3.35-3.521-5.245-5.572-3.035-2.476-5.149-6.6-9.818-3.939 2.17-.884 4.34-1.769 6.976-2.62z" class="J"/><path fill="#b16937" d="M341.199 195.585c4.868-.992 9.589-1.736 14.755-2.399-2.489 9.237-9.841 11.544-19.115 12.443l4.359-10.044z"/><path fill="#e3b96c" d="M301.131 137.94c4.831-2.889 6.945 1.235 9.603 3.725-1.268 1.033-2.315 1.785-3.421 2.436-3.455 2.031-6.932 4.023-10.667 5.837-1.148-1.14-2.03-2.087-2.817-3.381l.777-2.4 1.964-2.249 1.624-1.827c.925-.637 1.849-1.274 2.937-2.139z"/><path d="M321.905 206.728c.963-3.115 2.349-6.222 4.015-9.538 3.535-.244 6.789-.28 10.488-.291-.556 2.649-1.557 5.273-2.614 8.231-3.86.758-7.663 1.181-11.89 1.597z" class="P"/><path fill="#e3b96c" d="M348.097 137.423c-1.732 3.704-4.36 4.266-7.836 2.763-1.181-.511-2.704-.231-4.226.041-2.286-2.308-4.416-4.971-7.203-8.454 7.468.342 14.162-.513 19.265 5.65z"/><path d="M294.219 144.207c.16.633-.067 1.318-.657 2.435-.971.86-1.579 1.286-2.407 1.411-.623-.591-1.027-.88-1.431-1.169.22-.521.439-1.043.877-1.748 1.222-.415 2.226-.647 3.617-.929zm3.607-4.095c-.072.453-.513.938-1.271 1.537.09-.425.496-.965 1.271-1.537z" class="J"/><path fill="#b3c4bc" d="M161.12 201.317c2.18.032 4.69-.116 6.689.824 17.615 8.287 43.286-1.152 53.505-14.668 3.096-4.095 6.587-7.501 7.828-12.911 1.758-7.669-.314-13.555-4.772-19.844-6.241-8.805-14.208-15.155-23.437-20.723 30.847-1.566 45.528 20.086 42.978 45.894-1.188 12.019-9.622 20.626-19.66 26.96-16.574 10.458-33.855 9.141-51.115 1.918-4.228-1.769-7.961-4.718-12.016-7.449z"/><path d="M313.993 206.509l.017 1.193c-.575.303-1.155.369-2.168.545-9.633.156-17.388-4.054-25.501-8.303-.673-1.082-.98-2.143-1.299-3.544 1.275-3.071 2.559-5.802 4.232-8.63.511.019.632.134.746.651-.006 1.476-.004 2.549-.094 3.972-.341 1.991-.59 3.634-.719 5.581.701.547 1.281.791 2.143 1.182 1.404.763 2.528 1.378 3.737 2.332.891.657 1.695.976 2.569 1.228.07-.066.247.014.443.321 2.437.847 4.677 1.387 7.258 1.931.775.125 1.21.244 1.717.648 1.018.338 1.963.391 3.314.427 1.472.143 2.538.304 3.604.466zm-29.257-53.552c.295-1.085.681-1.844 1.151-2.894a12.58 12.58 0 0 1 3.43-2.258c.462-.002.784.294.8.663.049.612.082.857.16 1.199.045.098-.099.258-.37.444-.443.582-.615.978-.801 1.66a5.11 5.11 0 0 1-.573 1.392c-.224.272-.214.471.075 1.017.22.838.309 1.327.169 2.006.459 1.398 1.146 2.605 1.97 4.128.195.769.253 1.222.147 1.779.006.346.177.587.534 1.093.294 1.113.4 1.962.281 3-.659 1.051-1.092 1.912-1.525 2.773l-5.447-16zm6.334 28.048l-.45-9.486c1.239 1.291 2.099 2.89 3.074 4.894.05 1.797-.015 3.188-.398 4.582l-2.226.01z" class="F"/><path d="M293.579 176.007l-2.893-4.895c-.411-.552-.508-1.006-.554-1.807.485-1.209.918-2.07 1.758-2.778.834 3.262 1.262 6.371 1.689 9.48z" class="J"/><path d="M289.491 187.491c.191-1.471.554-2.758 1.415-4.192 1.069.147 1.64.44 2.21 1.016-.224.792-.446 1.301-.977 1.889-.909.657-1.509 1.236-2.109 1.816l-.538-.528z" class="F"/><path d="M293.117 184.032l-2.009-1.005c-.288-.556-.28-.986-.154-1.718.753-.306 1.388-.308 2.437.001.184 1.115-.045 1.919-.273 2.723z" class="J"/><path d="M289.635 147.024c.493.149.897.437 1.471 1.021.17.295.087.243-.18.165a5.16 5.16 0 0 0-.824-.11l-.48-.454c-.157-.158-.075-.481.014-.621z" class="F"/><path d="M286.328 366.97c.147-.597.612-1.23 1.402-1.89-.145.6-.615 1.227-1.402 1.89z" class="L"/><path fill="#f3f3f3" d="M73.363 273.045c-.661-9.113 4.577-13.517 13.386-11.158.534 2.837.006 4.744-3.433 5.281-1.83.286-3.353 2.318-5.098 3.431-1.426.91-2.975 1.626-4.856 2.446z"/><path fill="#070707" d="M160.245 169.051c2.071-10.071 8.819-15.687 18.599-18.743 2.122-.478 3.689-1.155 5.256-1.833 1.667-.048 3.335-.096 5.548.328 1.365.501 2.184.529 3.003.558 3.783 2.891 7.566 5.781 11.354 9.344.003 1.145.001 1.618-.309 2.324-.796 1.594-1.37 2.931-1.758 4.319-1.497 5.362-1.928 10.923-6.705 15.133-8.257 7.277-17.761 9.291-28.617 8.493l-2.414-.045c-.501-.589-1.001-1.178-1.445-2.391-.436-1.288-.928-1.953-1.42-2.618-.358-1.101-.716-2.202-.806-3.958.083-4.074-.103-7.493-.288-10.913m35.592 3.082c-.026-2.572.128-5.167-.196-7.701-.09-.707-1.592-1.234-2.446-1.843-.478.905-1.251 1.773-1.371 2.723-.24 1.902-.168 3.851-.137 5.778.022 1.341.191 2.68.295 4.019 1.201-.761 2.402-1.522 3.855-2.977z"/><path fill="#171615" d="M204.005 160.798l.069-1.768c.503.321.942.991 1.247 2.285.25 1.339.634 2.054 1.019 2.769-.248 3.692-.496 7.384-1.23 11.602-.999 2.176-1.512 3.826-2.024 5.477-2.615 12.05-23.593 17.806-33.792 11.813.283-1.003.867-1.79 1.219-1.697 10.645 2.813 18.505-2.691 26.412-8.494 4.846-3.557 7.105-8.117 7.075-13.993l.007-7.993z"/><path d="M203.697 161.031c.305 2.431.288 5.095.302 7.76.03 5.876-2.229 10.436-7.075 13.993-7.906 5.803-15.767 11.307-26.412 8.494-.352-.093-.936.694-1.483 1.441-.641.152-1.21-.068-1.935-.94a20.31 20.31 0 0 1-.132-2.801c10.511.797 20.015-1.218 28.272-8.494 4.776-4.209 5.207-9.77 6.705-15.133.388-1.389.961-2.725 1.758-4.319zm-43.694 8.333c.427 3.106.612 6.526.551 10.252-.429-3.108-.611-6.524-.551-10.252zm23.757-20.966c-1.227.756-2.794 1.433-4.555 1.879 1.276-.807 2.745-1.382 4.555-1.879zm19.468 32.466c.37-1.353.883-3.004 1.674-4.808-.325 1.401-.928 2.956-1.674 4.808z" fill="#383734"/><path fill="#171615" d="M166.618 188.976c.336.717.328 1.433.368 2.504-.861-.414-1.77-1.183-2.731-2.251.638-.284 1.328-.269 2.363-.253z"/><path d="M206.446 163.79c-.491-.422-.875-1.137-1.119-2.163.502.416.864 1.143 1.119 2.163zm-45.19 20.439c.575.357 1.067 1.022 1.445 2.017-.586-.35-1.057-1.03-1.445-2.017zm31.171-35.077c-.595.181-1.414.153-2.395-.169.616-.209 1.393-.125 2.395.169z" fill="#383734"/><path d="M329.111 181.99c-.358-2.287-.452-4.792-.421-7.752.311 2.207.499 4.871.421 7.752z" class="P"/><path fill="#d09444" d="M296.913 150.131l10.401-6.03 3.604-2.123c2.089 1.725 4.253 3.201 5.439 5.245 7.257 12.512 11.276 25.737 7.927 40.368-.735 3.213-1.451 6.431-2.745 9.987-4.621.045-8.671-.281-12.726-.54-8.725-.558-8.712-.9-7.349-9.191 2.016-12.255 4.042-24.659-4.241-35.775-.347-.465-.218-1.285-.311-1.94z"/><path fill="#b86b37" d="M296.647 149.937c.359.849.23 1.669.576 2.134 8.283 11.116 6.257 23.52 4.241 35.775-1.364 8.291-1.376 8.633 7.349 9.191l12.513.88c-1.533 3.148-1.461 7.909-6.949 8.502-1.45-.071-2.516-.232-4.267-.524l-3.107-.563c-.435-.12-.87-.24-1.915-.602-2.801-.829-4.993-1.414-7.184-2 0 0-.176-.08-.415-.293-.988-.571-1.738-.929-2.487-1.288-1.123-.615-2.247-1.231-3.827-2.247a16.78 16.78 0 0 0-2.087-1.232c.249-1.643.497-3.286 1.08-5.533.982-2.407 1.631-4.209 2.279-6.012.223-.509.445-1.018.669-1.811.23-1.087.458-1.89.592-3.008-.03-1.706.035-3.097-.014-4.894l-1.577-10.076c-.288-1.191-.394-2.04-.705-3.392-.204-.503-.353-.958-.353-.958l-.269-1.992c-.658-1.756-1.221-2.878-1.784-4.001a32.96 32.96 0 0 1-.308-1.989l-.08-.914a34.92 34.92 0 0 1 .739-1.527l.821-1.64s.144-.16.338-.408a12.64 12.64 0 0 0 .677-1.229c0 0 .082.052.132.06.658-.419 1.266-.846 2.142-1.358 1.149.861 2.032 1.807 3.18 2.948z"/><path d="M298.1 203.037c1.995.279 4.186.865 6.647 1.688-1.97-.302-4.21-.842-6.647-1.688zm-5.962-16.834c-.34 1.725-.988 3.527-1.878 5.585-.244-.818-.246-1.892-.24-3.368.609-.981 1.209-1.56 2.118-2.217zm14.937 19.413c.735-.14 1.543.005 2.629.297-.666.094-1.612.041-2.629-.297zm-11.987-4.128c.663.019 1.412.378 2.33 1.015-.636-.039-1.44-.358-2.33-1.015zm-5.88-3.514c.424-.027.967.25 1.686.781-.405.01-.986-.234-1.686-.781zm-.431-41.789c.792.932 1.355 2.055 1.876 3.494-.73-.89-1.417-2.097-1.876-3.494zm2.118 5.907c.164-.104.313.351.33.59-.153-.003-.323-.244-.33-.59zm-.989-11.982c.087.197-.098.58-.535 1.169-.08-.191.092-.587.535-1.169zm1.02-1.9c.107.405-.054.732-.455 1.209-.272-.094-.305-.339-.354-.951.17-.358.355-.347.809-.258zm-2.393 4.953c.085-.071.124.32.034.494-.248-.023-.258-.221-.034-.494z" class="J"/><path fill="#d4d8d8" d="M195.711 172.48c-1.327 1.108-2.528 1.869-3.729 2.63l-.295-4.019c-.031-1.928-.103-3.876.137-5.778.12-.95.893-1.818 1.371-2.723.854.609 2.356 1.136 2.446 1.843.324 2.534.169 5.129.07 8.048z"/></svg>