<svg version="1.1" id="Layer_1" xmlns="http://www.w3.org/2000/svg" xmlns:xlink="http://www.w3.org/1999/xlink" x="0px" y="0px"
	 width="100%" viewBox="0 0 498 323" enable-background="new 0 0 498 323" xml:space="preserve">
<path fill="#1B6D73" opacity="1.000000" stroke="none" 
	d="
M453.653748,280.953125 
	C449.025635,296.369568 438.758240,304.004364 422.665985,303.985382 
	C405.399567,303.964996 388.133148,303.938049 370.357666,303.552795 
	C369.251801,302.466034 368.654968,301.740448 367.883789,300.728577 
	C355.774689,288.430481 343.868744,276.389832 331.889618,264.422485 
	C327.674500,260.211548 323.279968,256.180237 318.821747,251.764130 
	C310.390686,243.065353 302.153809,234.620575 293.796051,226.297180 
	C290.401184,222.916321 286.743317,219.799561 283.197632,216.410599 
	C283.190186,216.258560 283.043701,215.991669 282.991791,215.649994 
	C282.657593,214.207550 282.375275,213.106812 282.447327,211.996323 
	C291.389496,216.354446 299.792969,221.152847 308.630646,224.937164 
	C314.417328,227.415054 320.832672,228.424911 327.066711,230.462189 
	C328.028381,231.513321 328.914917,232.812805 329.747162,232.778915 
	C337.031738,232.482330 344.310333,231.992691 351.576721,231.390915 
	C352.110687,231.346695 352.535370,229.982925 353.426208,229.163605 
	C363.219574,226.761353 372.555054,224.231918 381.995117,222.184525 
	C386.198883,221.272781 390.097137,218.379974 395.074738,220.725693 
	C396.609772,221.449066 399.826324,218.812744 402.169495,217.526245 
	C403.372894,216.865555 404.222107,215.519943 405.447815,214.946365 
	C412.195312,211.788925 412.508636,210.897202 408.388977,204.828979 
	C407.484039,203.496048 406.421021,202.270493 406.114777,201.876190 
	C401.810272,202.306381 398.382965,202.648895 394.797882,203.086319 
	C394.433899,203.317032 394.248260,203.476730 393.735596,203.738556 
	C392.913574,203.836243 392.439117,203.855682 391.679016,203.673416 
	C390.921661,203.354645 390.276489,202.977005 390.003693,203.158630 
	C383.136383,207.730774 375.737823,206.065491 368.358185,205.227371 
	C367.324219,205.109955 366.149353,206.232925 364.687622,206.829681 
	C363.868469,206.814896 363.401428,206.752136 362.809753,206.555878 
	C362.505524,206.256836 362.311554,206.110306 361.715271,205.954453 
	C360.829376,205.886215 360.286560,205.962372 359.839905,205.789658 
	C343.655670,199.531250 331.450317,188.691711 323.202087,173.486008 
	C321.788605,170.880325 320.718567,170.568329 318.241760,172.029068 
	C314.248260,174.384308 310.042419,176.383560 305.900360,178.481995 
	C292.984894,185.025146 280.057251,191.544266 267.025940,197.748184 
	C264.593414,194.354202 262.269287,191.284729 260.249390,188.021271 
	C269.582001,183.126938 278.579742,178.366501 287.648010,173.744370 
	C295.603790,169.689285 303.601501,165.711670 311.656494,161.858231 
	C314.978699,160.268921 316.379272,158.367508 314.974335,154.541550 
	C313.165649,149.616028 311.860626,144.505569 310.067383,138.578140 
	C290.720215,147.306137 271.312469,156.061462 251.745911,164.576874 
	C248.761307,163.187881 245.935486,162.038773 243.091919,160.517395 
	C243.514847,159.172546 243.695526,157.701645 244.440765,157.312836 
	C247.841354,155.538666 251.395981,154.058289 254.903442,152.490677 
	C266.313843,147.390991 277.781311,142.413345 289.095398,137.108551 
	C291.362762,136.045471 293.051544,133.748489 295.212646,131.730469 
	C297.928314,130.352814 300.360229,128.994843 302.966858,128.240784 
	C306.882111,127.108177 308.667877,124.840401 308.045471,120.456589 
	C307.769257,119.117714 307.516479,118.100670 307.199921,116.744728 
	C307.123627,115.946381 307.111084,115.486931 307.452576,114.870743 
	C308.203888,113.195793 309.017578,111.651695 308.925110,110.163910 
	C308.558258,104.261200 307.711365,98.385216 307.437256,92.480995 
	C307.274353,88.971947 305.096344,85.017097 309.224548,82.173355 
	C311.673309,84.231415 313.825043,86.142166 316.093750,88.335968 
	C317.112000,89.421379 318.013245,90.223740 319.053528,91.332932 
	C323.438354,95.769119 327.684174,99.898476 332.071655,104.332504 
	C337.109406,109.438538 342.005493,114.239899 347.052307,119.340607 
	C349.707520,122.129143 352.212067,124.618340 354.910248,127.387192 
	C359.366577,131.788925 363.629272,135.910995 368.043701,140.333954 
	C373.708405,145.925949 379.221405,151.217056 384.826050,156.821793 
	C390.908752,163.107285 396.899811,169.079147 403.049988,175.346878 
	C410.437439,182.778671 417.665680,189.914612 425.055298,197.344879 
	C434.138733,206.771973 443.060760,215.904724 451.987488,225.404175 
	C451.999786,229.400024 452.014435,233.029190 452.013672,236.658340 
	C452.010803,249.823288 451.946136,262.988770 452.069855,276.152496 
	C452.084930,277.757538 453.101410,279.353149 453.653748,280.953125 
z"/>
<path fill="#3CA9BE" opacity="1.000000" stroke="none" 
	d="
M318.967346,252.066925 
	C323.279968,256.180237 327.674500,260.211548 331.889618,264.422485 
	C343.868744,276.389832 355.774689,288.430481 367.725586,301.091431 
	C365.720978,302.154327 363.701202,302.922791 361.679291,302.928406 
	C333.223511,303.007599 304.767426,302.966125 276.311523,303.017670 
	C274.200195,303.021484 272.089752,303.512299 269.978882,303.776672 
	C269.978882,303.776672 269.515472,303.909637 269.007568,303.948608 
	C268.318604,303.994476 268.137512,304.001373 267.956421,304.008301 
	C267.956421,304.008301 267.478699,303.909576 266.887939,303.633942 
	C264.819946,303.233368 263.342712,302.999573 261.865448,302.999634 
	C233.516647,303.000641 205.167847,303.029053 176.819046,303.051819 
	C166.564194,301.100769 160.227173,294.389465 156.156296,285.374390 
	C154.793823,282.357147 154.172058,278.762726 154.145157,275.424591 
	C153.977554,254.632217 154.074905,233.837692 154.363510,212.912781 
	C154.779831,215.189377 154.917084,217.597107 155.036377,220.472717 
	C155.012955,231.751602 154.947922,242.563171 155.054657,253.373032 
	C155.074875,255.419022 155.777130,257.458252 156.338943,260.418884 
	C157.670776,258.903473 158.130585,258.589294 158.295746,258.161407 
	C161.443756,250.005356 161.436569,250.000626 170.355118,250.000351 
	C201.124954,249.999435 231.894775,250.000000 262.664612,250.000000 
	C271.812408,250.000000 280.968872,249.751083 290.105499,250.070816 
	C299.032288,250.383224 308.181458,249.402206 316.671600,253.498993 
	C317.105499,253.708374 318.187225,252.575089 318.967346,252.066925 
z"/>
<path fill="#9CD7DC" opacity="1.000000" stroke="none" 
	d="
M154.169739,39.998116 
	C154.119629,37.954536 154.069519,35.910961 154.422455,33.308990 
	C156.094238,29.988894 158.228409,28.599880 161.282455,28.404518 
	C167.736023,27.991690 174.179810,27.115204 180.633133,27.058666 
	C230.565079,26.621206 280.498077,26.275465 330.431458,26.053602 
	C339.557526,26.013054 348.684387,26.830162 357.815033,26.959093 
	C369.637848,27.126038 381.465973,27.101397 393.289429,26.959820 
	C399.921387,26.880409 406.549805,26.131382 413.177551,26.162529 
	C422.423218,26.205980 431.695496,27.251415 440.899841,26.775383 
	C445.913940,26.516064 450.188660,26.804403 454.112518,29.927677 
	C454.068359,33.667736 454.024200,37.407791 453.552734,41.573170 
	C452.416962,41.999043 451.708466,41.999599 451.000000,42.000076 
	C451.000000,42.000000 451.000000,41.999695 450.999207,41.595081 
	C451.160675,38.358639 450.546295,36.545345 447.048096,37.702171 
	C445.828522,38.105469 444.414062,37.975254 443.087494,37.990959 
	C413.992493,38.335388 384.898163,38.794189 355.802094,38.973511 
	C288.591736,39.387741 221.380569,39.665188 154.169739,39.998116 
z"/>
<path fill="#A4DBDE" opacity="1.000000" stroke="none" 
	d="
M454.058716,29.531094 
	C450.188660,26.804403 445.913940,26.516064 440.899841,26.775383 
	C431.695496,27.251415 422.423218,26.205980 413.177551,26.162529 
	C406.549805,26.131382 399.921387,26.880409 393.289429,26.959820 
	C381.465973,27.101397 369.637848,27.126038 357.815033,26.959093 
	C348.684387,26.830162 339.557526,26.013054 330.431458,26.053602 
	C280.498077,26.275465 230.565079,26.621206 180.633133,27.058666 
	C174.179810,27.115204 167.736023,27.991690 161.282455,28.404518 
	C158.228409,28.599880 156.094238,29.988894 154.499924,32.877068 
	C154.533218,29.758202 154.892090,26.512865 155.658447,23.314182 
	C156.141281,23.505516 156.184540,23.690355 156.301071,23.783482 
	C156.415421,23.874853 156.709854,23.949652 156.745239,23.900951 
	C158.169586,21.940170 159.573471,19.964525 161.362015,17.989647 
	C167.145401,13.938264 172.823364,14.948365 178.624161,16.942249 
	C179.667847,17.301001 180.940460,17.034891 182.105179,16.994356 
	C201.033035,16.335573 219.956375,15.360904 238.889526,15.102029 
	C252.677872,14.913499 266.521301,16.480133 280.262451,15.766898 
	C293.511963,15.079183 306.690369,14.578764 319.966370,14.880222 
	C340.115051,15.337739 360.281769,15.000026 380.440826,14.999840 
	C398.100830,14.999678 415.760986,15.039561 433.420654,14.965356 
	C437.047058,14.950118 440.951843,15.006630 442.004944,10.179340 
	C448.511841,14.910684 452.445892,21.270815 454.058716,29.531094 
z"/>
<path fill="#4DB2C3" opacity="1.000000" stroke="none" 
	d="
M155.054321,220.004822 
	C154.917084,217.597107 154.779831,215.189377 154.444977,212.459259 
	C154.189667,194.413757 154.131973,176.690659 154.332703,158.486465 
	C154.591125,158.005356 154.941422,157.987961 154.958679,158.452362 
	C155.003830,162.944214 155.031738,166.971649 155.044159,171.467545 
	C155.025040,178.083618 154.944412,184.233017 155.088303,190.377182 
	C155.114426,191.492676 156.059296,192.586639 156.580032,193.690552 
	C157.379059,192.874405 158.773483,192.122528 158.869751,191.230515 
	C159.210831,188.070587 160.811829,187.941940 163.369736,188.537277 
	C165.279053,188.981689 167.318558,188.979630 169.300369,188.982422 
	C189.571167,189.011063 209.843689,188.857254 230.111832,189.091034 
	C235.846558,189.157166 241.568604,190.323380 247.462769,191.004288 
	C247.462769,190.808472 247.462769,189.275909 247.462769,186.734116 
	C249.920532,188.691422 251.755539,190.152786 254.479904,192.322403 
	C255.473114,189.900345 256.269775,187.957596 257.366516,186.163620 
	C258.426147,186.946686 259.185669,187.580978 259.945190,188.215271 
	C262.269287,191.284729 264.593414,194.354202 267.069550,198.078064 
	C270.811707,202.163925 274.401825,205.595413 277.766846,209.281891 
	C277.098419,213.629608 278.331543,216.293381 283.043701,215.991669 
	C283.043701,215.991669 283.190186,216.258560 283.083557,216.788452 
	C281.121735,218.674332 279.266510,220.030289 276.388000,222.134171 
	C276.388000,218.646286 276.388000,217.098267 276.388000,215.119293 
	C273.117920,215.786758 270.247864,216.766571 267.338562,216.901688 
	C249.949936,217.709076 232.555664,218.435486 215.156265,218.952896 
	C206.173599,219.220047 197.170227,219.208939 188.187622,218.940994 
	C179.281693,218.675323 170.391739,217.896683 161.489471,217.448242 
	C160.678131,217.407394 159.838287,218.158020 158.993790,218.496475 
	C157.688751,219.019485 156.368256,219.503998 155.054321,220.004822 
z"/>
<path fill="#AADDE0" opacity="1.000000" stroke="none" 
	d="
M441.679901,10.026161 
	C440.951843,15.006630 437.047058,14.950118 433.420654,14.965356 
	C415.760986,15.039561 398.100830,14.999678 380.440826,14.999840 
	C360.281769,15.000026 340.115051,15.337739 319.966370,14.880222 
	C306.690369,14.578764 293.511963,15.079183 280.262451,15.766898 
	C266.521301,16.480133 252.677872,14.913499 238.889526,15.102029 
	C219.956375,15.360904 201.033035,16.335573 182.105179,16.994356 
	C180.940460,17.034891 179.667847,17.301001 178.624161,16.942249 
	C172.823364,14.948365 167.145401,13.938264 161.529495,17.701626 
	C163.723618,14.961951 166.170929,12.545501 168.525070,10.041454 
	C169.752686,8.735662 170.816193,7.275575 171.953812,5.885179 
	C174.874512,5.260349 177.792404,4.108514 180.716339,4.093002 
	C207.155487,3.952739 233.595688,4.011345 260.970459,3.984355 
	C308.280396,3.950272 354.655396,3.943501 401.030426,3.936731 
	C408.168030,3.966959 415.324158,4.329745 422.438080,3.934338 
	C429.621704,3.535060 435.976715,4.929577 441.679901,10.026161 
z"/>
<path fill="#8BD0D7" opacity="1.000000" stroke="none" 
	d="
M454.809540,56.002159 
	C454.532623,59.381512 454.255676,62.760868 453.555603,66.492035 
	C450.736542,65.896568 448.336975,64.117386 445.945312,64.127983 
	C414.842651,64.265778 383.740570,64.617981 352.639374,64.998650 
	C330.593536,65.268471 308.548462,65.982643 286.504333,65.932877 
	C245.745331,65.840866 204.986786,65.379044 164.229782,64.916908 
	C160.869690,64.878807 157.522949,63.665813 154.169998,62.998718 
	C154.392273,61.561619 154.614548,60.124523 155.461334,58.343292 
	C176.501633,57.999538 196.917435,58.000118 217.333221,58.000263 
	C244.068802,58.000454 270.804993,58.109180 297.539703,57.955662 
	C311.491730,57.875549 325.440216,57.101139 339.391907,57.045883 
	C374.349365,56.907417 409.307770,56.998928 444.265778,57.004047 
	C445.929382,57.004292 447.608398,57.214764 449.252563,57.050400 
	C451.121155,56.863594 452.958557,56.365139 454.809540,56.002159 
z"/>
<path fill="#89CED6" opacity="1.000000" stroke="none" 
	d="
M154.095612,63.376198 
	C157.522949,63.665813 160.869690,64.878807 164.229782,64.916908 
	C204.986786,65.379044 245.745331,65.840866 286.504333,65.932877 
	C308.548462,65.982643 330.593536,65.268471 352.639374,64.998650 
	C383.740570,64.617981 414.842651,64.265778 445.945312,64.127983 
	C448.336975,64.117386 450.736542,65.896568 453.483093,66.920532 
	C453.882294,68.066612 453.930847,69.136024 453.496094,70.576164 
	C450.051758,70.631264 447.088348,70.021477 444.130035,70.045105 
	C411.365967,70.306770 378.602936,70.698570 345.839020,70.983246 
	C333.853546,71.087387 321.864563,70.891090 309.881409,71.088257 
	C307.341187,71.130051 304.800659,72.230942 302.314636,73.015953 
	C302.030853,73.105568 302.099609,74.311745 302.127747,75.270569 
	C302.501953,76.286415 302.753296,77.031883 302.658020,77.861488 
	C301.228760,78.315651 300.146118,78.685684 298.717102,79.039673 
	C297.907898,79.007263 297.445068,78.990898 296.985352,78.576843 
	C296.992676,77.118629 296.996826,76.058090 296.925720,74.638641 
	C296.025940,73.561256 295.261963,72.314987 294.366699,72.212158 
	C289.494293,71.652565 284.587494,71.026779 279.696136,71.054695 
	C238.138840,71.291916 196.582321,71.665756 155.017456,71.606308 
	C154.732239,69.491333 154.455124,67.768684 154.178009,66.046036 
	C154.125763,65.281914 154.073502,64.517799 154.095612,63.376198 
z"/>
<path fill="#79C6D1" opacity="1.000000" stroke="none" 
	d="
M331.929993,104.027832 
	C327.684174,99.898476 323.438354,95.769119 319.476379,91.327995 
	C328.132385,91.344101 336.506714,91.994179 344.876251,91.938103 
	C367.933350,91.783638 390.987823,91.272400 414.044617,91.027344 
	C424.775513,90.913300 435.509674,91.067680 446.242035,91.141479 
	C452.118347,91.181885 452.767517,90.534996 453.000305,83.562508 
	C452.996277,81.083412 452.991913,79.041801 453.116699,76.735741 
	C453.515045,75.948174 453.784271,75.425072 454.053528,74.901978 
	C454.351807,81.639664 454.650085,88.377357 454.595703,95.792236 
	C453.075195,103.850616 448.251495,104.219231 441.854431,104.162460 
	C405.215424,103.837280 368.571960,104.018509 331.929993,104.027832 
z"/>
<path fill="#65BCCA" opacity="1.000000" stroke="none" 
	d="
M154.941422,157.987961 
	C154.941422,157.987961 154.591125,158.005356 154.417114,158.027847 
	C154.187271,148.362625 154.131439,138.674896 154.350052,128.786987 
	C155.661453,130.243713 156.698395,131.900620 157.094818,132.534027 
	C162.749512,131.969421 167.604095,131.045517 172.451630,131.081100 
	C188.488464,131.198853 204.522064,131.722687 220.559021,131.902405 
	C222.186157,131.920670 226.010712,133.876678 224.888306,129.044403 
	C224.939606,129.005157 225.061905,128.963547 225.453918,129.011307 
	C227.445160,129.681046 230.078674,129.916016 230.479233,130.986511 
	C233.565048,139.233185 236.218002,147.641830 238.654083,155.936035 
	C237.241150,154.893265 236.297928,153.721664 235.090591,152.979935 
	C233.124084,151.771820 231.035065,150.112167 228.907303,149.966797 
	C225.538361,149.736633 222.096436,150.928833 218.682465,150.946198 
	C197.627869,151.053391 176.572449,151.000000 154.941422,151.000000 
	C154.941422,153.401871 154.941422,155.694916 154.941422,157.987961 
z"/>
<path fill="#97D5DB" opacity="1.000000" stroke="none" 
	d="
M154.094528,40.393929 
	C221.380569,39.665188 288.591736,39.387741 355.802094,38.973511 
	C384.898163,38.794189 413.992493,38.335388 443.087494,37.990959 
	C444.414062,37.975254 445.828522,38.105469 447.048096,37.702171 
	C450.546295,36.545345 451.160675,38.358639 450.616821,41.662376 
	C446.847137,42.756180 443.455170,43.934116 440.071442,43.910816 
	C415.953491,43.744713 391.833862,42.908573 367.721191,43.098404 
	C330.310272,43.392929 292.906372,44.696712 255.495926,44.892265 
	C221.723221,45.068813 187.945740,44.332684 154.170380,43.999039 
	C154.120026,42.929272 154.069672,41.859505 154.094528,40.393929 
z"/>
<path fill="#8FD1D9" opacity="1.000000" stroke="none" 
	d="
M454.883545,55.671101 
	C452.958557,56.365139 451.121155,56.863594 449.252563,57.050400 
	C447.608398,57.214764 445.929382,57.004292 444.265778,57.004047 
	C409.307770,56.998928 374.349365,56.907417 339.391907,57.045883 
	C325.440216,57.101139 311.491730,57.875549 297.539703,57.955662 
	C270.804993,58.109180 244.068802,58.000454 217.333221,58.000263 
	C196.917435,58.000118 176.501633,57.999538 155.628021,57.998764 
	C154.787079,56.583462 154.403976,55.168556 154.494537,53.459846 
	C157.265839,53.444023 159.562637,53.954605 161.861267,53.963108 
	C179.857895,54.029705 197.854858,54.005436 215.851730,53.996655 
	C221.183533,53.994053 226.525986,54.160484 231.845108,53.888496 
	C248.895142,53.016655 265.928467,51.755363 282.986115,51.132835 
	C288.182068,50.943203 293.447968,52.964409 298.660248,52.863018 
	C308.247650,52.676521 317.816040,51.146358 327.397583,51.091713 
	C366.023682,50.871407 404.652222,50.922165 443.278442,51.131203 
	C446.855713,51.150566 450.423126,52.996494 454.198975,53.996468 
	C454.402802,53.998642 454.810486,53.999477 454.810486,53.999477 
	C454.859497,54.446335 454.908508,54.893188 454.883545,55.671101 
z"/>
<path fill="#5CB8C8" opacity="1.000000" stroke="none" 
	d="
M402.890839,175.051010 
	C396.899811,169.079147 390.908752,163.107285 385.050842,156.504761 
	C387.654144,155.360947 390.101929,154.606628 392.598175,154.375107 
	C405.521729,153.176514 418.450592,152.018265 431.391937,151.034439 
	C439.355865,150.429031 447.222992,151.123199 454.784058,153.978790 
	C454.837952,158.015121 454.891876,162.051468 454.531250,166.697479 
	C453.513916,170.269714 452.911163,173.232254 452.434082,175.577164 
	C446.977753,175.041748 441.679626,174.312836 436.358765,174.056931 
	C430.734131,173.786377 425.083130,173.816650 419.452271,173.992050 
	C413.926147,174.164154 408.410889,174.683853 402.890839,175.051010 
z"/>
<path fill="#73C3CF" opacity="1.000000" stroke="none" 
	d="
M332.071655,104.332504 
	C368.571960,104.018509 405.215424,103.837280 441.854431,104.162460 
	C448.251495,104.219231 453.075195,103.850616 454.520447,96.258369 
	C454.532196,99.404625 454.266510,102.761948 453.808136,106.795303 
	C453.750000,109.309082 453.884552,111.146828 454.009491,112.992424 
	C453.999908,113.000267 453.980560,113.015732 453.588257,113.030548 
	C449.010681,113.696907 444.829407,114.881065 440.639587,114.912148 
	C416.392578,115.092033 392.143219,115.077522 367.895538,114.953026 
	C360.571106,114.915421 353.294342,114.550499 346.901611,119.041260 
	C342.005493,114.239899 337.109406,109.438538 332.071655,104.332504 
z"/>
<path fill="#93D3D9" opacity="1.000000" stroke="none" 
	d="
M453.995117,53.994297 
	C450.423126,52.996494 446.855713,51.150566 443.278442,51.131203 
	C404.652222,50.922165 366.023682,50.871407 327.397583,51.091713 
	C317.816040,51.146358 308.247650,52.676521 298.660248,52.863018 
	C293.447968,52.964409 288.182068,50.943203 282.986115,51.132835 
	C265.928467,51.755363 248.895142,53.016655 231.845108,53.888496 
	C226.525986,54.160484 221.183533,53.994053 215.851730,53.996655 
	C197.854858,54.005436 179.857895,54.029705 161.861267,53.963108 
	C159.562637,53.954605 157.265839,53.444023 154.569366,53.082970 
	C154.120285,50.954937 154.070053,48.909985 154.438599,46.498745 
	C157.127792,47.286762 159.411697,49.463993 161.666473,49.434223 
	C180.421143,49.186558 199.169373,48.122883 217.921585,48.073082 
	C287.150879,47.889233 356.381012,48.008926 425.610779,47.967640 
	C428.412201,47.965969 431.209625,47.433540 434.015411,47.246227 
	C440.676056,46.801571 447.340668,46.415718 454.008850,46.323463 
	C454.278534,47.417610 454.542969,48.194397 454.807434,48.971180 
	C454.856537,49.432701 454.905670,49.894218 454.693054,50.948517 
	C454.285919,52.358963 454.140533,53.176632 453.995117,53.994297 
z"/>
<path fill="#95D4DB" opacity="1.000000" stroke="none" 
	d="
M454.003662,46.006104 
	C447.340668,46.415718 440.676056,46.801571 434.015411,47.246227 
	C431.209625,47.433540 428.412201,47.965969 425.610779,47.967640 
	C356.381012,48.008926 287.150879,47.889233 217.921585,48.073082 
	C199.169373,48.122883 180.421143,49.186558 161.666473,49.434223 
	C159.411697,49.463993 157.127792,47.286762 154.513092,46.066032 
	C154.120193,45.553173 154.071594,45.106743 154.096680,44.329674 
	C187.945740,44.332684 221.723221,45.068813 255.495926,44.892265 
	C292.906372,44.696712 330.310272,43.392929 367.721191,43.098404 
	C391.833862,42.908573 415.953491,43.744713 440.071442,43.910816 
	C443.455170,43.934116 446.847137,42.756180 450.617645,42.066986 
	C451.000000,41.999695 451.000000,42.000000 451.056610,42.273724 
	C452.020111,42.702183 452.927032,42.856918 453.833923,43.011654 
	C454.162506,43.789616 454.491058,44.567581 454.616180,45.673977 
	C454.412720,46.002407 454.003662,46.006104 454.003662,46.006104 
z"/>
<path fill="#63BBC9" opacity="1.000000" stroke="none" 
	d="
M454.862061,153.516968 
	C447.222992,151.123199 439.355865,150.429031 431.391937,151.034439 
	C418.450592,152.018265 405.521729,153.176514 392.598175,154.375107 
	C390.101929,154.606628 387.654144,155.360947 384.959229,156.191132 
	C379.221405,151.217056 373.708405,145.925949 368.486328,140.322235 
	C376.227234,139.673096 383.675446,139.101440 391.127502,139.046173 
	C409.919037,138.906754 428.712341,139.001389 447.504913,138.996887 
	C448.834625,138.996567 450.289337,139.277069 451.455048,138.827881 
	C452.411072,138.459473 453.632507,137.234665 453.685852,136.327652 
	C453.966217,131.563461 453.912567,126.779640 453.982300,121.552643 
	C453.986603,118.407005 453.983582,115.711365 453.980530,113.015732 
	C453.980560,113.015732 453.999908,113.000267 454.206543,112.998871 
	C454.413147,112.997475 454.807678,113.007507 454.807678,113.007507 
	C454.851807,126.356728 454.895935,139.705948 454.862061,153.516968 
z"/>
<path fill="#54B4C5" opacity="1.000000" stroke="none" 
	d="
M403.049988,175.346878 
	C408.410889,174.683853 413.926147,174.164154 419.452271,173.992050 
	C425.083130,173.816650 430.734131,173.786377 436.358765,174.056931 
	C441.679626,174.312836 446.977753,175.041748 452.434082,175.577164 
	C452.911163,173.232254 453.513916,170.269714 454.459991,167.156601 
	C454.848114,177.381851 454.892944,187.757690 454.670288,198.909149 
	C454.096680,201.510315 453.790497,203.335831 453.476410,205.208633 
	C452.848755,205.022705 452.595093,205.009720 452.572998,204.931412 
	C452.354828,204.157806 452.130676,203.381210 451.991394,202.590805 
	C450.940399,196.626053 448.989899,195.558258 443.228058,197.247040 
	C441.457489,197.766006 439.402100,197.335663 437.477753,197.302887 
	C433.282959,197.231415 429.088531,197.136093 424.893951,197.050537 
	C417.665680,189.914612 410.437439,182.778671 403.049988,175.346878 
z"/>
<path fill="#6DC1CD" opacity="1.000000" stroke="none" 
	d="
M224.836990,129.083649 
	C226.010712,133.876678 222.186157,131.920670 220.559021,131.902405 
	C204.522064,131.722687 188.488464,131.198853 172.451630,131.081100 
	C167.604095,131.045517 162.749512,131.969421 157.094818,132.534027 
	C156.698395,131.900620 155.661453,130.243713 154.431213,128.329224 
	C154.185883,126.313766 154.133835,124.555916 154.329620,122.163063 
	C154.730911,121.021095 154.884369,120.514122 155.434113,119.986084 
	C159.225784,119.310211 162.612869,118.145874 166.018005,118.090408 
	C179.456924,117.871552 192.901749,118.041901 206.343872,117.972221 
	C209.767578,117.954475 213.189453,117.584686 217.226257,117.339317 
	C217.300003,117.553848 217.454803,118.730957 218.050873,119.608284 
	C220.233444,122.820732 222.562866,125.933403 224.836990,129.083649 
z"/>
<path fill="#74C2CE" opacity="1.000000" stroke="none" 
	d="
M224.888306,129.044403 
	C222.562866,125.933403 220.233444,122.820732 218.050873,119.608284 
	C217.454803,118.730957 217.300003,117.553848 217.226257,117.339317 
	C213.189453,117.584686 209.767578,117.954475 206.343872,117.972221 
	C192.901749,118.041901 179.456924,117.871552 166.018005,118.090408 
	C162.612869,118.145874 159.225784,119.310211 155.421478,119.536118 
	C154.748123,115.761902 154.483704,112.416580 154.219284,109.071259 
	C154.157837,95.035271 154.096390,80.999275 154.106476,66.504662 
	C154.455124,67.768684 154.732239,69.491333 155.008026,72.034744 
	C155.016525,74.569565 155.026337,76.283607 155.027145,78.458252 
	C155.025696,82.610130 155.033264,86.301414 155.028687,90.459991 
	C155.012390,93.587349 155.317352,96.292305 154.938858,98.897980 
	C154.184341,104.092506 156.962494,105.708023 161.391693,105.937271 
	C163.050323,106.023125 164.715500,105.997070 166.377686,105.997459 
	C182.938446,106.001343 199.499237,106.019646 216.059921,105.985519 
	C219.856552,105.977692 222.865768,107.031952 223.916290,111.357376 
	C222.529266,112.136925 221.286819,112.606697 220.033478,112.731628 
	C220.017288,111.926674 220.011993,111.466545 220.195984,110.985695 
	C220.574097,110.828453 220.762924,110.691948 220.951752,110.555435 
	C220.841537,110.515915 220.685165,110.409767 220.629150,110.448555 
	C220.401459,110.606224 220.204529,110.808350 219.694458,111.071770 
	C219.286789,112.112381 219.180878,113.075317 219.035736,114.419853 
	C221.018295,119.522156 223.040100,124.242851 225.061905,128.963547 
	C225.061905,128.963547 224.939606,129.005157 224.888306,129.044403 
z"/>
<path fill="#86CCD5" opacity="1.000000" stroke="none" 
	d="
M454.029419,74.510559 
	C453.784271,75.425072 453.515045,75.948174 452.697174,76.712639 
	C449.357330,76.636093 446.566498,76.044983 443.774872,76.041199 
	C400.550964,75.982582 357.326874,76.026581 314.102966,75.956543 
	C310.069763,75.950005 306.037567,75.333496 302.004883,75.000198 
	C302.099609,74.311745 302.030853,73.105568 302.314636,73.015953 
	C304.800659,72.230942 307.341187,71.130051 309.881409,71.088257 
	C321.864563,70.891090 333.853546,71.087387 345.839020,70.983246 
	C378.602936,70.698570 411.365967,70.306770 444.130035,70.045105 
	C447.088348,70.021477 450.051758,70.631264 453.422974,70.972260 
	C453.890594,72.038139 453.947998,73.078644 454.029419,74.510559 
z"/>
<path fill="#4CAFC1" opacity="1.000000" stroke="none" 
	d="
M425.055298,197.344879 
	C429.088531,197.136093 433.282959,197.231415 437.477753,197.302887 
	C439.402100,197.335663 441.457489,197.766006 443.228058,197.247040 
	C448.989899,195.558258 450.940399,196.626053 451.991394,202.590805 
	C452.130676,203.381210 452.354828,204.157806 452.572998,204.931412 
	C452.595093,205.009720 452.848755,205.022705 453.476410,205.208633 
	C453.790497,203.335831 454.096680,201.510315 454.599274,199.377441 
	C454.821991,207.385117 454.848236,215.700134 454.473511,224.482895 
	C453.375946,224.979584 452.679382,225.008530 451.982819,225.037476 
	C443.060760,215.904724 434.138733,206.771973 425.055298,197.344879 
z"/>
<path fill="#297A84" opacity="1.000000" stroke="none" 
	d="
M451.987488,225.404175 
	C452.679382,225.008530 453.375946,224.979584 454.420898,224.945084 
	C454.776642,242.008621 454.783997,259.077698 454.564087,276.805298 
	C454.210297,277.931580 454.083740,278.399384 453.957184,278.867157 
	C453.904877,279.333069 453.852570,279.798981 453.726990,280.609009 
	C453.101410,279.353149 452.084930,277.757538 452.069855,276.152496 
	C451.946136,262.988770 452.010803,249.823288 452.013672,236.658340 
	C452.014435,233.029190 451.999786,229.400024 451.987488,225.404175 
z"/>
<path fill="#FFFFFF" opacity="1.000000" stroke="none" 
	d="
M400.833649,3.546152 
	C354.655396,3.943501 308.280396,3.950272 261.435852,3.948938 
	C261.632721,3.628037 262.299164,3.041395 262.965515,3.041511 
	C308.855957,3.049508 354.746429,3.104529 400.833649,3.546152 
z"/>
<path fill="#48959F" opacity="1.000000" stroke="none" 
	d="
M270.442932,303.863098 
	C272.089752,303.512299 274.200195,303.021484 276.311523,303.017670 
	C304.767426,302.966125 333.223511,303.007599 361.679291,302.928406 
	C363.701202,302.922791 365.720978,302.154327 367.899963,301.377747 
	C368.654968,301.740448 369.251801,302.466034 369.889221,303.484802 
	C343.723450,303.849518 317.517059,303.927704 291.310638,303.988129 
	C284.509491,304.003784 277.708221,303.963898 270.442932,303.863098 
z"/>
<path fill="#48959F" opacity="1.000000" stroke="none" 
	d="
M177.083069,303.407928 
	C205.167847,303.029053 233.516647,303.000641 261.865448,302.999634 
	C263.342712,302.999573 264.819946,303.233368 266.653259,303.567474 
	C237.121918,303.772430 207.234512,303.768250 177.083069,303.407928 
z"/>
<path fill="#C3E4DC" opacity="1.000000" stroke="none" 
	d="
M171.564743,5.941528 
	C170.816193,7.275575 169.752686,8.735662 168.525070,10.041454 
	C166.170929,12.545501 163.723618,14.961951 161.147476,17.702766 
	C159.573471,19.964525 158.169586,21.940170 156.745239,23.900951 
	C156.709854,23.949652 156.415421,23.874853 156.301071,23.783482 
	C156.184540,23.690355 156.141281,23.505516 156.011475,23.123056 
	C157.097687,13.712487 161.839798,7.785276 171.564743,5.941528 
z"/>
<path fill="#65BCCA" opacity="1.000000" stroke="none" 
	d="
M154.138062,109.520950 
	C154.483704,112.416580 154.748123,115.761902 155.025192,119.557190 
	C154.884369,120.514122 154.730911,121.021095 154.403992,121.729889 
	C154.172638,117.944695 154.114746,113.957672 154.138062,109.520950 
z"/>
<path fill="#69BFCC" opacity="1.000000" stroke="none" 
	d="
M454.882080,112.606331 
	C454.807678,113.007507 454.413147,112.997475 454.216125,112.991028 
	C453.884552,111.146828 453.750000,109.309082 453.857208,107.215797 
	C454.384796,108.708557 454.670624,110.456856 454.882080,112.606331 
z"/>
<path fill="#97D5DB" opacity="1.000000" stroke="none" 
	d="
M453.900146,42.758007 
	C452.927032,42.856918 452.020111,42.702183 451.056610,42.273800 
	C451.708466,41.999599 452.416962,41.999043 453.479675,41.997780 
	C453.878082,42.166168 453.922241,42.335266 453.900146,42.758007 
z"/>
<path fill="#8BD0D7" opacity="1.000000" stroke="none" 
	d="
M454.198975,53.996468 
	C454.140533,53.176632 454.285919,52.358963 454.619934,51.290855 
	C454.860474,51.782707 454.912384,52.525002 454.887390,53.633389 
	C454.810486,53.999477 454.402802,53.998642 454.198975,53.996468 
z"/>
<path fill="#8BD0D7" opacity="1.000000" stroke="none" 
	d="
M454.008850,46.323463 
	C454.003662,46.006104 454.412720,46.002407 454.617249,46.002625 
	C454.868927,46.748005 454.916077,47.493164 454.885315,48.604752 
	C454.542969,48.194397 454.278534,47.417610 454.008850,46.323463 
z"/>
<path fill="#1B6D73" opacity="1.000000" stroke="none" 
	d="
M454.195068,278.736877 
	C454.083740,278.399384 454.210297,277.931580 454.491089,277.273895 
	C454.574554,277.591522 454.503754,278.099030 454.195068,278.736877 
z"/>
<path fill="#48959F" opacity="1.000000" stroke="none" 
	d="
M268.027618,304.253235 
	C268.137512,304.001373 268.318604,303.994476 268.771606,303.997925 
	C268.728638,304.171600 268.413727,304.334869 268.027618,304.253235 
z"/>
<path fill="#44AEC1" opacity="1.000000" stroke="none" 
	d="
M155.036377,220.472717 
	C156.368256,219.503998 157.688751,219.019485 158.993790,218.496475 
	C159.838287,218.158020 160.678131,217.407394 161.489471,217.448242 
	C170.391739,217.896683 179.281693,218.675323 188.187622,218.940994 
	C197.170227,219.208939 206.173599,219.220047 215.156265,218.952896 
	C232.555664,218.435486 249.949936,217.709076 267.338562,216.901688 
	C270.247864,216.766571 273.117920,215.786758 276.388000,215.119293 
	C276.388000,217.098267 276.388000,218.646286 276.388000,222.134171 
	C279.266510,220.030289 281.121735,218.674332 283.091034,216.940491 
	C286.743317,219.799561 290.401184,222.916321 293.796051,226.297180 
	C302.153809,234.620575 310.390686,243.065353 318.821747,251.764145 
	C318.187225,252.575089 317.105499,253.708374 316.671600,253.498993 
	C308.181458,249.402206 299.032288,250.383224 290.105499,250.070816 
	C280.968872,249.751083 271.812408,250.000000 262.664612,250.000000 
	C231.894775,250.000000 201.124954,249.999435 170.355118,250.000351 
	C161.436569,250.000626 161.443756,250.005356 158.295746,258.161407 
	C158.130585,258.589294 157.670776,258.903473 156.338943,260.418884 
	C155.777130,257.458252 155.074875,255.419022 155.054657,253.373032 
	C154.947922,242.563171 155.012955,231.751602 155.036377,220.472717 
z"/>
<path fill="#000000" opacity="1.000000" stroke="none" 
	d="
M277.991943,209.026901 
	C274.401825,205.595413 270.811707,202.163925 267.177979,198.402588 
	C280.057251,191.544266 292.984894,185.025146 305.900360,178.481995 
	C310.042419,176.383560 314.248260,174.384308 318.241760,172.029068 
	C320.718567,170.568329 321.788605,170.880325 323.202087,173.486008 
	C331.450317,188.691711 343.655670,199.531250 359.839905,205.789658 
	C360.286560,205.962372 360.829376,205.886215 361.782593,206.146652 
	C362.393585,206.639771 362.625763,206.747177 362.934387,206.689377 
	C363.401428,206.752136 363.868469,206.814896 365.076904,206.923615 
	C374.884552,208.902115 384.166504,212.657196 391.964661,203.875122 
	C392.439117,203.855682 392.913574,203.836243 393.941162,203.734161 
	C394.739960,203.495697 394.893738,203.275665 394.955688,202.991425 
	C398.382965,202.648895 401.810272,202.306381 406.114777,201.876190 
	C406.421021,202.270493 407.484039,203.496048 408.388977,204.828979 
	C412.508636,210.897202 412.195312,211.788925 405.447815,214.946365 
	C404.222107,215.519943 403.372894,216.865555 402.169495,217.526245 
	C399.826324,218.812744 396.609772,221.449066 395.074738,220.725693 
	C390.097137,218.379974 386.198883,221.272781 381.995117,222.184525 
	C372.555054,224.231918 363.219574,226.761353 353.022491,229.270554 
	C343.791107,229.661804 335.378784,229.877045 326.966431,230.092285 
	C320.832672,228.424911 314.417328,227.415054 308.630646,224.937164 
	C299.792969,221.152847 291.389496,216.354446 282.430817,211.958466 
	C282.059937,211.930344 281.987640,211.894028 281.947662,211.660461 
	C281.729919,211.121414 281.464447,210.976974 280.935974,210.726334 
	C279.837738,209.981705 278.914825,209.504303 277.991943,209.026901 
z"/>
<path fill="#000000" opacity="1.000000" stroke="none" 
	d="
M225.453918,129.011307 
	C223.040100,124.242851 221.018295,119.522156 219.273926,114.351532 
	C219.854874,113.709732 220.019211,113.434685 220.044373,113.076469 
	C221.286819,112.606697 222.529266,112.136925 224.294174,111.323380 
	C232.553589,107.682205 240.290543,104.384804 248.402191,101.034912 
	C256.867859,97.352081 264.958801,93.721748 273.430298,90.043808 
	C282.228394,86.349380 290.645935,82.702545 299.063477,79.055710 
	C300.146118,78.685684 301.228760,78.315651 302.922150,77.975822 
	C303.735382,78.313171 303.937866,78.620316 304.058411,79.348709 
	C304.323853,83.020775 304.728943,86.266647 305.007416,89.523361 
	C305.734039,98.022202 306.405243,106.525787 307.098572,115.027481 
	C307.111084,115.486931 307.123627,115.946381 307.133789,117.081848 
	C307.443878,118.764717 307.756409,119.771561 308.068909,120.778412 
	C308.667877,124.840401 306.882111,127.108177 302.966858,128.240784 
	C300.360229,128.994843 297.928314,130.352814 294.847107,131.782104 
	C276.156097,140.148224 258.036133,148.172714 239.686340,156.156784 
	C239.456528,156.116364 239.005219,156.000244 239.005219,156.000244 
	C236.218002,147.641830 233.565048,139.233185 230.479233,130.986511 
	C230.078674,129.916016 227.445160,129.681046 225.453918,129.011307 
z"/>
<path fill="#000000" opacity="1.000000" stroke="none" 
	d="
M260.249390,188.021271 
	C259.185669,187.580978 258.426147,186.946686 257.233276,185.837555 
	C254.228043,181.564484 251.656189,177.766235 249.039795,173.619125 
	C248.003876,172.029373 246.861649,170.874451 246.084808,169.511322 
	C245.696320,168.829666 245.974854,167.767883 246.311035,166.928772 
	C248.415131,166.258621 250.159912,165.537689 251.904709,164.816772 
	C271.312469,156.061462 290.720215,147.306137 310.067383,138.578140 
	C311.860626,144.505569 313.165649,149.616028 314.974335,154.541550 
	C316.379272,158.367508 314.978699,160.268921 311.656494,161.858231 
	C303.601501,165.711670 295.603790,169.689285 287.648010,173.744370 
	C278.579742,178.366501 269.582001,183.126938 260.249390,188.021271 
z"/>
<path fill="#69BFCC" opacity="1.000000" stroke="none" 
	d="
M453.974945,122.002640 
	C453.912567,126.779640 453.966217,131.563461 453.685852,136.327652 
	C453.632507,137.234665 452.411072,138.459473 451.455048,138.827881 
	C450.289337,139.277069 448.834625,138.996567 447.504913,138.996887 
	C428.712341,139.001389 409.919037,138.906754 391.127502,139.046173 
	C383.675446,139.101440 376.227234,139.673096 368.334595,140.021362 
	C363.629272,135.910995 359.366577,131.788925 355.302185,127.299973 
	C361.141876,123.417694 367.260956,124.849411 373.358215,124.911552 
	C395.336456,125.135521 417.318634,124.933395 439.298553,125.049057 
	C444.469666,125.076263 449.536560,125.223091 453.974945,122.002640 
z"/>
<path fill="#81CBD3" opacity="1.000000" stroke="none" 
	d="
M304.140350,78.927460 
	C303.937866,78.620316 303.735382,78.313171 303.268738,77.891685 
	C302.753296,77.031883 302.501953,76.286415 302.127747,75.270576 
	C306.037567,75.333496 310.069763,75.950005 314.102966,75.956543 
	C357.326874,76.026581 400.550964,75.982582 443.774872,76.041199 
	C446.566498,76.044983 449.357330,76.636093 452.568054,76.977097 
	C452.991913,79.041801 452.996277,81.083412 452.556091,83.562485 
	C449.968903,83.804901 447.829987,83.525848 445.682892,83.429634 
	C437.255157,83.051987 428.809326,82.250122 420.399719,82.521149 
	C411.337708,82.813202 402.319183,84.719864 393.263184,84.881241 
	C372.303131,85.254753 351.331818,85.020538 330.365234,84.970695 
	C328.059784,84.965218 325.707336,84.775299 323.461304,84.284119 
	C319.824738,83.488861 317.230560,84.326576 315.976746,88.052910 
	C313.825043,86.142166 311.673309,84.231415 309.100708,81.863602 
	C307.166687,80.580177 305.653503,79.753822 304.140350,78.927460 
z"/>
<path fill="#6EC2CE" opacity="1.000000" stroke="none" 
	d="
M453.982300,121.552643 
	C449.536560,125.223091 444.469666,125.076263 439.298553,125.049057 
	C417.318634,124.933395 395.336456,125.135521 373.358215,124.911552 
	C367.260956,124.849411 361.141876,123.417694 355.108521,127.020317 
	C352.212067,124.618340 349.707520,122.129143 347.052307,119.340607 
	C353.294342,114.550499 360.571106,114.915421 367.895538,114.953026 
	C392.143219,115.077522 416.392578,115.092033 440.639587,114.912148 
	C444.829407,114.881065 449.010681,113.696907 453.588226,113.030548 
	C453.983582,115.711365 453.986603,118.407005 453.982300,121.552643 
z"/>
<path fill="#7FC9D3" opacity="1.000000" stroke="none" 
	d="
M316.093750,88.335968 
	C317.230560,84.326576 319.824738,83.488861 323.461304,84.284119 
	C325.707336,84.775299 328.059784,84.965218 330.365234,84.970695 
	C351.331818,85.020538 372.303131,85.254753 393.263184,84.881241 
	C402.319183,84.719864 411.337708,82.813202 420.399719,82.521149 
	C428.809326,82.250122 437.255157,83.051987 445.682892,83.429634 
	C447.829987,83.525848 449.968903,83.804901 452.555786,83.999977 
	C452.767517,90.534996 452.118347,91.181885 446.242035,91.141479 
	C435.509674,91.067680 424.775513,90.913300 414.044617,91.027344 
	C390.987823,91.272400 367.933350,91.783638 344.876251,91.938103 
	C336.506714,91.994179 328.132385,91.344101 319.337372,91.021164 
	C318.013245,90.223740 317.112000,89.421379 316.093750,88.335968 
z"/>
<path fill="#2E7278" opacity="1.000000" stroke="none" 
	d="
M239.916168,156.197205 
	C258.036133,148.172714 276.156097,140.148224 294.641602,132.072098 
	C293.051544,133.748489 291.362762,136.045471 289.095398,137.108551 
	C277.781311,142.413345 266.313843,147.390991 254.903442,152.490677 
	C251.395981,154.058289 247.841354,155.538666 244.440765,157.312836 
	C243.695526,157.701645 243.514847,159.172546 243.047028,160.562439 
	C243.019897,160.979752 242.931854,161.068268 242.592316,160.986664 
	C241.473923,159.335770 240.695038,157.766495 239.916168,156.197205 
z"/>
<path fill="#2E7278" opacity="1.000000" stroke="none" 
	d="
M304.058411,79.348709 
	C305.653503,79.753822 307.166687,80.580177 308.803650,81.716293 
	C305.096344,85.017097 307.274353,88.971947 307.437256,92.480995 
	C307.711365,98.385216 308.558258,104.261200 308.925110,110.163910 
	C309.017578,111.651695 308.203888,113.195793 307.452576,114.870743 
	C306.405243,106.525787 305.734039,98.022202 305.007416,89.523361 
	C304.728943,86.266647 304.323853,83.020775 304.058411,79.348709 
z"/>
<path fill="#2E7278" opacity="1.000000" stroke="none" 
	d="
M391.679016,203.673416 
	C384.166504,212.657196 374.884552,208.902115 365.429016,206.875641 
	C366.149353,206.232925 367.324219,205.109955 368.358185,205.227371 
	C375.737823,206.065491 383.136383,207.730774 390.003693,203.158630 
	C390.276489,202.977005 390.921661,203.354645 391.679016,203.673416 
z"/>
<path fill="#2E7278" opacity="1.000000" stroke="none" 
	d="
M327.066711,230.462189 
	C335.378784,229.877045 343.791107,229.661804 352.607178,229.339600 
	C352.535370,229.982925 352.110687,231.346695 351.576721,231.390915 
	C344.310333,231.992691 337.031738,232.482330 329.747162,232.778915 
	C328.914917,232.812805 328.028381,231.513321 327.066711,230.462189 
z"/>
<path fill="#44AEC1" opacity="1.000000" stroke="none" 
	d="
M277.766846,209.281891 
	C278.914825,209.504303 279.837738,209.981705 281.006775,210.937866 
	C281.431091,211.678467 281.675995,211.837601 281.987640,211.894028 
	C281.987640,211.894028 282.059937,211.930344 282.076477,211.968201 
	C282.375275,213.106812 282.657593,214.207550 282.991791,215.649994 
	C278.331543,216.293381 277.098419,213.629608 277.766846,209.281891 
z"/>
<path fill="#2E7278" opacity="1.000000" stroke="none" 
	d="
M251.745911,164.576874 
	C250.159912,165.537689 248.415131,166.258621 246.319214,166.588974 
	C244.955994,164.488358 243.943924,162.778320 242.931854,161.068268 
	C242.931854,161.068268 243.019897,160.979752 243.064789,160.934708 
	C245.935486,162.038773 248.761307,163.187881 251.745911,164.576874 
z"/>
<path fill="#2E7278" opacity="1.000000" stroke="none" 
	d="
M308.045471,120.456589 
	C307.756409,119.771561 307.443878,118.764717 307.197510,117.420746 
	C307.516479,118.100670 307.769257,119.117714 308.045471,120.456589 
z"/>
<path fill="#2E7278" opacity="1.000000" stroke="none" 
	d="
M362.809753,206.555878 
	C362.625763,206.747177 362.393585,206.639771 362.170532,206.174988 
	C362.311554,206.110306 362.505524,206.256836 362.809753,206.555878 
z"/>
<path fill="#2E7278" opacity="1.000000" stroke="none" 
	d="
M394.797882,203.086319 
	C394.893738,203.275665 394.739960,203.495697 394.288727,203.655899 
	C394.248260,203.476730 394.433899,203.317032 394.797882,203.086319 
z"/>
<path fill="#56B6C6" opacity="1.000000" stroke="none" 
	d="
M249.084335,173.968002 
	C251.656189,177.766235 254.228043,181.564484 256.933167,185.688782 
	C256.269775,187.957596 255.473114,189.900345 254.479904,192.322403 
	C251.755539,190.152786 249.920532,188.691422 247.462769,186.734116 
	C247.462769,189.275909 247.462769,190.808472 247.462769,191.004288 
	C241.568604,190.323380 235.846558,189.157166 230.111832,189.091034 
	C209.843689,188.857254 189.571167,189.011063 169.300369,188.982422 
	C167.318558,188.979630 165.279053,188.981689 163.369736,188.537277 
	C160.811829,187.941940 159.210831,188.070587 158.869751,191.230515 
	C158.773483,192.122528 157.379059,192.874405 156.580032,193.690552 
	C156.059296,192.586639 155.114426,191.492676 155.088303,190.377182 
	C154.944412,184.233017 155.025040,178.083618 155.393875,171.405121 
	C159.086655,166.316559 163.860733,168.007660 168.230576,168.004791 
	C186.007278,167.993179 203.784119,168.043289 221.560593,167.977570 
	C228.191910,167.953049 234.822205,167.668533 241.453568,167.532211 
	C241.698929,167.527161 241.950745,167.835373 242.194824,167.994537 
	C241.877762,169.026398 241.566437,170.039505 241.274521,170.989502 
	C244.093353,172.064529 246.588837,173.016266 249.084335,173.968002 
z"/>
<path fill="#5EB9C8" opacity="1.000000" stroke="none" 
	d="
M249.039795,173.619125 
	C246.588837,173.016266 244.093353,172.064529 241.274521,170.989502 
	C241.566437,170.039505 241.877762,169.026398 242.194824,167.994537 
	C241.950745,167.835373 241.698929,167.527161 241.453568,167.532211 
	C234.822205,167.668533 228.191910,167.953049 221.560593,167.977570 
	C203.784119,168.043289 186.007278,167.993179 168.230576,168.004791 
	C163.860733,168.007660 159.086655,166.316559 155.409363,170.936676 
	C155.031738,166.971649 155.003830,162.944214 154.958679,158.452362 
	C154.941422,155.694916 154.941422,153.401871 154.941422,151.000000 
	C176.572449,151.000000 197.627869,151.053391 218.682465,150.946198 
	C222.096436,150.928833 225.538361,149.736633 228.907303,149.966797 
	C231.035065,150.112167 233.124084,151.771820 235.090591,152.979935 
	C236.297928,153.721664 237.241150,154.893265 238.654083,155.936035 
	C239.005219,156.000244 239.456528,156.116364 239.686340,156.156784 
	C240.695038,157.766495 241.473923,159.335770 242.592316,160.986664 
	C243.943924,162.778320 244.955994,164.488358 245.959885,166.538208 
	C245.974854,167.767883 245.696320,168.829666 246.084808,169.511322 
	C246.861649,170.874451 248.003876,172.029373 249.039795,173.619125 
z"/>
<path fill="#81CAD3" opacity="1.000000" stroke="none" 
	d="
M273.049774,90.091415 
	C264.958801,93.721748 256.867859,97.352081 248.418610,100.661736 
	C249.362991,99.281754 250.535629,97.969933 251.996445,97.217880 
	C254.695663,95.828270 257.563751,94.766716 260.361481,93.568497 
	C260.333099,93.008614 260.304718,92.448723 260.276306,91.888832 
	C258.364288,91.592537 256.452728,91.041763 254.540131,91.038101 
	C225.820358,90.983009 197.100311,91.042908 168.380707,90.954994 
	C163.933136,90.941383 159.487411,90.328468 155.040833,89.992699 
	C155.033264,86.301414 155.025696,82.610130 155.491791,78.459015 
	C177.692749,77.667526 199.427948,77.596237 221.145233,76.936150 
	C246.428314,76.167679 271.812134,79.284767 297.000977,74.997559 
	C296.996826,76.058090 296.992676,77.118629 296.589325,78.604141 
	C289.369598,81.588219 282.509644,84.050514 275.766388,86.799164 
	C274.606262,87.272041 273.942719,88.963074 273.049774,90.091415 
z"/>
<path fill="#86CCD5" opacity="1.000000" stroke="none" 
	d="
M296.925720,74.638641 
	C271.812134,79.284767 246.428314,76.167679 221.145233,76.936150 
	C199.427948,77.596237 177.692749,77.667526 155.500824,77.998413 
	C155.026337,76.283607 155.016525,74.569565 155.016129,72.427078 
	C196.582321,71.665756 238.138840,71.291916 279.696136,71.054695 
	C284.587494,71.026779 289.494293,71.652565 294.366699,72.212158 
	C295.261963,72.314987 296.025940,73.561256 296.925720,74.638641 
z"/>
<path fill="#86CCD5" opacity="1.000000" stroke="none" 
	d="
M273.430298,90.043808 
	C273.942719,88.963074 274.606262,87.272041 275.766388,86.799164 
	C282.509644,84.050514 289.369598,81.588219 296.586182,79.001831 
	C297.445068,78.990898 297.907898,79.007263 298.717102,79.039673 
	C290.645935,82.702545 282.228394,86.349380 273.430298,90.043808 
z"/>
<path fill="#7AC6D1" opacity="1.000000" stroke="none" 
	d="
M155.028687,90.459991 
	C159.487411,90.328468 163.933136,90.941383 168.380707,90.954994 
	C197.100311,91.042908 225.820358,90.983009 254.540131,91.038101 
	C256.452728,91.041763 258.364288,91.592537 260.276306,91.888832 
	C260.304718,92.448723 260.333099,93.008614 260.361481,93.568497 
	C257.563751,94.766716 254.695663,95.828270 251.996445,97.217880 
	C250.535629,97.969933 249.362991,99.281754 248.043915,100.714233 
	C240.290543,104.384804 232.553589,107.682205 224.438751,111.013596 
	C222.865768,107.031952 219.856552,105.977692 216.059921,105.985519 
	C199.499237,106.019646 182.938446,106.001343 166.377686,105.997459 
	C164.715500,105.997070 163.050323,106.023125 161.391693,105.937271 
	C156.962494,105.708023 154.184341,104.092506 154.938858,98.897980 
	C155.317352,96.292305 155.012390,93.587349 155.028687,90.459991 
z"/>
<path fill="#7AC6D1" opacity="1.000000" stroke="none" 
	d="
M220.033478,112.731628 
	C220.019211,113.434685 219.854874,113.709732 219.313171,113.969925 
	C219.180878,113.075317 219.286789,112.112381 219.696426,111.074814 
	C220.000168,111.000175 220.006714,111.006424 220.006714,111.006424 
	C220.011993,111.466545 220.017288,111.926674 220.033478,112.731628 
z"/>
<path fill="#7AC6D1" opacity="1.000000" stroke="none" 
	d="
M219.998199,110.997131 
	C220.204529,110.808350 220.401459,110.606224 220.629150,110.448555 
	C220.685165,110.409767 220.841537,110.515915 220.951752,110.555435 
	C220.762924,110.691948 220.574097,110.828453 220.195984,110.985695 
	C220.006714,111.006424 220.000168,111.000175 219.998199,110.997131 
z"/>
<path fill="#1B6D73" opacity="1.000000" stroke="none" 
	d="
M281.947662,211.660461 
	C281.675995,211.837601 281.431091,211.678467 281.182129,211.205109 
	C281.464447,210.976974 281.729919,211.121414 281.947662,211.660461 
z"/>
</svg>