<svg xmlns="http://www.w3.org/2000/svg" width="100%" viewBox="0 0 302 328" height="150" xmlns:v="https://vecta.io/nano"><path fill="#f7f7e9" d="M156.983 184.829c-18.415-1.808-34.929 4.449-51.128 12.049-.231-.182-.665-.369-.66-.545.224-8.796-6.72-14.176-9.931-21.29-4.485-9.937-7.748-20.45-11.174-30.836L64.763 84.317c-2.56-7.89-1.309-15.602.772-23.294.199-.735 1.096-1.281 2.033-1.576 1.045 2.182 1.615 4.075 2.427 5.859 2.653 5.833 6.345 11.38 7.92 17.481 4.475 17.329 8.029 34.893 12.11 52.327.988 4.221 2.608 8.294 3.938 12.436l1.039-.316-7.78-48.48c.042-4.823-.013-9.396-.497-13.924L83.1 53.061c-.278-2.936-.969-4.743-4.303-5.354-1.402-.878-2.543-1.472-3.684-2.065 0 0 .132-.378.612-.248 1.088-.628 1.696-1.386 2.305-2.144l19.63-8.192c8.058-3.238 16.261-6.129 24.239-9.549 9.673-4.147 19.615-6.273 30.612-5.067.494.744.518 1.133.265 1.777-.276 1.701-.276 3.146-.276 4.592l2.306-.199-.826-4.932.063-1.457c2.359-.031 4.719-.062 7.51.4 1.751 6.428 2.491 12.362.463 18.307-.102.298.002.662-.015.993l-.85 17.574c-.028.831.717 1.687 1.053 2.967-.774 10.979-1.896 21.515-2.102 32.07-.184 9.41.645 18.84 1.07 28.507.181.563.403.801.74 1.39l2.129 19.9.913 9.987c-.681.771-1.316 1.224-2.388 1.676-2.479-.007-4.521-.013-6.563-.485v-38.764l-1.471.003-1.903 39.239-3.565.299.042.739c3.296 0 6.592 0 9.891.438-.319 6.39-1.051 12.357-.812 18.286.145 3.608 1.946 7.192-2.332 9.57l1.135 1.511M91.943 49.595c.329.451.658.902 1.524 1.737l2.829 8.497c.913 3.522 2.227 6.995 2.67 10.575l5.153 44.578c.903 7.048 2.551 14 3.861 20.996l1.738-.276-2.157-48.289-.74-39.658c-.04-1.286-1.825-2.518-3.102-4.411-2.24-1.114-4.481-2.228-7.553-3.466l-6.597 2.281 2.44 6.835s-.044-.004-.065.601m43.064-22.591s-.012-.041-.723-.142c-2.131 2.449-5.213 4.57-6.193 7.415-1.976 5.735-3.678 11.822-3.967 17.836-1.495 31.124 5.096 61.108 13.769 90.734.265.904.943 1.688 1.429 2.528l.76-.314c-1.16-9.022-2.321-18.044-2.776-27.518.569-4.182 1.138-8.364 2.288-12.63l.935-.954c-.501-.32-1.001-.639-1.409-1.758l8.475-59.289.934-.956c-.502-.319-1.004-.638-1.517-1.877-.33-4.068-.533-8.151-1.026-12.199-.517-4.239-3.535-3.996-6.59-3.225-1.212.306-2.344.933-4.012 1.524-.14.273-.28.546-.376.822m20.969 19.801V33.263c-3.193 3.743-3.871 12.886-2 14.811.23.237 1.24-.285 2-1.269m-2.53 27.045l1.361 2.745.804-.301-1.13-5.824-1.017.113c-.088.868-.176 1.737-.019 3.267z"/><path fill="#eae5d1" d="M173.892 21.277c2.771.244 5.542.488 8.776 1.218.751 1.772 1.28 3.054 1.291 4.342l.541 84.669c-.113 15.969-1.727 31.924-1.994 47.896-.171 10.224.882 20.468 1.386 30.703-2.072-.65-4.144-1.3-6.57-2.527-.677-8.464-1.25-16.352-1.209-24.237.018-3.553-.726-6.017-3.716-7.348 1.722-1.036 4.193-2.07 4.194-3.107l-.534-38.115.753-46.315c.108-7.858.265-15.731-.156-23.568-.108-2.015-2.325-3.916-3.47-6.227.349-3.101.595-5.845.832-9.066l-.124-8.32z"/><path d="M204.919 282.96c4.141-1.707 7.867-3.352 11.711-5.048 5.01 7.967-3.457 21.91-11.852 25.185-12.661 4.938-24.544 3.017-35.853-3.989-5.692-3.527-8.742-11.414-6.72-17.694 1.57-4.877 5.829-6.313 10.19-6.257 3.821.05 7.741 1.047 11.405 2.267 3.412 1.136 6.401 3.633 9.838 4.58 3.454.951 7.231.728 11.281.957zm-96.651 17.834c-7.289-4.464-9.747-11.846-7.561-22.743 1.189.678 2.373 1.164 3.333 1.93 7.99 6.373 15.942 3.911 23.713-.266 5.168-2.777 10.234-5.255 16.378-4.823 4.834.34 8.407 2.304 10.659 6.551 2.457 4.634.833 8.682-2.137 12.358-4.762 5.894-11.053 9.303-18.371 10.998-9.081 2.104-17.722 1.377-26.014-4.005z" fill="#5b473b"/><path fill="#e5dfc9" d="M183.911 190.08c-.523-10.209-1.575-20.454-1.404-30.677.267-15.972 1.881-31.927 1.994-47.896l-.541-84.669c-.012-1.288-.541-2.571-.896-4.258 2.695.151 5.457.704 8.564 1.83-.312 3.116-1.525 5.656-1.54 8.204l-.002 72.475c.006 1.308 1.242 2.61 1.907 4.363l-.99 37.953c1.758 7.147-1.558 13.682-.262 20.643 1.585 8.516-1.368 17.587 2.225 26.072-2.43-.987-4.859-1.975-7.766-3.301-.718-.566-1.002-.7-1.33-.743 0 0 .06-.022.041.004z"/><path fill="#efebd9" d="M171.999 155.995c3.388 1.33 4.133 3.794 4.115 7.347-.041 7.885.532 15.772.869 24.07-4.214-.243-8.442-.897-12.649-2.195 3.871-2.458 1.769-5.888 1.948-8.54.34-5.04-1.196-10.598.446-15.056 1.859-5.046-.149-5.73-3.727-6.868v-.757l2.243-1.58c.131-3.628-.077-7.037-.291-10.913.325-14.859.252-29.276 1.101-43.638.807-13.652 2.576-27.247 4.31-40.773 1.137 4.706 2.448 9.311 2.512 13.932.111 8.102-.774 16.213-.83 24.323l-.047 60.648m-2.426.52s-.095.053 0 0z"/><path fill="#e0d6bd" d="M193.114 194.443c-3.742-8.809-.788-17.879-2.373-26.396-1.296-6.96 2.02-13.496.545-20.942l2.798-32.788c.947-8.809 2.591-17.544 4.317-26.213.793 1.103 1.529 2.102 1.547 3.114l.939 68.262c.014 1.933-1.551 3.877-2.764 6.706.188 1.481.634 4.187.858 6.911l1.917 25.003c-2.545-1.111-5.091-2.222-7.784-3.656z"/><path fill="#dbcfb4" d="M200.915 198.071l-1.935-24.975-.858-6.911c1.213-2.829 2.778-4.773 2.764-6.706l-.939-68.262c-.018-1.012-.754-2.011-1.576-3.407-.733-.856-1.046-1.32-1.368-2.139.331-2.138.672-3.921 1.322-5.848 2.406-3.713 4.502-7.284 6.899-10.56.459 1.264.783 2.239.75 3.202-1.097 32.279 1.953 64.6-1.571 96.887-1.14 10.443.301 21.167.561 31.763-.918-.461-1.836-.923-2.991-1.92-.527-.736-.816-.936-1.106-1.135 0 0 .064-.017.046.011z"/><path fill="#5b483d" d="M80.785 258.087l-24.97-11.648c-3.154-1.458-3.881-4.112-2.142-6.476 2.236-3.041 5.041-5.97 8.223-7.945 5.978-3.711 12.394-6.721 18.648-9.983 1.298-.677 2.737-1.76 4.02-1.644 2.415.218 4.764 1.172 7.14 1.82-1.198 1.941-1.947 4.598-3.681 5.684-4.453 2.788-9.413 4.751-14.029 7.299-2.527 1.395-4.768 3.309-8.209 5.748l24.93 11.975c2.077 1.066 3.846 3.105 5.129 5.1.355.551-1.402 3.54-2.444 3.695-2.487.368-5.207.021-7.673-.636-1.666-.444-3.06-1.906-4.943-2.989z"/><path fill="#c1af90" d="M243.126 45.943c4.226 4.442 8.452 8.884 12.413 13.665-3.919.133-4.697 2.26-4.561 5.387l1.005 27.168c.104 3.305-.307 6.662.155 9.904.243 1.705 1.866 3.212 2.591 4.369l6.116-5.432c-1.695 3.25-3.389 6.499-5.67 10.057-.746.895-.907 1.483-1.067 2.07 0 0-.059-.084-.258.029a5.85 5.85 0 0 0-.765.993s-.019-.098-.339-.048c-.766 1.037-1.211 2.024-1.656 3.011 0 0-.047-.08-.246.037-.39.407-.58.698-.771.989 0 0-.01-.096-.238.064-.396.747-.564 1.334-.732 1.922 0 0-.05-.083-.251.03-.393.404-.586.694-.779.985 0 0-.018-.093-.34-.091-1.799 1.023-3.276 2.044-5.033 3.258l-.003-2.863-.293-10.325c-.091-3.137-.071-6.282-.309-9.408-.222-2.916-.719-5.811-1.095-9.048.001-.777.001-1.22.333-1.721.777-1.686 1.223-3.315 1.669-5.278 0-.777.001-1.221.318-1.713.771-.683 1.224-1.32 1.686-2.346l3.934-17.954c-2.617-2.718-3.436-1.086-3.921 1.339-.008.002-.006.006-.337.003-.772.002-1.213.007-2.018-.069-.365-2.691-.365-5.302-.365-9.27-2.074-2.263-.671-5.987.827-9.714z"/><path fill="#d7cbae" d="M205.114 201.431c-.41-10.912-1.851-21.636-.711-32.079 3.525-32.287.474-64.608 1.571-96.887.033-.963-.292-1.938-.721-3.558.735-2.736 1.741-4.822 3.14-6.808.797 1.271 1.546 2.441 1.553 3.616l.057 39.748.084 55.834c.011 1.572 1.243 3.135 1.77 5.012-.709 1.769-1.282 3.228-1.912 5.101-1.357 8.085-2.46 15.729 3.035 22.448-.55.983-1.641 2.014-1.559 2.941.408 4.631-1.906 6.595-6.307 4.632z"/><path fill="#5b483e" d="M238.594 233.262l-10.079-3.531c-1.56-.55-3.42-.825-4.559-1.865-1.879-1.715-3.285-3.949-4.89-5.964 2.63-.799 5.865-2.996 7.788-2.163 9.867 4.273 20.999 6.55 28.267 16.209-.92 1.373-1.608 3.258-2.953 4.268-8.278 6.214-16.602 12.382-25.174 18.177-1.589 1.074-4.374.379-6.607.501.757-2.017.933-4.746 2.376-5.923 4.927-4.021 10.17-7.697 15.538-11.12 5.077-3.237 5.311-4.275.294-8.588z"/><path fill="#bdab8b" d="M260.919 100.624c-1.797 1.91-3.52 3.441-6.19 5.812-.725-1.157-2.347-2.665-2.591-4.369-.463-3.242-.051-6.599-.155-9.904l-1.005-27.168c-.136-3.127.642-5.254 4.714-5.086.418-.039.376.004.447.209.216.512.445.734.757.869 0 0 .117.423.129 1.013.717 1.374 1.421 2.157 2.126 2.94.335.009.593.153.915.892.284.776.514 1.007.83 1.154a4.36 4.36 0 0 0 .13 1.01c.711 1.36 1.412 2.132 2.113 2.904 0 0-.082.056-.004.241.225.493.455.714.768.847 0 0 .125.407.213.856.232.763.46.994.772 1.141 4.588 6.917.982 13.617-.707 20.29-.537 2.123-2.097 3.987-3.263 6.349z"/><path fill="#cebf9e" d="M224.172 32.943c.908.472 1.816.945 2.425 1.744-1.023.873-1.977 1.283-2.401 2.005-.373.634-.178 1.616-.191 2.445l-.851 59.739c-.01 1.039 1.244 2.09 1.891 3.534l-.053 3.596c.014-.002.005-.03-.256.183-.426 1.082-.592 1.951-.743 2.818.014-.002.005-.029-.263.212-.429 1.425-.59 2.61-.737 3.79.014-.005.008-.033-.238.135-.403.729-.56 1.29-.737 2.115l-.04 1.001c-.001.207.015.619-.227.814-.418.774-.595 1.353-.758 1.93.013-.002.003-.026-.243-.015s-.737.035-.9-.336c-.725-4.768-1.738-9.162-1.772-13.563l-.161-64.176c-.01-1.636-1.224-3.265-1.999-5.12-.389-.42-.658-.618-.79-1.116 3.107-.778 6.076-1.256 9.046-1.733z"/><path fill="#e2dac2" d="M198.015 79.967l-1.241 5.996c-.742 1.612-1.568 2.527-1.741 3.552l-3.043 19.487c-.663-1.305-1.899-2.606-1.905-3.914l.002-72.475c.015-2.548 1.228-5.088 1.897-8.017.768-.443 1.525-.502 2.794-.312.737.481 1.01.621 1.329.669 0 0 .454.079.657.568l-.719 8.856.195 35.283c.047 2.462 1.077 4.904 1.677 7.725l.097 2.583z"/><path fill="#c9b997" d="M225.064 102.01c-.666-1.045-1.92-2.096-1.91-3.135l.851-59.739c.013-.829-.182-1.811.191-2.445.424-.722 1.377-1.132 2.522-1.711.421-.033.87.02 1.223.284.595.489.879.628 1.205.68 1.87 1.118 3.74 2.237 5.587 3.98-1.259 3.324-3.398 5.969-3.562 8.731-.479 8.069-.271 16.186-.124 24.28.067 3.697.625 7.385.914 11.443l-4.965 16.625c.007-.003.005-.018-.253.078-.732.373-1.205.651-1.678.928z"/><path fill="#aa9b7e" d="M86.931 99.025l8.072 48.208-1.039.316c-1.329-4.141-2.949-8.214-3.938-12.436l-12.11-52.327c-1.575-6.101-5.267-11.648-7.92-17.481-.811-1.784-1.382-3.678-2.03-5.905.171-1.321.31-2.258 1.086-3.108 2.627 2.01 4.617 3.934 6.819 6.136 2.519 5.469 5.424 10.488 6.983 15.895 1.94 6.733 2.769 13.786 4.078 20.701z"/><path fill="#c5b593" d="M232.007 84.012c-.335-3.692-.893-7.38-.96-11.076-.147-8.094-.355-16.212.124-24.28.164-2.762 2.303-5.407 3.708-8.427 2.774 1.477 5.379 3.275 8.116 5.394-1.365 4.048-2.768 7.771-.695 10.035 0 3.969 0 6.579.231 9.562-.024 1.178-.279 1.982-.532 2.784.002-.003.008-.008-.298.142-3.435 5.389-6.564 10.628-9.693 15.867z"/><path fill="#5b483e" d="M190.11 230.532c5.851 3.454 5.149 8.881 4.71 13.867-.33 3.749-2.404 7.142-6.513 7.788-2.591.407-5.683.335-7.995-.728-5.238-2.41-8.999-16.237-.991-20.573 2.777-1.504 6.933-.463 10.789-.353m-5.236 7.93c-1.261.589-2.825.922-3.642 1.887-.355.419.558 2.731 1.386 3.109.905.413 3.052-.065 3.43-.793.463-.892-.347-2.445-1.174-4.203z"/><path fill="#c4b493" d="M241.001 92.999l1.095 8.715.309 9.408.293 10.325.003 2.863 5.073-3.233c-1.766 3.244-3.894 6.466-6.704 9.855-1.45 1.505-2.218 2.843-2.986 4.181 0 0-.053-.099-.369-.054-1.799.916-3.282 1.786-5.516 3.098 0-2.251.098-3.799-.018-5.33l-1.18-14.22c1.988-6.038 3.869-11.726 6.007-17.314 1.093-2.856 2.647-5.535 3.993-8.294z"/><path fill="#5b483e" d="M121.663 242.337c-1.126-6.429 1.791-11.788 6.358-12.377 7.684-.99 12.602 1.664 13.077 7.057.902 10.236-2.063 15.544-8.933 15.989-6.405.415-9.977-3.144-10.502-10.668m11.039-3.979c-1.502.769-3.093 1.418-4.418 2.42-.227.172.451 2.425 1.124 2.697 1.025.414 3.209.323 3.478-.237.598-1.244.312-2.913-.184-4.88z"/><path fill="#ded4bb" d="M197.896 77.015c-.577-2.451-1.607-4.894-1.654-7.356l-.195-35.283c.013-2.791.599-5.579.936-8.778 1.755-.131 3.496.149 5.624.921-.752 10.54-2.072 20.594 1.401 30.866l-6.111 19.63z"/><path fill="#f2eedd" d="M173.64 21.197c.291 2.694.329 5.308.238 8.715l-11.626 30.118c-.387-.845-1.131-1.701-1.104-2.532.195-5.861.55-11.717.85-17.574.017-.332-.087-.695.015-.993 2.028-5.945 1.287-11.879-.029-18.218 2.047-.486 4.093-.567 6.686-.223 1.414.541 2.281.658 3.148.774.523-.048 1.046-.097 1.822-.065z"/><path fill="#cdc0a1" d="M227.108 154.124c-2.104 9.508-4.209 19.017-7.023 28.67-1.786-1.463-3.733-3.05-3.772-4.682-.112-4.751.614-9.516.828-14.284.041-.924-.749-1.885-1.153-3.088l.001-1.2c.363-3.78.73-7.139 1.429-10.568 1.413-1.707 2.495-3.342 3.948-4.925.919 1.8 2.179 3.686 1.871 5.266-.693 3.552.362 4.984 3.872 4.811z"/><path fill="#c8b999" d="M227.087 154.103c-3.489.194-4.544-1.237-3.851-4.79.308-1.58-.951-3.466-1.862-5.647 2.967-8.511 6.297-16.589 9.626-24.668l1.181 13.828c.116 1.531.018 3.078.018 5.33 2.234-1.312 3.717-2.183 5.56-3.064-1.05 2.522-2.415 5.081-3.883 7.579-1.518 2.584-3.136 5.11-5.054 8.141-.574.728-.713 1.021-.76 1.357 0 0-.041.429-.306.767-.5.58-.637.868-.676 1.203 0 0-.015-.058.007-.037z"/><path fill="#f4f3e4" d="M163.001 155.004c3.578.885 5.586 1.57 3.727 6.616-1.643 4.458-.106 10.016-.446 15.056-.179 2.652 1.923 6.082-2.13 8.171-2.237.227-4.272.18-6.738.057-.809-.579-1.187-1.083-1.565-1.587 4.278-2.379 2.478-5.962 2.332-9.57-.239-5.929.493-11.896 1.213-18.293 1.468-.447 2.537-.448 3.606-.45z"/><path fill="#d3c5a9" d="M215.986 161c.406.944 1.196 1.905 1.155 2.829-.214 4.768-.94 9.533-.828 14.284.038 1.632 1.986 3.219 3.429 4.875-.498 4.444-1.261 8.899-6.401 10.937-5.855-6.785-4.752-14.429-3.049-22.574 1.169-2.098 1.935-3.722 2.704-5.349.004-.003.009-.012.325-.18.782-1.714 1.248-3.26 1.952-4.811l.714-.011z"/><path fill="#d9ceb3" d="M204.025 57.002c-3.491-9.889-2.172-19.944-1.031-30.409 1.904-.073 3.807.271 5.82 1.366-.645 5.603-2.751 10.561 1.175 15.407l-5.963 13.637z"/><path fill="#5c4d45" d="M144.648 217.19c.298 1.186.383 2.096.467 3.007-.852-.071-2.071.196-2.498-.267-3.464-3.757-7.043-2.871-11.211-1.145-4.154 1.72-8.616 3.361-13.258 1.182-2.996-1.406-4.563-3.379-3.235-6.738.808 0 1.312-.13 1.415.019 5.088 7.293 11.287 2.738 16.696 1.046 4.764-1.49 8.212-.926 11.624 2.897z"/><path fill="#d4c8ad" d="M210.04 43.003c-3.977-4.483-1.871-9.441-1.05-14.713.505-.375.945-.331 1.843-.022.695.485.971.627 1.287.691 3.899 1.093 7.798 2.186 11.874 3.632-2.793.83-5.763 1.308-9.017 2.392l-4.938 8.02z"/><path fill="#e4d9c8" d="M75.659 62.151l-6.257-5.947c1.525-3.542 3.336-6.907 5.429-10.418 1.423.449 2.564 1.043 3.597 1.964-4.866 2.781-5.226 4.409-2.827 10.307.479 1.178.061 2.72.057 4.094z"/><path fill="#5c4d45" d="M163.641 267.725l5.697-1.308c-2.559 3.859-5.056 6.775-9.377 5.806-2.468-.553-4.672-2.282-6.317-4.3 3.223 0 6.447 0 9.997-.199z"/><path fill="#c8b999" d="M238.393 134.984c.459-1.209 1.227-2.547 2.364-3.912-.439 1.243-1.247 2.513-2.364 3.912z"/><path fill="#e4d9c8" d="M77.757 43.189c-.336.818-.944 1.576-1.846 2.132.329-.866.951-1.529 1.846-2.132z"/><path fill="#c1af90" d="M263.097 70.569c-.657-.44-1.358-1.212-2.047-2.355.676.427 1.339 1.225 2.047 2.355z"/><path fill="#c4b493" d="M251.384 116.981c.151-.851.596-1.838 1.403-2.848-.129.889-.619 1.801-1.403 2.848z"/><path fill="#c1af90" d="M259.09 64.613c-.643-.456-1.348-1.239-2.042-2.394.667.441 1.324 1.254 2.042 2.394z"/><path fill="#eae5d1" d="M171.55 21.072c-.598.073-1.465-.043-2.444-.521.65-.131 1.413.1 2.444.521z"/><path fill="#d2d0c7" d="M153.771 20.13c.255.481.241.87-.02 1.554-.246.296-.7.279-.7.279l-.081-1.458c.17-.35.351-.409.801-.375z"/><path d="M249.384 119.989c-.114-.448.054-1.035.498-1.777.112.442-.052 1.04-.498 1.777zm5.002-7.005c-.117-.44.044-1.028.472-1.779.114.435-.041 1.033-.472 1.779z" fill="#c4b493"/><path fill="#e0d6bd" d="M200.953 198.323c.205-.063.495.137.892.583-.197.058-.502-.131-.892-.583z"/><path fill="#ded4bb" d="M196.032 24.691c-.243.213-.515.074-.876-.347.176-.097.488-.006.876.347z"/><path fill="#d9ceb3" d="M212.035 28.704c-.231.192-.507.05-.878-.362.174-.093.484.007.878.362z"/><path fill="#cebf9e" d="M229.055 35.688c-.235.205-.519.066-.898-.357.178-.098.492.001.898.357z"/><path d="M256.932 60.714c-.347.138-.575-.084-.786-.625.23-.039.525.157.786.625zm3.996 5.996c-.347.13-.577-.102-.79-.659.228-.033.525.174.79.659zm3.007 5.006c-.343.139-.573-.081-.787-.623.228-.039.522.156.787.623zm.983 1.995c-.341.127-.569-.104-.782-.655.225-.031.518.175.782.655z" fill="#c1af90"/><path fill="#eae5d1" d="M183.948 190.343c.25-.224.534-.09.906.337-.188.11-.508.02-.906-.337z"/><path d="M253.345 114.069c-.071-.209.118-.502.555-.895.067.204-.114.508-.555.895zm-3.019 3.981c-.063-.198.127-.489.562-.885.06.194-.124.493-.562.885z" fill="#c4b493"/><path d="M227.343 154.056c-.224-.251-.088-.54.352-.913.107.189.009.509-.352.913zm.982-1.979c-.216-.242-.077-.535.357-.922.105.184.005.506-.357.922z" fill="#cdc0a1"/><path fill="#c4b493" d="M248.33 121.055c-.064-.203.129-.493.569-.885.061.198-.126.498-.569.885z"/><path fill="#ece2d2" d="M139.013 104.999c-.569 4.182-1.138 8.364-2.247 12.464-1.851-8.059-3.243-16.025-4.452-24.019-1.505-9.955-3.229-19.898-4.187-29.911-1.221-12.758 1.321-24.992 6.869-36.571 0 0 .012.041.219-.027.503-.251.657-.517.669-.864 1.168-.481 2.299-1.108 3.512-1.414 3.055-.772 6.073-1.014 6.59 3.225.493 4.048.696 8.131 1.023 12.991l.005 2.125-7.949 59.936c-.055 1.176-.053 1.62-.051 2.064z"/><path fill="#b6a98d" d="M134.64 26.913c-5.193 11.629-7.735 23.863-6.513 36.621.959 10.012 2.682 19.955 4.187 29.911 1.209 7.993 2.601 15.959 4.099 24.244l3.669 27.373-.76.314c-.486-.84-1.164-1.623-1.429-2.528-8.674-29.626-15.265-59.61-13.769-90.734.289-6.015 1.991-12.102 3.967-17.836.98-2.845 4.062-4.966 6.549-7.365z"/><path fill="#cabea3" d="M162.202 60.464l11.686-30.075-.79 8.669-3.122 17.94c-1.346 13.62-3.116 27.215-3.922 40.867-.849 14.362-.776 28.778-1.327 43.629-.221.458-.672.416-.672.416l-2.19-19.722c-.214-.988-.435-1.228-.738-1.393-.382-9.421-1.211-18.851-1.027-28.261.206-10.554 1.328-21.091 2.102-32.07z"/><path fill="#aa9b7e" d="M106.976 88.009l2.741 47.693-1.738.276c-1.31-6.996-2.958-13.948-3.861-20.996l-5.153-44.578c-.443-3.58-1.757-7.053-2.422-10.945 1.861 1.996 3.474 4.361 5.173 7.11l5.258 21.439z"/><path fill="#ede4d4" d="M75.87 62.429c-.207-1.652.211-3.194-.268-4.372-2.399-5.898-2.039-7.525 3.088-10.022 3.442.283 4.132 2.09 4.411 5.026 1.006 10.609 2.494 21.171 3.626 31.769.484 4.527.539 9.1.497 13.924-1.601-6.644-2.43-13.697-4.37-20.43-1.558-5.407-4.464-10.426-6.983-15.895z"/><path fill="#ebdfcf" d="M101.632 66.186l-5.187-7.078c-1.224-2.579-2.101-5.177-3.225-8.274l-1.256-1.844s.044.004.078-.392c-1.352-4.945 1.81-6.766 4.955-8.596 2.24 1.114 4.481 2.228 6.724 3.98-.648 2.834-1.721 5.002-1.865 7.23-.321 4.975-.179 9.981-.225 14.974z"/><path fill="#ece2d5" d="M101.718 66.57c-.039-5.377-.182-10.382.14-15.357.144-2.228 1.217-4.396 2.015-6.912 1.123.937 2.908 2.169 2.948 3.455.409 13.214.535 26.437.448 39.956-2.016-6.72-3.74-13.739-5.55-21.141z"/><path d="M153 153.979l1.529-39.233 1.471-.003-.375 38.772c-1.125.471-1.875.468-2.625.465zm2.92-106.767c-.704.577-1.714 1.099-1.944.862-1.872-1.925-1.193-11.068 2-14.811l-.056 13.949z" fill="#f8f7e9"/><path fill="#b6a98d" d="M96.582 39.94c-2.729 1.893-5.891 3.713-4.547 8.679-.85-1.876-1.658-4.168-2.466-6.46l7.013-2.219z"/><path d="M164.038 142.33c.016-.421.467-.379.693-.37.434 3.418.643 6.827.558 10.138-.617-3.181-.942-6.264-1.251-9.768zm-11.412 11.656l2.999-.004 6.938.011c.438.17.438.339.438.759-1.069.254-2.139.256-3.609.264l-10.289.007-.042-.739 3.565-.299z" fill="#efebd9"/><path d="M152.775 22.219c.276-.255.73-.239.957-.243.509 1.542.79 3.089 1.072 4.636l-2.306.199c0-1.445 0-2.891.276-4.592zm.548 51.301c-.035-1.199.053-2.067.141-2.936l1.017-.113 1.13 5.824-.804.301-1.484-3.076zm-6.019-30.563c-.294-.402-.296-.846-.29-1.623.511-.014 1.013.305 1.515.625-.311.319-.623.637-1.225.998zm-8 62c-.293-.402-.294-.846-.286-1.623.511-.013 1.011.307 1.512.626-.312.318-.623.636-1.226.996z" fill="#f8f7e9"/><path d="M91.954 49.293c.347.146.684.595.999 1.349-.351-.145-.68-.596-.999-1.349zm43.68-23.165c.238.292.084.558-.441.808-.089-.206.051-.479.441-.808z" fill="#b6a98d"/><path d="M161.17 121.04c.26-.081.481.159.664.718-.262.083-.484-.155-.664-.718zm9.194-63.949c.589-5.823 1.567-11.552 2.632-17.676 1.335 1.558 3.551 3.46 3.659 5.475.421 7.837.264 15.71.156 23.568l-.753 46.315c-.028 12.704.547 25.41.534 38.115-.001 1.037-2.472 2.071-4.194 3.107l-.352-60.648c.056-8.11.941-16.221.83-24.323-.063-4.622-1.374-9.226-2.512-13.932z" fill="#efebd9"/><path fill="#c9bea6" d="M191.993 109.452l3.04-19.936c.173-1.025.999-1.941 1.751-3.198.541.173.853.638 1.195 1.395-1.306 9.061-2.95 17.795-3.896 26.604-1.145 10.655-1.7 21.374-2.792 32.365l.702-37.229z"/><path fill="#f4f3e4" d="M169.525 156.541c-.048.027.048-.027 0 0z"/><path fill="#baa98d" d="M209.989 43.366l4.852-8.082c.417-.109.686.089 1.063.913-1.571 6.681-3.251 12.735-5.193 19.013-1.078 2.413-1.894 4.602-2.711 6.791-1.007 2.085-2.013 4.17-3.049 6.612-2.125 3.927-4.222 7.498-6.627 11.211-.334-.595-.359-1.333-.406-2.44l6.089-19.999 5.982-14.019z"/><path fill="#c1b29b" d="M231.001 118.607l-9.998 25.007c-1.09 2.016-2.172 3.652-3.612 4.916-.182-2.151-.03-3.934.174-5.71l2.43-20.831c.008.014-.024.011.246-.192.431-1.076.593-1.948.754-2.82 0 0 .01.024.255-.151.41-.766.576-1.357.742-1.948 0 0-.015-.413.205-.743.41-.6.599-.87.793-1.477l.01-1.684s.006.029.265-.204c.417-1.419.574-2.606.732-3.793 0 0 .009.026.266-.175.416-1.076.575-1.951.734-2.827 0 0 .009.027.278-.174.754-1.739 1.24-3.278 1.726-4.816 0 0 .002.015.276-.198l13.981-29.446c.47-1.014.509-2.227.749-3.347 0 0-.006.005.334-.02 1.118-1.008 1.896-1.992 2.674-2.975 0 0-.001-.004.353-.004l3.631-1.006-4.309 17.667-1.686 2.346c0 .444-.001.888-.261 1.884l-1.74 5.116-.002 1.664-3.993 8.627c-2.138 5.589-4.019 11.276-6.007 17.314z"/><path fill="#bdab8b" d="M248.94 63.655c-1.034.67-2.127 1.005-3.566 1.339.129-2.424.948-4.056 3.566-1.339z"/><path fill="#c4b493" d="M241.334 90.945c.162-1.464.656-2.986 1.409-4.726-.186 1.41-.632 3.04-1.409 4.726z"/><path fill="#ae9f81" d="M244.682 64.997c-.447.986-1.225 1.97-2.344 2.981-.086-.776.168-1.581.557-2.678.575-.297 1.016-.302 1.788-.304z"/><path fill="#c4b493" d="M243.32 83.955c.136-.589.59-1.226 1.361-1.909-.136.589-.59 1.226-1.361 1.909z"/><path fill="#d4c7a9" d="M208.393 62.1c.425-2.288 1.241-4.477 2.689-6.806 1.394 5.218 2.794 10.576 2.797 15.935.01 15.379-.509 30.76-.9 46.138-.123 4.855-.85 9.722-.608 14.549.12 2.396 1.809 4.714 2.929 7.454.165 4.782.142 9.177.235 13.57.049 2.343.299 4.682.458 7.024l-.005.778c-.002.259-.477.265-1.001.467-1.01 1.728-1.496 3.255-1.982 4.782 0 0-.004.01-.258.01h-.752c-.664-1.567-1.896-3.13-1.907-4.702l-.084-55.834-.057-39.748c-.008-1.175-.756-2.344-1.553-3.616z"/><path fill="#cdc0a1" d="M211.857 166.31c.137-.31.635-.31.885-.307-.516 1.627-1.281 3.251-2.393 4.935.226-1.399.799-2.859 1.508-4.627z"/><path fill="#d2c4a5" d="M215.16 138.982c-.979-2.353-2.668-4.671-2.788-7.067-.242-4.827.484-9.693.608-14.549l.9-46.138c-.003-5.359-1.403-10.717-2.536-16.159 1.31-6.138 2.99-12.192 4.681-18.65.666 1.228 1.881 2.857 1.891 4.494l.161 64.176c.035 4.401 1.047 8.795 1.762 13.934.146 1.487.139 2.232.132 2.977 0 0 .032.003-.254.234a48.71 48.71 0 0 0-1.912 5.911l-2.645 10.837z"/><path d="M226.742 101.082c-.227 1.442-.713 2.981-1.482 4.723-.267-.863-.251-1.93-.215-3.395.492-.677.965-.954 1.697-1.327zm-3.013 8.136c.11.947-.048 2.134-.478 3.558-.112-.948.049-2.132.478-3.558z" fill="#ae9f81"/><path fill="#b2a287" d="M220.24 121.797c-.263-.542-.256-1.286-.238-2.402.01-.372.502-.394.747-.406.084.861-.077 1.733-.509 2.808z"/><path fill="#ae9f81" d="M224.735 106.188c.102.663-.057 1.538-.486 2.617-.105-.666.06-1.535.486-2.617z"/><path fill="#b2a287" d="M221.75 117.072c.076.397-.09.988-.514 1.756-.081-.403.096-.982.514-1.756z"/><path fill="#ae9f81" d="M222.754 113.143c.243.281.241.73-.002 1.516-.241.337-.716.334-.716.334.157-.56.315-1.121.718-1.85z"/><path fill="#b2a287" d="M222.017 115.257c.019-.265.494-.261.731-.262.048.269-.142.54-.551.933-.213-.054-.207-.23-.181-.672z"/><path fill="#ae9f81" d="M241.7 68.145c.067.97.027 2.183-.443 3.197l-13.988 29.449c1.361-5.205 3.002-10.625 4.691-16.412 3.176-5.605 6.305-10.844 9.74-16.234z"/><path d="M185.157 238.707c.543 1.513 1.354 3.066.891 3.958-.377.727-2.525 1.206-3.43.793-.828-.378-1.741-2.69-1.386-3.109.817-.965 2.381-1.298 3.925-1.641zm-52.169-.114c.211 1.731.496 3.4-.101 4.644-.269.56-2.453.651-3.478.237-.672-.272-1.351-2.525-1.124-2.697 1.325-1.002 2.916-1.652 4.704-2.185z"/><path fill="#b2a287" d="M215.3 139.369c.737-4.001 1.589-7.621 2.504-11.224a51.09 51.09 0 0 1 1.904-5.925c-.531 6.703-1.345 13.651-2.144 20.6-.204 1.776-.356 3.559-.506 5.781l-1.071 10.94c-.154-1.919-.404-4.258-.453-6.602l-.235-13.57z"/><path fill="#cdc0a1" d="M213.321 165.822c.17-1.359.656-2.886 1.428-4.61-.18 1.35-.646 2.896-1.428 4.61z"/></svg>