<svg version="1.1" id="Layer_1" xmlns="http://www.w3.org/2000/svg" xmlns:xlink="http://www.w3.org/1999/xlink" x="0px" y="0px"
	 width="100%" viewBox="0 0 302 328" enable-background="new 0 0 302 328" xml:space="preserve">
<path fill="#F7F7E9" opacity="1.000000" stroke="none" 
	d="
M156.983002,184.829071 
	C138.568222,183.020660 122.053879,189.277863 105.854843,196.878082 
	C105.624153,196.696213 105.189941,196.509216 105.194412,196.333374 
	C105.418167,187.537857 98.474007,182.157394 95.263138,175.043350 
	C90.778122,165.106323 87.514877,154.593292 84.089569,144.207748 
	C77.519241,124.286453 71.238243,104.269928 64.763260,84.316902 
	C62.202930,76.427116 63.454414,68.715149 65.535423,61.023273 
	C65.734207,60.288544 66.631088,59.742683 67.568596,59.447319 
	C68.613922,61.628983 69.184006,63.522743 69.995445,65.306717 
	C72.648552,71.139595 76.340477,76.686913 77.915932,82.787453 
	C82.391037,100.116028 85.945427,117.680679 90.026077,135.114044 
	C91.014130,139.335190 92.634186,143.408401 93.963623,147.549622 
	C94.309860,147.444290 94.656105,147.338943 95.002350,147.233597 
	C92.311737,131.164108 89.621124,115.094612 87.222687,98.753784 
	C87.264954,93.930321 87.209694,89.357391 86.726082,84.830223 
	C85.593918,74.231911 84.105675,63.669827 83.099808,53.061008 
	C82.821411,50.124794 82.130989,48.318169 78.796341,47.706974 
	C77.394707,46.828747 76.253693,46.235260 75.112686,45.641769 
	C75.112686,45.641769 75.244789,45.263668 75.724350,45.393852 
	C76.812271,44.765930 77.420631,44.007828 78.028984,43.249725 
	C84.569748,40.512775 91.080673,37.701603 97.658890,35.057838 
	C105.716698,31.819429 113.920044,28.929228 121.897736,25.508926 
	C131.570526,21.361879 141.512802,19.235502 152.509521,20.441612 
	C153.003876,21.185770 153.027481,21.574568 152.774841,22.218851 
	C152.498627,23.919750 152.498627,25.365164 152.498627,26.810577 
	C153.267151,26.744186 154.035675,26.677797 154.804199,26.611406 
	C154.522491,25.064508 154.240784,23.517611 153.978134,21.679379 
	C154.011719,20.999405 154.026245,20.610767 154.040771,20.222130 
	C156.400131,20.191181 158.759476,20.160233 161.550751,20.622410 
	C163.301392,27.050632 164.042053,32.984802 162.013901,38.929310 
	C161.912247,39.227245 162.015747,39.590874 161.998749,39.922634 
	C161.698669,45.780281 161.344070,51.636040 161.148972,57.497128 
	C161.121307,58.327946 161.865677,59.184464 162.201553,60.464005 
	C161.427094,71.443039 160.305405,81.979378 160.099380,92.533585 
	C159.915695,101.943558 160.744583,111.373291 161.169586,121.040298 
	C161.350204,121.603142 161.572235,121.841278 161.909332,122.429871 
	C162.644760,129.209015 163.349457,135.558990 164.038437,142.329758 
	C164.347626,145.833527 164.672531,148.916489 164.950989,152.316391 
	C164.269882,153.087051 163.635254,153.540771 162.563034,153.992493 
	C160.083633,153.985138 158.041824,153.979767 156.000000,153.507339 
	C156.000000,140.274536 156.000000,127.508804 156.000000,114.743065 
	C155.509521,114.744202 155.019058,114.745346 154.528580,114.746483 
	C154.019058,127.824089 153.509521,140.901688 152.625977,153.985657 
	C151.188156,154.089478 150.124344,154.186920 149.060532,154.284363 
	C149.074463,154.530563 149.088394,154.776749 149.102341,155.022934 
	C152.398224,155.022934 155.694122,155.022934 158.992950,155.461258 
	C158.673462,161.850845 157.941711,167.818619 158.180756,173.747238 
	C158.326233,177.355392 160.126724,180.939148 155.848450,183.317673 
	C156.226639,183.821472 156.604828,184.325272 156.983002,184.829071 
M91.943153,49.595356 
	C92.272339,50.046284 92.601524,50.497215 93.467262,51.332588 
	C94.344276,53.930660 95.221298,56.528732 96.296417,59.829617 
	C97.209648,63.351688 98.523117,66.824226 98.966263,70.404480 
	C100.803658,85.249176 102.217979,100.146942 104.119095,114.982742 
	C105.022217,122.030479 106.669617,128.982849 107.979836,135.978409 
	C108.559036,135.886337 109.138237,135.794250 109.717438,135.702164 
	C108.803680,119.804497 107.889923,103.906837 107.560371,87.412674 
	C107.355515,74.192131 107.229538,60.969151 106.820747,47.754917 
	C106.780960,46.468746 104.995247,45.236584 103.718750,43.343918 
	C101.478455,42.230122 99.238152,41.116322 96.165932,39.878387 
	C93.966965,40.638779 91.768005,41.399174 89.569038,42.159565 
	C90.376930,44.451630 91.184822,46.743698 92.008568,48.994736 
	C92.008568,48.994736 91.964745,48.990906 91.943153,49.595356 
M135.007431,27.004772 
	C135.007431,27.004772 134.995682,26.963297 134.284500,26.863045 
	C132.153397,29.311729 129.071594,31.432819 128.091171,34.278015 
	C126.115067,40.012695 124.412773,46.099579 124.123787,52.114494 
	C122.628441,83.238358 129.219696,113.222458 137.893280,142.848557 
	C138.158066,143.753006 138.836472,144.536331 139.322052,145.376129 
	C139.575531,145.271545 139.829025,145.166962 140.082520,145.062378 
	C138.922150,136.040405 137.761780,127.018448 137.306503,117.544785 
	C137.875305,113.362961 138.444122,109.181129 139.594376,104.914604 
	C139.905991,104.596680 140.217621,104.278748 140.529236,103.960823 
	C140.028580,103.641083 139.527939,103.321342 139.120300,102.203308 
	C141.751251,82.468628 144.382202,62.733948 147.594833,42.914463 
	C147.906143,42.595898 148.217453,42.277336 148.528763,41.958778 
	C148.026810,41.639633 147.524872,41.320488 147.011749,40.081638 
	C146.681442,36.013977 146.479126,31.930714 145.985657,27.882948 
	C145.468887,23.644253 142.450912,23.886786 139.395996,24.658405 
	C138.183746,24.964598 137.052490,25.591461 135.383926,26.182741 
	C135.244080,26.455971 135.104233,26.729198 135.007431,27.004772 
M155.976089,46.805458 
	C155.976089,42.712952 155.976089,38.620445 155.976089,33.263355 
	C152.782883,37.006676 152.104691,46.149368 153.976334,48.074718 
	C154.206314,48.311310 155.216217,47.789722 155.976089,46.805458 
M153.446289,73.850578 
	C153.899963,74.765709 154.353653,75.680847 154.807327,76.595985 
	C155.075256,76.495659 155.343201,76.395332 155.611145,76.295013 
	C155.234589,74.353775 154.858032,72.412537 154.481476,70.471298 
	C154.142578,70.508888 153.803696,70.546478 153.464798,70.584068 
	C153.376694,71.452347 153.288574,72.320633 153.446289,73.850578 
z"/>
<path fill="#EAE5D1" opacity="1.000000" stroke="none" 
	d="
M173.892395,21.276852 
	C176.663345,21.520668 179.434311,21.764484 182.668060,22.494703 
	C183.418839,24.266230 183.947830,25.549189 183.959366,26.836788 
	C184.212402,55.059856 184.700836,83.285515 184.500641,111.506119 
	C184.387360,127.475067 182.773956,143.429993 182.506790,159.402466 
	C182.335800,169.626236 183.388351,179.870453 183.892365,190.105515 
	C181.820343,189.455719 179.748322,188.805923 177.322266,187.578217 
	C176.645493,179.113770 176.072449,171.225952 176.113342,163.341324 
	C176.131775,159.788330 175.387207,157.324127 172.397522,155.993774 
	C174.119522,154.957733 176.590454,153.923569 176.591507,152.886902 
	C176.604355,140.182190 176.030136,127.476639 176.057755,114.772270 
	C176.091324,99.333656 176.599121,83.896606 176.810883,68.457634 
	C176.918655,60.600018 177.076309,52.726276 176.654846,44.889755 
	C176.546494,42.874977 174.330261,40.973564 173.184769,38.662560 
	C173.533356,35.561554 173.779541,32.818054 174.016617,29.596910 
	C173.969147,26.505129 173.930771,23.890991 173.892395,21.276852 
z"/>
<path fill="#5B473B" opacity="1.000000" stroke="none" 
	d="
M204.918732,282.960022 
	C209.059494,281.252716 212.786224,279.608093 216.630142,277.911774 
	C221.640152,285.879059 213.173477,299.821930 204.778168,303.096283 
	C192.116898,308.034576 180.234161,306.113434 168.925583,299.106873 
	C163.233109,295.579956 160.183151,287.693329 162.205109,281.412415 
	C163.774963,276.535828 168.034027,275.099091 172.395340,275.155914 
	C176.216827,275.205719 180.136749,276.203186 183.799927,277.422668 
	C187.212219,278.558594 190.200974,281.056061 193.638214,282.002716 
	C197.092041,282.953888 200.869217,282.731079 204.918732,282.960022 
z"/>
<path fill="#5B473B" opacity="1.000000" stroke="none" 
	d="
M108.267746,300.793640 
	C100.979103,296.329254 98.521133,288.947296 100.706764,278.050720 
	C101.895508,278.728394 103.079269,279.214447 104.039726,279.980499 
	C112.029648,286.353210 119.981720,283.891327 127.753189,279.714966 
	C132.921310,276.937653 137.987167,274.459534 144.130844,274.891510 
	C148.965012,275.231384 152.537720,277.195190 154.790100,281.442657 
	C157.247253,286.076202 155.623230,290.124298 152.653366,293.800385 
	C147.891693,299.694458 141.600616,303.102997 134.282089,304.798553 
	C125.201286,306.902374 116.559975,306.175690 108.267746,300.793640 
z"/>
<path fill="#E5DFC9" opacity="1.000000" stroke="none" 
	d="
M183.910889,190.079803 
	C183.388351,179.870453 182.335800,169.626236 182.506790,159.402466 
	C182.773956,143.429993 184.387360,127.475067 184.500641,111.506119 
	C184.700836,83.285515 184.212402,55.059856 183.959366,26.836788 
	C183.947830,25.549189 183.418839,24.266230 183.063324,22.579075 
	C185.758041,22.730301 188.520279,23.283558 191.627670,24.408695 
	C191.315643,27.524548 190.102905,30.065184 190.087601,32.613007 
	C189.942535,56.770855 189.970032,80.930069 190.085709,105.088234 
	C190.091965,106.395950 191.327316,107.697784 191.992950,109.451691 
	C191.666336,122.260933 191.337326,134.620834 191.002884,147.404236 
	C192.760559,154.551193 189.444885,161.086655 190.740417,168.046799 
	C192.325638,176.563202 189.372192,185.633560 192.965912,194.119217 
	C190.536362,193.131790 188.106796,192.144363 185.200180,190.818497 
	C184.482483,190.252853 184.198044,190.118073 183.869812,190.075745 
	C183.869812,190.075745 183.929413,190.054108 183.910889,190.079803 
z"/>
<path fill="#EFEBD9" opacity="1.000000" stroke="none" 
	d="
M171.998779,155.994507 
	C175.387207,157.324127 176.131775,159.788330 176.113342,163.341324 
	C176.072449,171.225952 176.645493,179.113770 176.981964,187.411667 
	C172.768036,187.168793 168.540390,186.514542 164.333069,185.216415 
	C168.204224,182.757950 166.102463,179.328506 166.281250,176.676071 
	C166.620972,171.635788 165.084763,166.078445 166.727448,161.620041 
	C168.586716,156.573868 166.578888,155.889709 163.000565,154.751801 
	C163.000549,154.331055 163.000580,154.162781 163.000610,153.994507 
	C163.635254,153.540771 164.269882,153.087051 165.243454,152.414337 
	C165.374176,148.786331 165.165955,145.377304 164.952576,141.501617 
	C165.277435,126.642342 165.205002,112.225952 166.053558,97.863976 
	C166.860184,84.212158 168.629654,70.617226 170.363983,57.090958 
	C171.501419,61.796970 172.812378,66.401596 172.875824,71.023346 
	C172.987015,79.125275 172.101471,87.236092 172.045685,95.346024 
	C171.906616,115.561333 171.999191,135.778244 171.998779,155.994507 
M169.572983,156.514633 
	C169.572983,156.514633 169.477600,156.568069 169.572983,156.514633 
z"/>
<path fill="#E0D6BD" opacity="1.000000" stroke="none" 
	d="
M193.113831,194.442581 
	C189.372192,185.633560 192.325638,176.563202 190.740417,168.046799 
	C189.444885,161.086655 192.760559,154.551193 191.285522,147.104370 
	C192.383728,135.689880 192.938400,124.971291 194.083420,114.316139 
	C195.030060,105.506866 196.674103,96.772530 198.400848,88.103394 
	C199.193970,89.206696 199.929962,90.205734 199.947647,91.217346 
	C200.345703,113.970207 200.727127,136.724014 200.887024,159.479233 
	C200.900620,161.412064 199.335999,163.356003 198.122757,166.185074 
	C198.310699,167.666275 198.756500,170.371964 198.980453,173.095886 
	C199.665359,181.426437 200.264984,189.764008 200.897781,198.098846 
	C198.352448,196.987869 195.807098,195.876907 193.113831,194.442581 
z"/>
<path fill="#DBCFB4" opacity="1.000000" stroke="none" 
	d="
M200.915009,198.070847 
	C200.264984,189.764008 199.665359,181.426437 198.980453,173.095886 
	C198.756500,170.371964 198.310699,167.666275 198.122757,166.185074 
	C199.335999,163.356003 200.900620,161.412064 200.887024,159.479233 
	C200.727127,136.724014 200.345703,113.970207 199.947647,91.217346 
	C199.929962,90.205734 199.193970,89.206696 198.371536,87.810425 
	C197.638046,86.954742 197.325562,86.490448 197.003036,85.671654 
	C197.333786,83.533691 197.674591,81.750229 198.324768,79.824036 
	C200.730484,76.110641 202.826828,72.539978 205.224060,69.263931 
	C205.682831,70.527802 206.007233,71.502716 205.974518,72.465485 
	C204.877350,104.744118 207.927948,137.065430 204.403320,169.352539 
	C203.263351,179.795197 204.704407,190.519638 204.964813,201.115173 
	C204.046936,200.653839 203.129074,200.192505 201.974213,199.195099 
	C201.447693,198.459290 201.158157,198.259567 200.868637,198.059845 
	C200.868637,198.059845 200.932236,198.042847 200.915009,198.070847 
z"/>
<path fill="#5B483D" opacity="1.000000" stroke="none" 
	d="
M80.785492,258.086792 
	C72.220802,254.145752 64.042221,250.240219 55.815624,246.438599 
	C52.661335,244.980972 51.934502,242.327072 53.673149,239.962677 
	C55.909542,236.921417 58.714367,233.993149 61.896160,232.017853 
	C67.874359,228.306534 74.290009,225.297241 80.544228,222.035278 
	C81.842308,221.358246 83.281464,220.275696 84.564476,220.391312 
	C86.979553,220.608932 89.328262,221.563095 91.704559,222.211044 
	C90.506851,224.152222 89.757385,226.809235 88.023872,227.894714 
	C83.571228,230.682831 78.611298,232.645676 73.995354,235.194153 
	C71.468094,236.589478 69.227158,238.503403 65.786552,240.942368 
	C74.868843,245.262177 82.889435,248.901581 90.716789,252.917633 
	C92.793472,253.983139 94.562294,256.022308 95.845703,258.017578 
	C96.200272,258.568817 94.443497,261.557983 93.401443,261.712189 
	C90.914772,262.080231 88.194748,261.732758 85.728333,261.075836 
	C84.062660,260.632233 82.668221,259.170227 80.785492,258.086792 
z"/>
<path fill="#C1AF90" opacity="1.000000" stroke="none" 
	d="
M243.126404,45.943295 
	C247.352188,50.385216 251.577988,54.827137 255.539566,59.608658 
	C251.620804,59.741570 250.842316,61.868408 250.978714,64.995461 
	C251.373596,74.048820 251.698151,83.105629 251.983521,92.163185 
	C252.087631,95.467834 251.676102,98.825150 252.138992,102.067184 
	C252.382370,103.771835 254.005005,105.279556 254.729553,106.436630 
	C257.398865,104.065620 259.122162,102.534935 260.845428,101.004257 
	C259.150848,104.253822 257.456268,107.503387 255.175873,111.060944 
	C254.429504,111.956406 254.268997,112.543869 254.108490,113.131332 
	C254.108475,113.131332 254.049301,113.047401 253.850494,113.160599 
	C253.462875,113.566978 253.274063,113.860161 253.085251,114.153351 
	C253.085251,114.153351 253.066315,114.055519 252.746201,114.105789 
	C251.980637,115.143097 251.535172,116.130119 251.089722,117.117149 
	C251.089722,117.117149 251.042877,117.037498 250.843292,117.153801 
	C250.453323,117.561066 250.262955,117.852020 250.072601,118.142975 
	C250.072601,118.142982 250.063019,118.046753 249.834503,118.206680 
	C249.438126,118.953865 249.270294,119.541130 249.102463,120.128395 
	C249.102463,120.128395 249.052063,120.044960 248.851685,120.158249 
	C248.458527,120.562035 248.265747,120.852516 248.072968,121.143005 
	C248.072968,121.143005 248.054565,121.049675 247.733276,121.051758 
	C245.934662,122.074684 244.457336,123.095528 242.700272,124.309677 
	C242.700272,123.224648 242.720001,122.335136 242.696777,121.446754 
	C242.606781,118.004959 242.503967,114.563499 242.404266,111.121956 
	C242.313416,107.985191 242.333344,104.839905 242.095444,101.714279 
	C241.873489,98.798332 241.376511,95.903313 241.000656,92.666252 
	C241.001282,91.889618 241.001862,91.445824 241.333557,90.944778 
	C242.110535,89.258446 242.556412,87.629349 243.002136,85.667152 
	C243.002335,84.889938 243.002686,84.445824 243.320190,83.954559 
	C244.090942,83.271065 244.544556,82.634705 245.006302,81.609039 
	C246.342255,75.476349 247.670090,69.732948 248.940277,63.655289 
	C246.322861,60.937416 245.503876,62.569710 245.019775,64.993988 
	C245.012161,64.995804 245.013412,64.999519 244.682419,64.996811 
	C243.910599,64.998886 243.469772,65.003662 242.664169,64.927414 
	C242.299393,62.236134 242.299393,59.625893 242.299393,55.657227 
	C240.225510,53.393837 241.628723,49.670139 243.126404,45.943295 
z"/>
<path fill="#D7CBAE" opacity="1.000000" stroke="none" 
	d="
M205.114014,201.431244 
	C204.704407,190.519638 203.263351,179.795197 204.403320,169.352539 
	C207.927948,137.065430 204.877350,104.744118 205.974518,72.465485 
	C206.007233,71.502716 205.682831,70.527802 205.253021,68.907318 
	C205.987625,66.170845 206.994186,64.085609 208.392761,62.099701 
	C209.189377,63.371006 209.938278,64.540779 209.945816,65.715294 
	C210.030731,78.964142 210.003159,92.213730 210.003281,105.463112 
	C210.003448,124.074806 209.953644,142.686844 210.086899,161.297577 
	C210.098145,162.869537 211.329422,164.432739 211.857361,166.309723 
	C211.148254,168.078552 210.575653,169.537689 209.945129,171.410736 
	C208.588455,179.496170 207.485611,187.140198 212.979706,193.858307 
	C212.429642,194.841354 211.339020,195.872070 211.420807,196.799408 
	C211.829208,201.430786 209.514816,203.393997 205.114014,201.431244 
z"/>
<path fill="#5B483E" opacity="1.000000" stroke="none" 
	d="
M238.593872,233.261688 
	C235.016373,231.968903 231.757233,230.872955 228.514389,229.730774 
	C226.953979,229.181183 225.094803,228.905548 223.955048,227.865646 
	C222.075745,226.151016 220.670471,223.916870 219.065399,221.901703 
	C221.695160,221.102310 224.930099,218.905563 226.852982,219.738342 
	C236.719513,224.011444 247.851868,226.288132 255.120071,235.947784 
	C254.200439,237.320404 253.512192,239.205582 252.166885,240.215454 
	C243.888687,246.429642 235.564407,252.597504 226.992844,258.392303 
	C225.403931,259.466522 222.619019,258.771576 220.386093,258.893127 
	C221.142792,256.875671 221.319229,254.147141 222.761673,252.969986 
	C227.688522,248.949387 232.932068,245.272736 238.300125,241.849609 
	C243.376770,238.612305 243.610977,237.575043 238.593872,233.261688 
z"/>
<path fill="#BDAB8B" opacity="1.000000" stroke="none" 
	d="
M260.919189,100.624451 
	C259.122162,102.534935 257.398865,104.065620 254.729553,106.436630 
	C254.005005,105.279556 252.382370,103.771835 252.138992,102.067184 
	C251.676102,98.825150 252.087631,95.467834 251.983521,92.163185 
	C251.698151,83.105629 251.373596,74.048820 250.978714,64.995461 
	C250.842316,61.868408 251.620804,59.741570 255.693192,59.909306 
	C256.111023,59.870346 256.068726,59.913631 256.140259,60.118481 
	C256.356659,60.630863 256.585083,60.852184 256.897034,60.987297 
	C256.897034,60.987297 257.014008,61.410034 257.025909,62.000751 
	C257.742523,63.374508 258.447205,64.157547 259.151917,64.940582 
	C259.486603,64.949234 259.745331,65.093788 260.067291,65.832710 
	C260.350952,66.608276 260.581299,66.840210 260.897430,66.986977 
	C260.897430,66.986977 261.016968,67.407768 261.027588,67.996552 
	C261.738983,69.356903 262.439728,70.128479 263.140472,70.900063 
	C263.140472,70.900063 263.058289,70.955574 263.136597,71.141464 
	C263.361389,71.634743 263.591339,71.855087 263.904694,71.988380 
	C263.904694,71.988380 264.029266,72.395119 264.117249,72.844383 
	C264.348938,73.607430 264.576874,73.838028 264.888977,73.985451 
	C269.476898,80.902367 265.871429,87.602432 264.182434,94.275375 
	C263.645142,96.398232 262.085022,98.262215 260.919189,100.624451 
z"/>
<path fill="#CEBF9E" opacity="1.000000" stroke="none" 
	d="
M224.171585,32.943291 
	C225.079803,33.415562 225.988007,33.887829 226.596191,34.686974 
	C225.572876,35.559532 224.619598,35.970016 224.195435,36.691536 
	C223.822708,37.325558 224.017487,38.307549 224.004333,39.136528 
	C223.688202,59.049053 223.347153,78.961365 223.153564,98.875107 
	C223.143463,99.913773 224.398026,100.964737 225.044769,102.409157 
	C225.009491,103.874886 224.993271,104.941429 224.991364,106.005630 
	C225.005707,106.003296 224.996262,105.975830 224.735443,106.188217 
	C224.309174,107.269791 224.143723,108.138977 223.991959,109.005798 
	C224.005630,109.003448 223.996628,108.977203 223.728760,109.217667 
	C223.299789,110.642776 223.138702,111.827408 222.991547,113.007446 
	C223.005478,113.002846 222.999054,112.974190 222.753815,113.142822 
	C222.351105,113.871948 222.193604,114.432434 222.016663,115.257462 
	C221.990631,115.698723 221.984070,115.875435 221.976990,116.258743 
	C221.976471,116.465332 221.991531,116.878235 221.750061,117.072380 
	C221.332062,117.845963 221.155533,118.425400 220.992035,119.002876 
	C221.005066,119.000916 220.994690,118.976631 220.749069,118.988342 
	C220.503448,119.000061 220.012146,119.022858 219.848831,118.651901 
	C219.123672,113.883850 218.111206,109.490326 218.076401,105.089066 
	C217.907181,83.697998 218.042618,62.304615 217.914917,40.912979 
	C217.905136,39.276737 216.690445,37.647697 215.915634,35.792496 
	C215.526443,35.372101 215.257431,35.174519 215.125397,34.676468 
	C218.232101,33.898430 221.201843,33.420860 224.171585,32.943291 
z"/>
<path fill="#E2DAC2" opacity="1.000000" stroke="none" 
	d="
M198.015396,79.966759 
	C197.674591,81.750229 197.333786,83.533691 196.774551,85.962746 
	C196.032104,87.574524 195.206360,88.489761 195.033203,89.515205 
	C193.938492,95.997330 192.988358,102.503868 191.990509,109.002350 
	C191.327316,107.697784 190.091965,106.395950 190.085709,105.088234 
	C189.970032,80.930069 189.942535,56.770855 190.087601,32.613007 
	C190.102905,30.065184 191.315643,27.524548 191.984589,24.596071 
	C192.753052,24.152620 193.509766,24.093676 194.779022,24.283978 
	C195.516464,24.764780 195.788544,24.904600 196.107773,24.952684 
	C196.107773,24.952684 196.562057,25.032000 196.764862,25.520267 
	C196.645111,28.797691 196.058670,31.585640 196.045929,34.376209 
	C195.992188,46.137161 196.014786,57.900726 196.241379,69.658867 
	C196.288818,72.120552 197.318665,74.563316 197.918549,77.383652 
	C197.965988,78.490585 197.990692,79.228676 198.015396,79.966759 
z"/>
<path fill="#C9B997" opacity="1.000000" stroke="none" 
	d="
M225.063812,102.009979 
	C224.398026,100.964737 223.143463,99.913773 223.153564,98.875107 
	C223.347153,78.961365 223.688202,59.049053 224.004333,39.136528 
	C224.017487,38.307549 223.822708,37.325558 224.195435,36.691536 
	C224.619598,35.970016 225.572876,35.559532 226.717346,34.980431 
	C227.138519,34.947006 227.587738,35.000748 227.940704,35.264427 
	C228.535446,35.753571 228.819550,35.892410 229.145996,35.944626 
	C231.015823,37.063030 232.885651,38.181435 234.732498,39.924721 
	C233.473053,43.248283 231.334396,45.893410 231.170425,48.655750 
	C230.691467,56.724407 230.898956,64.841690 231.046326,72.936111 
	C231.113617,76.632843 231.671387,80.320641 231.960144,84.379120 
	C230.271698,90.166077 228.629807,95.586411 226.994873,101.003830 
	C227.001846,101.000923 227.000137,100.985924 226.741699,101.081970 
	C226.010132,101.455330 225.536972,101.732651 225.063812,102.009979 
z"/>
<path fill="#AA9B7E" opacity="1.000000" stroke="none" 
	d="
M86.930519,99.025124 
	C89.621124,115.094612 92.311737,131.164108 95.002350,147.233597 
	C94.656105,147.338943 94.309860,147.444290 93.963623,147.549622 
	C92.634186,143.408401 91.014130,139.335190 90.026077,135.114044 
	C85.945427,117.680679 82.391037,100.116028 77.915932,82.787453 
	C76.340477,76.686913 72.648552,71.139595 69.995445,65.306717 
	C69.184006,63.522743 68.613922,61.628983 67.965332,59.401436 
	C68.136368,58.080639 68.275375,57.143902 69.051147,56.293430 
	C71.678169,58.303501 73.668419,60.227303 75.869827,62.429131 
	C78.388618,67.898277 81.293976,72.917145 82.852333,78.324211 
	C84.792793,85.057053 85.621643,92.110260 86.930519,99.025124 
z"/>
<path fill="#C5B593" opacity="1.000000" stroke="none" 
	d="
M232.006699,84.012489 
	C231.671387,80.320641 231.113617,76.632843 231.046326,72.936111 
	C230.898956,64.841690 230.691467,56.724407 231.170425,48.655750 
	C231.334396,45.893410 233.473053,43.248283 234.878113,40.228722 
	C237.651672,41.705734 240.256638,43.503632 242.994003,45.622410 
	C241.628723,49.670139 240.225510,53.393837 242.299393,55.657227 
	C242.299393,59.625893 242.299393,62.236134 242.530121,65.219460 
	C242.506180,66.397217 242.251511,67.201881 241.998413,68.003128 
	C242.000000,67.999695 242.005966,67.994919 241.700027,68.145493 
	C238.264954,73.534866 235.135818,78.773674 232.006699,84.012489 
z"/>
<path fill="#5B483E" opacity="1.000000" stroke="none" 
	d="
M190.109512,230.531921 
	C195.960190,233.985947 195.258881,239.413193 194.819901,244.399185 
	C194.489807,248.148483 192.416229,251.541107 188.306519,252.187210 
	C185.715103,252.594604 182.623566,252.522644 180.311768,251.458786 
	C175.074081,249.048523 171.312286,235.221664 179.320435,230.885345 
	C182.097931,229.381363 186.253525,230.422379 190.109512,230.531921 
M184.874008,238.461578 
	C183.613144,239.050797 182.049225,239.383423 181.232269,240.348450 
	C180.877716,240.767212 181.790497,243.079544 182.618240,243.457596 
	C183.523132,243.870850 185.670425,243.392319 186.047897,242.664978 
	C186.510849,241.772964 185.700500,240.220139 184.874008,238.461578 
z"/>
<path fill="#C4B493" opacity="1.000000" stroke="none" 
	d="
M241.000610,92.999084 
	C241.376511,95.903313 241.873489,98.798332 242.095444,101.714279 
	C242.333344,104.839905 242.313416,107.985191 242.404266,111.121956 
	C242.503967,114.563499 242.606781,118.004959 242.696777,121.446754 
	C242.720001,122.335136 242.700272,123.224648 242.700272,124.309677 
	C244.457336,123.095528 245.934662,122.074684 247.773682,121.076836 
	C246.007401,124.321190 243.879395,127.542549 241.069489,130.931366 
	C239.619644,132.436630 238.851700,133.774429 238.083755,135.112228 
	C238.083755,135.112228 238.031250,135.013565 237.714844,135.058517 
	C235.915863,135.974167 234.433289,136.844849 232.199280,138.156860 
	C232.199280,135.905533 232.296875,134.358231 232.181000,132.827087 
	C231.831924,128.214355 231.399780,123.607933 231.000732,118.607101 
	C232.988892,112.568710 234.869736,106.881500 237.008087,101.292816 
	C238.100754,98.437103 239.654984,95.758003 241.000610,92.999084 
z"/>
<path fill="#5B483E" opacity="1.000000" stroke="none" 
	d="
M121.663315,242.336700 
	C120.537132,235.907883 123.454330,230.548264 128.020996,229.959885 
	C135.705200,228.969833 140.623260,231.623611 141.098495,237.016479 
	C142.000565,247.252823 139.035156,252.560287 132.165253,253.005066 
	C125.760643,253.419724 122.188133,249.861069 121.663315,242.336700 
M132.701904,238.357574 
	C131.200348,239.126175 129.608490,239.775436 128.283905,240.777878 
	C128.056564,240.949936 128.735397,243.202850 129.407852,243.474640 
	C130.432816,243.888931 132.617111,243.797607 132.886230,243.237442 
	C133.483978,241.993118 133.198624,240.324554 132.701904,238.357574 
z"/>
<path fill="#DED4BB" opacity="1.000000" stroke="none" 
	d="
M197.895798,77.014801 
	C197.318665,74.563316 196.288818,72.120552 196.241379,69.658867 
	C196.014786,57.900726 195.992188,46.137161 196.045929,34.376209 
	C196.058670,31.585640 196.645111,28.797691 196.981964,25.597893 
	C198.737122,25.467293 200.477936,25.747335 202.605682,26.518885 
	C201.853455,37.058773 200.533997,47.113365 204.007111,57.384933 
	C201.957825,64.183319 199.926804,70.599060 197.895798,77.014801 
z"/>
<path fill="#F2EEDD" opacity="1.000000" stroke="none" 
	d="
M173.640060,21.196859 
	C173.930771,23.890991 173.969147,26.505129 173.878326,29.911423 
	C169.916992,40.478748 166.084869,50.253918 162.252731,60.029091 
	C161.865677,59.184464 161.121307,58.327946 161.148972,57.497128 
	C161.344070,51.636040 161.698669,45.780281 161.998749,39.922634 
	C162.015747,39.590874 161.912247,39.227245 162.013901,38.929310 
	C164.042053,32.984802 163.301392,27.050632 161.984680,20.711403 
	C164.032059,20.225887 166.077454,20.144501 168.670197,20.488049 
	C170.084564,21.029356 170.951569,21.145731 171.818558,21.262108 
	C172.341614,21.213696 172.864670,21.165281 173.640060,21.196859 
z"/>
<path fill="#CDC0A1" opacity="1.000000" stroke="none" 
	d="
M227.108139,154.124374 
	C225.003860,163.632858 222.899582,173.141327 220.084900,182.794235 
	C218.299026,181.331192 216.351410,179.744308 216.312927,178.112381 
	C216.200912,173.361816 216.927200,168.596558 217.140884,163.828827 
	C217.182281,162.904984 216.392349,161.943909 215.987442,160.740631 
	C215.990280,160.308350 215.991562,160.135437 215.988098,159.540680 
	C216.350906,155.760284 216.718475,152.401749 217.417542,148.972321 
	C218.830673,147.265640 219.912308,145.629883 221.365082,144.046906 
	C222.284271,145.846954 223.544083,147.733093 223.235764,149.313263 
	C222.542664,152.865662 223.597809,154.297531 227.108139,154.124374 
z"/>
<path fill="#C8B999" opacity="1.000000" stroke="none" 
	d="
M227.086578,154.103134 
	C223.597809,154.297531 222.542664,152.865662 223.235764,149.313263 
	C223.544083,147.733093 222.284271,145.846954 221.373703,143.666718 
	C224.340805,135.155502 227.670395,127.077278 231.000000,118.999054 
	C231.399780,123.607933 231.831924,128.214355 232.181000,132.827087 
	C232.296875,134.358231 232.199280,135.905533 232.199280,138.156860 
	C234.433289,136.844849 235.915863,135.974167 237.759155,135.092545 
	C236.709457,137.614197 235.344055,140.173233 233.876099,142.672043 
	C232.357864,145.256409 230.740067,147.782288 228.821838,150.812958 
	C228.247589,151.541443 228.109009,151.834122 228.062088,152.170212 
	C228.062088,152.170212 228.021469,152.599426 227.755798,152.936813 
	C227.255508,153.516449 227.118774,153.805069 227.079926,154.140060 
	C227.079926,154.140060 227.065033,154.081894 227.086578,154.103134 
z"/>
<path fill="#F4F3E4" opacity="1.000000" stroke="none" 
	d="
M163.000610,155.004272 
	C166.578888,155.889709 168.586716,156.573868 166.727448,161.620041 
	C165.084763,166.078445 166.620972,171.635788 166.281250,176.676071 
	C166.102463,179.328506 168.204224,182.757950 164.151489,184.846924 
	C161.914520,185.073975 159.879440,185.026627 157.413696,184.904175 
	C156.604828,184.325272 156.226639,183.821472 155.848450,183.317673 
	C160.126724,180.939148 158.326233,177.355392 158.180756,173.747238 
	C157.941711,167.818619 158.673462,161.850845 159.394226,155.454254 
	C160.861923,155.007370 161.931274,155.005814 163.000610,155.004272 
z"/>
<path fill="#D3C5A9" opacity="1.000000" stroke="none" 
	d="
M215.985901,161.000000 
	C216.392349,161.943909 217.182281,162.904984 217.140884,163.828827 
	C216.927200,168.596558 216.200912,173.361816 216.312927,178.112381 
	C216.351410,179.744308 218.299026,181.331192 219.741745,182.987808 
	C219.244125,187.432159 218.480667,191.886673 213.340393,193.925201 
	C207.485611,187.140198 208.588455,179.496170 210.291412,171.351013 
	C211.460800,169.253098 212.226013,167.628845 212.995621,166.001846 
	C213.000000,165.999100 213.004456,165.989426 213.320740,165.821808 
	C214.102829,164.107956 214.568634,162.561691 215.272278,161.010620 
	C215.510132,161.005814 215.985901,161.000000 215.985901,161.000000 
z"/>
<path fill="#D9CEB3" opacity="1.000000" stroke="none" 
	d="
M204.025360,57.002293 
	C200.533997,47.113365 201.853455,37.058773 202.993927,26.593056 
	C204.897980,26.519768 206.800659,26.863819 208.813950,27.958729 
	C208.169327,33.562149 206.062454,38.520184 209.988708,43.365555 
	C207.966782,48.152546 205.996078,52.577419 204.025360,57.002293 
z"/>
<path fill="#5C4D45" opacity="1.000000" stroke="none" 
	d="
M144.647949,217.189575 
	C144.946075,218.376038 145.030487,219.286072 145.114899,220.196106 
	C144.262909,220.124847 143.043915,220.391983 142.616898,219.928879 
	C139.152756,216.171921 135.573776,217.058182 131.405731,218.783844 
	C127.251732,220.503693 122.789886,222.145035 118.147621,219.966309 
	C115.151398,218.560104 113.584892,216.587112 114.912888,213.228119 
	C115.720848,213.228119 116.224487,213.097992 116.328300,213.246780 
	C121.416443,220.539978 127.615585,215.984848 133.024124,214.293030 
	C137.788391,212.802795 141.236298,213.366730 144.647949,217.189575 
z"/>
<path fill="#D4C8AD" opacity="1.000000" stroke="none" 
	d="
M210.039932,43.003441 
	C206.062454,38.520184 208.169327,33.562149 208.990326,28.290186 
	C209.495804,27.914829 209.935501,27.958874 210.833801,28.268414 
	C211.528442,28.753490 211.804474,28.895264 212.120468,28.959223 
	C216.019623,30.052282 219.918777,31.145342 223.994751,32.590843 
	C221.201843,33.420860 218.232101,33.898430 214.977631,34.983047 
	C213.141922,38.061214 211.590927,40.532330 210.039932,43.003441 
z"/>
<path fill="#E4D9C8" opacity="1.000000" stroke="none" 
	d="
M75.658669,62.151104 
	C73.668419,60.227303 71.678169,58.303501 69.401970,56.203751 
	C70.927193,52.662056 72.738373,49.296307 74.831116,45.786163 
	C76.253693,46.235260 77.394707,46.828747 78.428391,47.750343 
	C73.562508,50.531544 73.202721,52.158878 75.601395,58.056961 
	C76.080353,59.234653 75.662827,60.776936 75.658669,62.151104 
z"/>
<path fill="#5C4D45" opacity="1.000000" stroke="none" 
	d="
M163.640778,267.724976 
	C165.526108,267.204254 167.084442,266.882538 169.337662,266.417419 
	C166.778595,270.276245 164.281586,273.192383 159.960800,272.223846 
	C157.493118,271.670715 155.288940,269.941864 153.643402,267.924011 
	C156.866852,267.924011 160.090317,267.924011 163.640778,267.724976 
z"/>
<path fill="#C8B999" opacity="1.000000" stroke="none" 
	d="
M238.392944,134.983902 
	C238.851700,133.774429 239.619644,132.436630 240.756714,131.072296 
	C240.317932,132.315720 239.510040,133.585648 238.392944,134.983902 
z"/>
<path fill="#E4D9C8" opacity="1.000000" stroke="none" 
	d="
M77.756668,43.189430 
	C77.420631,44.007828 76.812271,44.765930 75.911087,45.321518 
	C76.240295,44.455715 76.862328,43.792427 77.756668,43.189430 
z"/>
<path fill="#C1AF90" opacity="1.000000" stroke="none" 
	d="
M263.096863,70.568756 
	C262.439728,70.128479 261.738983,69.356903 261.050262,68.214096 
	C261.725922,68.641060 262.389587,69.439262 263.096863,70.568756 
z"/>
<path fill="#C4B493" opacity="1.000000" stroke="none" 
	d="
M251.384293,116.981445 
	C251.535172,116.130119 251.980637,115.143097 252.787521,114.133636 
	C252.658920,115.022720 252.168884,115.934235 251.384293,116.981445 
z"/>
<path fill="#C1AF90" opacity="1.000000" stroke="none" 
	d="
M259.090332,64.613083 
	C258.447205,64.157547 257.742523,63.374508 257.048431,62.218910 
	C257.715637,62.659424 258.372192,63.472500 259.090332,64.613083 
z"/>
<path fill="#EAE5D1" opacity="1.000000" stroke="none" 
	d="
M171.549622,21.072298 
	C170.951569,21.145731 170.084564,21.029356 169.105331,20.551373 
	C169.755630,20.420673 170.518158,20.651581 171.549622,21.072298 
z"/>
<path fill="#D2D0C7" opacity="1.000000" stroke="none" 
	d="
M153.771179,20.129856 
	C154.026245,20.610767 154.011719,20.999405 153.751251,21.684177 
	C153.505310,21.980314 153.051071,21.963366 153.051071,21.963366 
	C153.027481,21.574568 153.003876,21.185770 152.969925,20.505306 
	C153.140244,20.154955 153.320908,20.096270 153.771179,20.129856 
z"/>
<path fill="#C4B493" opacity="1.000000" stroke="none" 
	d="
M249.384247,119.988686 
	C249.270294,119.541130 249.438126,118.953865 249.882599,118.211700 
	C249.994812,118.654190 249.830429,119.251579 249.384247,119.988686 
z"/>
<path fill="#C4B493" opacity="1.000000" stroke="none" 
	d="
M254.385925,112.984070 
	C254.268997,112.543869 254.429504,111.956406 254.858215,111.205116 
	C254.972061,111.639801 254.817703,112.238304 254.385925,112.984070 
z"/>
<path fill="#E0D6BD" opacity="1.000000" stroke="none" 
	d="
M200.953033,198.322662 
	C201.158157,198.259567 201.447693,198.459290 201.844681,198.905167 
	C201.647247,198.962692 201.342346,198.774094 200.953033,198.322662 
z"/>
<path fill="#DED4BB" opacity="1.000000" stroke="none" 
	d="
M196.031693,24.691166 
	C195.788544,24.904600 195.516464,24.764780 195.155365,24.344460 
	C195.331329,24.247013 195.643463,24.338331 196.031693,24.691166 
z"/>
<path fill="#D9CEB3" opacity="1.000000" stroke="none" 
	d="
M212.035431,28.703686 
	C211.804474,28.895264 211.528442,28.753490 211.157761,28.341228 
	C211.332199,28.248415 211.641296,28.348280 212.035431,28.703686 
z"/>
<path fill="#CEBF9E" opacity="1.000000" stroke="none" 
	d="
M229.054764,35.687653 
	C228.819550,35.892410 228.535446,35.753571 228.156967,35.330818 
	C228.334671,35.232578 228.649109,35.331635 229.054764,35.687653 
z"/>
<path fill="#C1AF90" opacity="1.000000" stroke="none" 
	d="
M256.932098,60.714478 
	C256.585083,60.852184 256.356659,60.630863 256.146240,60.089138 
	C256.376160,60.050514 256.671661,60.246086 256.932098,60.714478 
z"/>
<path fill="#C1AF90" opacity="1.000000" stroke="none" 
	d="
M260.928162,66.709961 
	C260.581299,66.840210 260.350952,66.608276 260.137878,66.051437 
	C260.365875,66.018799 260.662384,66.225876 260.928162,66.709961 
z"/>
<path fill="#C1AF90" opacity="1.000000" stroke="none" 
	d="
M263.934570,71.716003 
	C263.591339,71.855087 263.361389,71.634743 263.147949,71.093193 
	C263.375519,71.053902 263.669983,71.248756 263.934570,71.716003 
z"/>
<path fill="#C1AF90" opacity="1.000000" stroke="none" 
	d="
M264.918152,73.711136 
	C264.576874,73.838028 264.348938,73.607430 264.136627,73.056190 
	C264.361145,73.024765 264.654205,73.230797 264.918152,73.711136 
z"/>
<path fill="#EAE5D1" opacity="1.000000" stroke="none" 
	d="
M183.948120,190.342529 
	C184.198044,190.118073 184.482483,190.252853 184.854614,190.679871 
	C184.666229,190.789566 184.346329,190.699448 183.948120,190.342529 
z"/>
<path fill="#C4B493" opacity="1.000000" stroke="none" 
	d="
M253.345093,114.069336 
	C253.274063,113.860161 253.462875,113.566978 253.900009,113.174187 
	C253.967194,113.378166 253.786057,113.681747 253.345093,114.069336 
z"/>
<path fill="#C4B493" opacity="1.000000" stroke="none" 
	d="
M250.326355,118.049797 
	C250.262955,117.852020 250.453323,117.561066 250.888153,117.164810 
	C250.948456,117.358543 250.764282,117.657585 250.326355,118.049797 
z"/>
<path fill="#CDC0A1" opacity="1.000000" stroke="none" 
	d="
M227.343231,154.056412 
	C227.118774,153.805069 227.255508,153.516449 227.694992,153.143616 
	C227.802078,153.332947 227.704315,153.652863 227.343231,154.056412 
z"/>
<path fill="#CDC0A1" opacity="1.000000" stroke="none" 
	d="
M228.324982,152.076553 
	C228.109009,151.834122 228.247589,151.541443 228.681671,151.154510 
	C228.786270,151.338867 228.687073,151.660889 228.324982,152.076553 
z"/>
<path fill="#C4B493" opacity="1.000000" stroke="none" 
	d="
M248.329788,121.055359 
	C248.265747,120.852516 248.458527,120.562035 248.898773,120.170792 
	C248.959717,120.369270 248.773163,120.668503 248.329788,121.055359 
z"/>
<path fill="#ECE2D2" opacity="1.000000" stroke="none" 
	d="
M139.012939,104.999298 
	C138.444122,109.181129 137.875305,113.362961 136.765808,117.463501 
	C134.914520,109.404152 133.522751,101.438362 132.313934,93.444916 
	C130.808456,83.489616 129.085342,73.546776 128.126755,63.534367 
	C126.905296,50.776211 129.447311,38.542316 134.995682,26.963297 
	C134.995682,26.963297 135.007431,27.004772 135.214996,26.936638 
	C135.718277,26.685337 135.872208,26.419943 135.884369,26.072325 
	C137.052490,25.591461 138.183746,24.964598 139.395996,24.658405 
	C142.450912,23.886786 145.468887,23.644253 145.985657,27.882948 
	C146.479126,31.930714 146.681442,36.013977 147.008362,40.874390 
	C147.007706,42.111183 147.010422,42.555225 147.013153,42.999268 
	C144.382202,62.733948 141.751251,82.468628 139.063797,102.935287 
	C139.009171,104.111275 139.011047,104.555290 139.012939,104.999298 
z"/>
<path fill="#B6A98D" opacity="1.000000" stroke="none" 
	d="
M134.640091,26.913170 
	C129.447311,38.542316 126.905296,50.776211 128.126755,63.534367 
	C129.085342,73.546776 130.808456,83.489616 132.313934,93.444916 
	C133.522751,101.438362 134.914520,109.404152 136.413254,117.689346 
	C137.761780,127.018448 138.922150,136.040405 140.082520,145.062378 
	C139.829025,145.166962 139.575531,145.271545 139.322052,145.376129 
	C138.836472,144.536331 138.158066,143.753006 137.893280,142.848557 
	C129.219696,113.222458 122.628441,83.238358 124.123787,52.114494 
	C124.412773,46.099579 126.115067,40.012695 128.091171,34.278015 
	C129.071594,31.432819 132.153397,29.311729 134.640091,26.913170 
z"/>
<path fill="#CABEA3" opacity="1.000000" stroke="none" 
	d="
M162.201553,60.464005 
	C166.084869,50.253918 169.916992,40.478748 173.887421,30.389065 
	C173.779541,32.818054 173.533356,35.561554 173.097870,39.057632 
	C171.930984,45.539234 170.953384,51.268261 169.975769,56.997284 
	C168.629654,70.617226 166.860184,84.212158 166.053558,97.863976 
	C165.205002,112.225952 165.277435,126.642342 164.726501,141.492798 
	C164.505569,141.950653 164.054153,141.908951 164.054153,141.908951 
	C163.349457,135.558990 162.644760,129.209015 161.864487,122.187027 
	C161.650360,121.199249 161.429596,120.959015 161.126617,120.794304 
	C160.744583,111.373291 159.915695,101.943558 160.099380,92.533585 
	C160.305405,81.979378 161.427094,71.443039 162.201553,60.464005 
z"/>
<path fill="#AA9B7E" opacity="1.000000" stroke="none" 
	d="
M106.976181,88.009171 
	C107.889923,103.906837 108.803680,119.804497 109.717438,135.702164 
	C109.138237,135.794250 108.559036,135.886337 107.979836,135.978409 
	C106.669617,128.982849 105.022217,122.030479 104.119095,114.982742 
	C102.217979,100.146942 100.803658,85.249176 98.966263,70.404480 
	C98.523117,66.824226 97.209648,63.351688 96.544662,59.459541 
	C98.406006,61.455090 100.019096,63.820717 101.717911,66.569847 
	C103.527824,73.971962 105.251999,80.990562 106.976181,88.009171 
z"/>
<path fill="#EDE4D4" opacity="1.000000" stroke="none" 
	d="
M75.869827,62.429131 
	C75.662827,60.776936 76.080353,59.234653 75.601395,58.056961 
	C73.202721,52.158878 73.562508,50.531544 78.689011,48.035080 
	C82.130989,48.318169 82.821411,50.124794 83.099808,53.061008 
	C84.105675,63.669827 85.593918,74.231911 86.726082,84.830223 
	C87.209694,89.357391 87.264954,93.930321 87.222687,98.753784 
	C85.621643,92.110260 84.792793,85.057053 82.852333,78.324211 
	C81.293976,72.917145 78.388618,67.898277 75.869827,62.429131 
z"/>
<path fill="#EBDFCF" opacity="1.000000" stroke="none" 
	d="
M101.632187,66.186340 
	C100.019096,63.820717 98.406006,61.455090 96.445618,59.108131 
	C95.221298,56.528732 94.344276,53.930660 93.220840,50.834595 
	C92.637863,49.888039 92.301300,49.439472 91.964745,48.990906 
	C91.964745,48.990906 92.008568,48.994736 92.042809,48.598808 
	C90.691292,43.653587 93.853073,41.833157 96.997856,40.002522 
	C99.238152,41.116322 101.478455,42.230122 103.722046,43.982277 
	C103.074097,46.816036 102.001282,48.984230 101.857475,51.212383 
	C101.536362,56.187824 101.678673,61.193176 101.632187,66.186340 
z"/>
<path fill="#ECE2D5" opacity="1.000000" stroke="none" 
	d="
M101.717918,66.569847 
	C101.678673,61.193176 101.536362,56.187824 101.857475,51.212383 
	C102.001282,48.984230 103.074097,46.816036 103.872650,44.299992 
	C104.995247,45.236584 106.780960,46.468746 106.820747,47.754917 
	C107.229538,60.969151 107.355515,74.192131 107.268280,87.710922 
	C105.251999,80.990562 103.527824,73.971962 101.717918,66.569847 
z"/>
<path fill="#F8F7E9" opacity="1.000000" stroke="none" 
	d="
M153.000000,153.979294 
	C153.509521,140.901688 154.019058,127.824089 154.528580,114.746483 
	C155.019058,114.745346 155.509521,114.744202 156.000000,114.743065 
	C156.000000,127.508804 156.000000,140.274536 155.625031,153.514679 
	C154.500046,153.985825 153.750015,153.982559 153.000000,153.979294 
z"/>
<path fill="#F8F7E9" opacity="1.000000" stroke="none" 
	d="
M155.920395,47.212471 
	C155.216217,47.789722 154.206314,48.311310 153.976334,48.074718 
	C152.104691,46.149368 152.782883,37.006676 155.976089,33.263355 
	C155.976089,38.620445 155.976089,42.712952 155.920395,47.212471 
z"/>
<path fill="#B6A98D" opacity="1.000000" stroke="none" 
	d="
M96.581894,39.940453 
	C93.853073,41.833157 90.691292,43.653587 92.034882,48.619320 
	C91.184822,46.743698 90.376930,44.451630 89.569038,42.159565 
	C91.768005,41.399174 93.966965,40.638779 96.581894,39.940453 
z"/>
<path fill="#EFEBD9" opacity="1.000000" stroke="none" 
	d="
M164.038437,142.329758 
	C164.054153,141.908951 164.505569,141.950653 164.731659,141.959473 
	C165.165955,145.377304 165.374176,148.786331 165.289917,152.097412 
	C164.672531,148.916489 164.347626,145.833527 164.038437,142.329758 
z"/>
<path fill="#EFEBD9" opacity="1.000000" stroke="none" 
	d="
M152.625977,153.985657 
	C153.750015,153.982559 154.500046,153.985825 155.625031,153.981750 
	C158.041824,153.979767 160.083633,153.985138 162.563034,153.992493 
	C163.000580,154.162781 163.000549,154.331055 163.000565,154.751801 
	C161.931274,155.005814 160.861923,155.007370 159.391296,155.015930 
	C155.694122,155.022934 152.398224,155.022934 149.102341,155.022934 
	C149.088394,154.776749 149.074463,154.530563 149.060532,154.284363 
	C150.124344,154.186920 151.188156,154.089478 152.625977,153.985657 
z"/>
<path fill="#F8F7E9" opacity="1.000000" stroke="none" 
	d="
M152.774841,22.218851 
	C153.051071,21.963366 153.505310,21.980314 153.732193,21.975513 
	C154.240784,23.517611 154.522491,25.064508 154.804199,26.611406 
	C154.035675,26.677797 153.267151,26.744186 152.498627,26.810577 
	C152.498627,25.365164 152.498627,23.919750 152.774841,22.218851 
z"/>
<path fill="#F8F7E9" opacity="1.000000" stroke="none" 
	d="
M153.323380,73.519745 
	C153.288574,72.320633 153.376694,71.452347 153.464798,70.584068 
	C153.803696,70.546478 154.142578,70.508888 154.481476,70.471298 
	C154.858032,72.412537 155.234589,74.353775 155.611145,76.295013 
	C155.343201,76.395332 155.075256,76.495659 154.807327,76.595985 
	C154.353653,75.680847 153.899963,74.765709 153.323380,73.519745 
z"/>
<path fill="#F8F7E9" opacity="1.000000" stroke="none" 
	d="
M147.303986,42.956863 
	C147.010422,42.555225 147.007706,42.111183 147.013947,41.334244 
	C147.524872,41.320488 148.026810,41.639633 148.528763,41.958778 
	C148.217453,42.277336 147.906143,42.595898 147.303986,42.956863 
z"/>
<path fill="#F8F7E9" opacity="1.000000" stroke="none" 
	d="
M139.303650,104.956955 
	C139.011047,104.555290 139.009171,104.111275 139.017288,103.334435 
	C139.527939,103.321342 140.028580,103.641083 140.529236,103.960823 
	C140.217621,104.278748 139.905991,104.596680 139.303650,104.956955 
z"/>
<path fill="#B6A98D" opacity="1.000000" stroke="none" 
	d="
M91.953949,49.293129 
	C92.301300,49.439472 92.637863,49.888039 92.952568,50.642372 
	C92.601524,50.497215 92.272339,50.046284 91.953949,49.293129 
z"/>
<path fill="#B6A98D" opacity="1.000000" stroke="none" 
	d="
M135.634155,26.127533 
	C135.872208,26.419943 135.718277,26.685337 135.193481,26.935467 
	C135.104233,26.729198 135.244080,26.455971 135.634155,26.127533 
z"/>
<path fill="#EFEBD9" opacity="1.000000" stroke="none" 
	d="
M161.169586,121.040298 
	C161.429596,120.959015 161.650360,121.199249 161.833771,121.757843 
	C161.572235,121.841278 161.350204,121.603142 161.169586,121.040298 
z"/>
<path fill="#EFEBD9" opacity="1.000000" stroke="none" 
	d="
M170.363983,57.090958 
	C170.953384,51.268261 171.930984,45.539234 172.995483,39.415138 
	C174.330261,40.973564 176.546494,42.874977 176.654846,44.889755 
	C177.076309,52.726276 176.918655,60.600018 176.810883,68.457634 
	C176.599121,83.896606 176.091324,99.333656 176.057755,114.772270 
	C176.030136,127.476639 176.604355,140.182190 176.591507,152.886902 
	C176.590454,153.923569 174.119522,154.957733 172.397522,155.993774 
	C171.999191,135.778244 171.906616,115.561333 172.045685,95.346024 
	C172.101471,87.236092 172.987015,79.125275 172.875824,71.023346 
	C172.812378,66.401596 171.501419,61.796970 170.363983,57.090958 
z"/>
<path fill="#C9BEA6" opacity="1.000000" stroke="none" 
	d="
M191.992935,109.451691 
	C192.988358,102.503868 193.938492,95.997330 195.033203,89.515205 
	C195.206360,88.489761 196.032104,87.574524 196.784607,86.317238 
	C197.325562,86.490448 197.638046,86.954742 197.979828,87.712013 
	C196.674103,96.772530 195.030060,105.506866 194.083420,114.316139 
	C192.938400,124.971291 192.383728,135.689880 191.290955,146.680878 
	C191.337326,134.620834 191.666336,122.260933 191.992935,109.451691 
z"/>
<path fill="#F4F3E4" opacity="1.000000" stroke="none" 
	d="
M169.525299,156.541351 
	C169.477600,156.568069 169.572983,156.514633 169.525299,156.541351 
z"/>
<path fill="#BAA98D" opacity="1.000000" stroke="none" 
	d="
M209.988708,43.365559 
	C211.590927,40.532330 213.141922,38.061214 214.840668,35.283516 
	C215.257431,35.174519 215.526443,35.372101 215.904114,36.196587 
	C214.332748,42.877380 212.652710,48.931274 210.711548,55.209801 
	C209.633850,57.623081 208.817291,59.811726 208.000732,62.000374 
	C206.994186,64.085609 205.987625,66.170845 204.952118,68.612686 
	C202.826828,72.539978 200.730484,76.110641 198.324768,79.824036 
	C197.990692,79.228676 197.965988,78.490585 197.918518,77.383652 
	C199.926804,70.599060 201.957825,64.183319 204.007111,57.384933 
	C205.996078,52.577419 207.966782,48.152546 209.988708,43.365559 
z"/>
<path fill="#C1B29B" opacity="1.000000" stroke="none" 
	d="
M231.000732,118.607101 
	C227.670395,127.077278 224.340805,135.155502 221.002563,143.613922 
	C219.912308,145.629883 218.830673,147.265640 217.390594,148.529739 
	C217.208298,146.378448 217.360687,144.596115 217.564774,142.819717 
	C218.363174,135.870316 219.177933,128.922791 219.994751,121.988617 
	C220.002914,122.002670 219.970505,121.999992 220.240387,121.796814 
	C220.671722,120.721298 220.833206,119.848961 220.994690,118.976631 
	C220.994690,118.976631 221.005066,119.000916 221.249542,118.826027 
	C221.659851,118.060173 221.825684,117.469200 221.991531,116.878235 
	C221.991531,116.878235 221.976471,116.465332 222.196686,116.135574 
	C222.606293,115.535629 222.795685,115.265427 222.989227,114.658508 
	C222.995255,113.872597 222.997147,113.423393 222.999054,112.974190 
	C222.999054,112.974190 223.005478,113.002846 223.264420,112.770653 
	C223.681122,111.351372 223.838882,110.164291 223.996628,108.977203 
	C223.996628,108.977203 224.005630,109.003448 224.262665,108.802429 
	C224.678543,107.726219 224.837402,106.851021 224.996262,105.975830 
	C224.996262,105.975830 225.005707,106.003296 225.274475,105.802254 
	C226.028870,104.062782 226.514511,102.524353 227.000153,100.985924 
	C227.000137,100.985924 227.001846,101.000923 227.276215,100.788147 
	C232.129852,90.835770 236.729889,81.105797 241.257416,71.342216 
	C241.727417,70.328690 241.766785,69.115471 242.005951,67.994919 
	C242.005966,67.994919 242.000000,67.999695 242.339554,67.974792 
	C243.457214,66.966431 244.235306,65.982979 245.013412,64.999519 
	C245.013412,64.999519 245.012161,64.995804 245.366852,64.995728 
	C246.813660,64.660286 247.905792,64.324921 248.997925,63.989559 
	C247.670090,69.732948 246.342255,75.476349 244.689056,81.656067 
	C243.910141,82.728828 243.456604,83.365265 243.003052,84.001701 
	C243.002686,84.445824 243.002335,84.889938 242.742493,85.885788 
	C241.989471,87.959023 241.495956,89.480522 241.002441,91.002014 
	C241.001862,91.445824 241.001282,91.889618 241.000641,92.666245 
	C239.654984,95.758003 238.100754,98.437103 237.008087,101.292816 
	C234.869736,106.881500 232.988892,112.568710 231.000732,118.607101 
z"/>
<path fill="#BDAB8B" opacity="1.000000" stroke="none" 
	d="
M248.940277,63.655293 
	C247.905792,64.324921 246.813660,64.660286 245.374466,64.993904 
	C245.503876,62.569710 246.322861,60.937416 248.940277,63.655293 
z"/>
<path fill="#C4B493" opacity="1.000000" stroke="none" 
	d="
M241.333542,90.944778 
	C241.495956,89.480522 241.989471,87.959023 242.742645,86.218887 
	C242.556412,87.629349 242.110535,89.258446 241.333542,90.944778 
z"/>
<path fill="#AE9F81" opacity="1.000000" stroke="none" 
	d="
M244.682419,64.996811 
	C244.235306,65.982979 243.457214,66.966431 242.337982,67.978226 
	C242.251511,67.201881 242.506180,66.397217 242.894897,65.300491 
	C243.469772,65.003662 243.910599,64.998886 244.682419,64.996811 
z"/>
<path fill="#C4B493" opacity="1.000000" stroke="none" 
	d="
M243.320190,83.954559 
	C243.456604,83.365265 243.910141,82.728828 244.680923,82.045364 
	C244.544556,82.634705 244.090942,83.271065 243.320190,83.954559 
z"/>
<path fill="#D4C7A9" opacity="1.000000" stroke="none" 
	d="
M208.392761,62.099701 
	C208.817291,59.811726 209.633850,57.623081 211.081940,55.293854 
	C212.475616,60.511623 213.875519,65.869560 213.878998,71.228401 
	C213.889008,86.607704 213.369888,101.988289 212.979202,117.366348 
	C212.855865,122.221649 212.129196,127.088249 212.371368,131.914917 
	C212.491592,134.311142 214.180359,136.628662 215.300110,139.369202 
	C215.465607,144.150879 215.442307,148.546173 215.534851,152.939011 
	C215.584213,155.282364 215.833679,157.621490 215.992844,159.962524 
	C215.991562,160.135437 215.990280,160.308350 215.987442,160.740631 
	C215.985901,161.000000 215.510132,161.005814 214.986298,161.207214 
	C213.976440,162.935547 213.490448,164.462479 213.004456,165.989426 
	C213.004456,165.989426 213.000000,165.999100 212.746338,165.999512 
	C212.492676,165.999939 211.993896,166.000000 211.993896,166.000000 
	C211.329422,164.432739 210.098145,162.869537 210.086899,161.297577 
	C209.953644,142.686844 210.003448,124.074806 210.003281,105.463112 
	C210.003159,92.213730 210.030731,78.964142 209.945816,65.715294 
	C209.938278,64.540779 209.189377,63.371006 208.392761,62.099701 
z"/>
<path fill="#CDC0A1" opacity="1.000000" stroke="none" 
	d="
M211.857376,166.309723 
	C211.993896,166.000000 212.492676,165.999939 212.741959,166.002258 
	C212.226013,167.628845 211.460800,169.253098 210.349304,170.937103 
	C210.575653,169.537689 211.148254,168.078552 211.857376,166.309723 
z"/>
<path fill="#D2C4A5" opacity="1.000000" stroke="none" 
	d="
M215.159500,138.981796 
	C214.180359,136.628662 212.491592,134.311142 212.371368,131.914917 
	C212.129196,127.088249 212.855865,122.221649 212.979202,117.366348 
	C213.369888,101.988289 213.889008,86.607704 213.878998,71.228401 
	C213.875519,65.869560 212.475616,60.511623 211.343063,55.069221 
	C212.652710,48.931274 214.332748,42.877380 216.024292,36.419403 
	C216.690445,37.647697 217.905136,39.276737 217.914917,40.912979 
	C218.042618,62.304615 217.907181,83.697998 218.076401,105.089066 
	C218.111206,109.490326 219.123672,113.883850 219.838608,119.023438 
	C219.984634,120.510620 219.977570,121.255302 219.970505,121.999992 
	C219.970505,121.999992 220.002914,122.002670 219.716705,122.233673 
	C218.884842,124.357155 218.289017,126.236870 217.804382,128.144836 
	C216.888992,131.748581 216.037521,135.368561 215.159500,138.981796 
z"/>
<path fill="#AE9F81" opacity="1.000000" stroke="none" 
	d="
M226.741714,101.081970 
	C226.514511,102.524353 226.028870,104.062782 225.260132,105.804596 
	C224.993271,104.941429 225.009491,103.874886 225.044769,102.409164 
	C225.536972,101.732651 226.010132,101.455330 226.741714,101.081970 
z"/>
<path fill="#AE9F81" opacity="1.000000" stroke="none" 
	d="
M223.728760,109.217667 
	C223.838882,110.164291 223.681122,111.351372 223.250488,112.775253 
	C223.138702,111.827408 223.299789,110.642776 223.728760,109.217667 
z"/>
<path fill="#B2A287" opacity="1.000000" stroke="none" 
	d="
M220.240387,121.796814 
	C219.977570,121.255302 219.984634,120.510620 220.001923,119.394394 
	C220.012146,119.022858 220.503448,119.000061 220.749069,118.988342 
	C220.833206,119.848961 220.671722,120.721298 220.240387,121.796814 
z"/>
<path fill="#AE9F81" opacity="1.000000" stroke="none" 
	d="
M224.735443,106.188217 
	C224.837402,106.851021 224.678543,107.726219 224.248993,108.804779 
	C224.143723,108.138977 224.309174,107.269791 224.735443,106.188217 
z"/>
<path fill="#B2A287" opacity="1.000000" stroke="none" 
	d="
M221.750061,117.072380 
	C221.825684,117.469200 221.659851,118.060173 221.236511,118.827988 
	C221.155533,118.425400 221.332062,117.845963 221.750061,117.072380 
z"/>
<path fill="#AE9F81" opacity="1.000000" stroke="none" 
	d="
M222.753815,113.142822 
	C222.997147,113.423393 222.995255,113.872597 222.752060,114.659248 
	C222.510773,114.996696 222.036118,114.992928 222.036118,114.992928 
	C222.193604,114.432434 222.351105,113.871948 222.753815,113.142822 
z"/>
<path fill="#B2A287" opacity="1.000000" stroke="none" 
	d="
M222.016663,115.257462 
	C222.036118,114.992928 222.510773,114.996696 222.747925,114.995956 
	C222.795685,115.265427 222.606293,115.535629 222.197205,115.928986 
	C221.984070,115.875435 221.990631,115.698723 222.016663,115.257462 
z"/>
<path fill="#AE9F81" opacity="1.000000" stroke="none" 
	d="
M241.700012,68.145493 
	C241.766785,69.115471 241.727417,70.328690 241.257416,71.342216 
	C236.729889,81.105797 232.129852,90.835770 227.269241,100.791046 
	C228.629807,95.586411 230.271698,90.166077 231.960144,84.379120 
	C235.135818,78.773674 238.264954,73.534866 241.700012,68.145493 
z"/>
<path fill="#000000" opacity="1.000000" stroke="none" 
	d="
M185.157318,238.707275 
	C185.700500,240.220139 186.510849,241.772964 186.047897,242.664978 
	C185.670425,243.392319 183.523132,243.870850 182.618240,243.457596 
	C181.790497,243.079544 180.877716,240.767212 181.232269,240.348450 
	C182.049225,239.383423 183.613144,239.050797 185.157318,238.707275 
z"/>
<path fill="#000000" opacity="1.000000" stroke="none" 
	d="
M132.987579,238.593262 
	C133.198624,240.324554 133.483978,241.993118 132.886230,243.237442 
	C132.617111,243.797607 130.432816,243.888931 129.407852,243.474640 
	C128.735397,243.202850 128.056564,240.949936 128.283905,240.777878 
	C129.608490,239.775436 131.200348,239.126175 132.987579,238.593262 
z"/>
<path fill="#B2A287" opacity="1.000000" stroke="none" 
	d="
M215.300110,139.369202 
	C216.037521,135.368561 216.888992,131.748581 217.804382,128.144836 
	C218.289017,126.236870 218.884842,124.357155 219.708542,122.219627 
	C219.177933,128.922791 218.363174,135.870316 217.564774,142.819717 
	C217.360687,144.596115 217.208298,146.378448 217.059097,148.600647 
	C216.718475,152.401749 216.350906,155.760284 215.988098,159.540680 
	C215.833679,157.621490 215.584213,155.282364 215.534851,152.939011 
	C215.442307,148.546173 215.465607,144.150879 215.300110,139.369202 
z"/>
<path fill="#CDC0A1" opacity="1.000000" stroke="none" 
	d="
M213.320740,165.821808 
	C213.490448,164.462479 213.976440,162.935547 214.748444,161.212021 
	C214.568634,162.561691 214.102829,164.107956 213.320740,165.821808 
z"/>
</svg>